STARTFONT 2.1
COMMENT
COMMENT Converted from OpenType font "UbuntuMono-BoldItalic.ttf" by "otf2bdf 3.0".
COMMENT
FONT -FreeType-Ubuntu Mono-Bold-I-Normal--66-480-100-100-P-329-ISO10646-1
SIZE 48 100 100
FONTBOUNDINGBOX 65 66 -19 -11
STARTPROPERTIES 19
FOUNDRY "FreeType"
FAMILY_NAME "Ubuntu Mono"
WEIGHT_NAME "Bold"
SLANT "I"
SETWIDTH_NAME "Normal"
ADD_STYLE_NAME ""
PIXEL_SIZE 66
POINT_SIZE 480
RESOLUTION_X 100
RESOLUTION_Y 100
SPACING "P"
AVERAGE_WIDTH 329
CHARSET_REGISTRY "ISO10646"
CHARSET_ENCODING "1"
FONT_ASCENT 55
FONT_DESCENT 11
COPYRIGHT "Copyright 2011 Canonical Ltd.  Licensed under the Ubuntu Font Licence 1.0"
_OTF_FONTFILE "UbuntuMono-BoldItalic.ttf"
_OTF_PSNAME "UbuntuMono-BoldItalic"
ENDPROPERTIES
CHARS 1224
STARTCHAR 0000
ENCODING 0
SWIDTH 495 0
DWIDTH 33 0
BBX 0 0 0 0
BITMAP
ENDCHAR
STARTCHAR 0008
ENCODING 8
SWIDTH 495 0
DWIDTH 33 0
BBX 0 0 0 0
BITMAP
ENDCHAR
STARTCHAR 0009
ENCODING 9
SWIDTH 495 0
DWIDTH 33 0
BBX 0 0 0 0
BITMAP
ENDCHAR
STARTCHAR 000D
ENCODING 13
SWIDTH 495 0
DWIDTH 33 0
BBX 0 0 0 0
BITMAP
ENDCHAR
STARTCHAR 001D
ENCODING 29
SWIDTH 495 0
DWIDTH 33 0
BBX 0 0 0 0
BITMAP
ENDCHAR
STARTCHAR 0020
ENCODING 32
SWIDTH 495 0
DWIDTH 33 0
BBX 0 0 0 0
BITMAP
ENDCHAR
STARTCHAR 0021
ENCODING 33
SWIDTH 495 0
DWIDTH 33 0
BBX 18 42 11 -1
BITMAP
007FC0
007FC0
007FC0
00FFC0
00FFC0
00FF80
00FF80
01FF80
01FF80
01FF00
01FF00
03FF00
03FF00
03FE00
03FE00
03FE00
07FC00
07FC00
07FC00
07FC00
07F800
07F800
07F000
0FF000
0FF000
0FE000
000000
000000
000000
000000
000000
1F8000
3FC000
7FE000
FFE000
FFE000
FFE000
FFE000
FFC000
7FC000
7F8000
1C0000
ENDCHAR
STARTCHAR 0022
ENCODING 34
SWIDTH 495 0
DWIDTH 33 0
BBX 24 18 13 27
BITMAP
3FE1FF
3FC1FF
3FC1FE
7FC1FE
7FC3FE
7F83FE
7F83FC
7F83FC
7F83FC
FF03F8
FF03F8
FE07F8
FE07F0
FE07F0
FC07E0
FC07E0
F807E0
F807C0
ENDCHAR
STARTCHAR 0023
ENCODING 35
SWIDTH 495 0
DWIDTH 33 0
BBX 36 41 2 0
BITMAP
0000FE07E0
0000FE0FE0
0000FC0FC0
0001FC1FC0
0001F81FC0
0003F81F80
0003F83F80
0003F03F00
0007F07F00
0007E07F00
07FFFFFFF0
07FFFFFFE0
07FFFFFFE0
0FFFFFFFE0
0FFFFFFFE0
0FFFFFFFC0
0FFFFFFFC0
003F03F000
007F07F000
007E07F000
00FE07E000
00FE0FE000
00FC0FC000
01FC1FC000
3FFFFFFF00
7FFFFFFF00
7FFFFFFF00
7FFFFFFF00
7FFFFFFE00
7FFFFFFE00
FFFFFFFE00
0FE0FE0000
0FC0FC0000
1FC1FC0000
1F81FC0000
3F81F80000
3F83F80000
3F03F00000
7F07F00000
7E07F00000
FE07E00000
ENDCHAR
STARTCHAR 0024
ENCODING 36
SWIDTH 495 0
DWIDTH 33 0
BBX 32 52 3 -6
BITMAP
00000FE0
00000FE0
00001FC0
00001FC0
00001FC0
00001FC0
0000FFE0
0007FFFC
001FFFFF
003FFFFF
007FFFFF
00FFFFFE
01FFF1FE
01FF801C
01FE0004
03FE0000
03FE0000
03FE0000
03FE0000
03FF0000
01FF8000
01FFC000
01FFF000
00FFFC00
007FFF00
003FFF80
001FFFC0
0007FFE0
0001FFE0
00007FF0
00003FF0
00001FF0
00000FF8
00000FF8
00000FF8
00000FF0
10000FF0
1C001FF0
3FC0FFF0
3FFFFFE0
7FFFFFC0
FFFFFFC0
7FFFFF00
1FFFFE00
07FFF000
007F0000
007F0000
007F0000
00FE0000
00FE0000
00FE0000
00FE0000
ENDCHAR
STARTCHAR 0025
ENCODING 37
SWIDTH 495 0
DWIDTH 33 0
BBX 39 43 1 -1
BITMAP
000FC00000
003FE0007E
007FF000FC
00FFF001F8
01FFF801F8
01F9F803F0
01F0F807E0
03F0F80FC0
03E0F81F80
03E1F83F00
07E1F03F00
07C1F07E00
07C1F0FC00
07C3F1F800
07E7E3F000
07FFE7E000
03FFC7E000
03FF8FC000
01FF1F8000
00FE3F0000
00007E0000
0000FC0000
0000FC3800
0001F8FF00
0003F1FF80
0007E3FF80
000FC7FFC0
001F8FCFC0
001F8F87C0
003F1F87C0
007E1F07C0
00FC1F07C0
01F81F0FC0
03F03E0F80
03F03E0F80
07E03E1F80
0FC03E1F00
1F803F3F00
3F003FFE00
7E001FFE00
7E001FFC00
FC000FF800
000003E000
ENDCHAR
STARTCHAR 0026
ENCODING 38
SWIDTH 495 0
DWIDTH 33 0
BBX 32 43 3 -1
BITMAP
0000FF80
0003FFC0
000FFFE0
001FFFF0
003FFFF8
003FFFF8
007F83F8
007F03F8
00FE03F8
00FE03F8
00FE03F8
00FC03F0
00FC07F0
00FC0FE0
00FE1FE0
00FE3FC0
00FEFF80
007FFF00
007FFE00
007FF800
00FFF03E
01FFE07F
03FFE07F
07FFF07E
0FFFF8FE
1FE7F8FC
3F83FDFC
7F83FFF8
7F01FFF8
7F00FFF0
FE00FFF0
FE007FE0
FE003FC0
FE003FC0
FF007FE0
FF81FFE0
FFFFFFF0
7FFFFFF0
7FFFF7F0
3FFFE7F8
1FFFC7F8
0FFF03F8
00E00000
ENDCHAR
STARTCHAR 0027
ENCODING 39
SWIDTH 495 0
DWIDTH 33 0
BBX 11 20 19 25
BITMAP
3FE0
3FE0
3FE0
7FC0
7FC0
7FC0
7FC0
7F80
7F80
FF80
FF00
FF00
FE00
FE00
FE00
FC00
FC00
F800
F800
F800
ENDCHAR
STARTCHAR 0028
ENCODING 40
SWIDTH 495 0
DWIDTH 33 0
BBX 27 58 9 -11
BITMAP
00000300
00000780
00001F80
00003FC0
0000FFC0
0001FFE0
0003FF80
0007FF00
000FFC00
001FF800
003FF000
007FE000
00FFC000
00FF8000
01FF0000
03FF0000
03FE0000
07FC0000
07F80000
0FF80000
0FF00000
1FF00000
1FE00000
3FE00000
3FC00000
3FC00000
7FC00000
7F800000
7F800000
7F800000
FF000000
FF000000
FF000000
FF000000
FF000000
FF000000
FF000000
FF000000
FF000000
FF000000
FF000000
FF000000
7F800000
7F800000
7F800000
7F800000
3FC00000
3FC00000
1FE00000
1FF00000
0FF00000
0FF80000
07FC0000
07FE0000
03FC0000
01F80000
00F00000
00600000
ENDCHAR
STARTCHAR 0029
ENCODING 41
SWIDTH 495 0
DWIDTH 33 0
BBX 27 58 3 -11
BITMAP
0000C000
0001E000
0003F000
0007F000
000FF800
0007FC00
0007FC00
0003FE00
0001FE00
0000FF00
0000FF00
00007F80
00007F80
00007F80
00003FC0
00003FC0
00003FC0
00003FC0
00001FC0
00001FC0
00001FE0
00001FE0
00001FE0
00001FC0
00001FC0
00001FC0
00003FC0
00003FC0
00003FC0
00003FC0
00007F80
00007F80
00007F80
0000FF80
0000FF00
0001FF00
0001FE00
0003FE00
0003FC00
0007FC00
000FF800
000FF800
001FF000
003FF000
007FE000
00FFC000
01FF8000
03FF0000
07FF0000
0FFE0000
1FFC0000
7FF00000
FFE00000
FFC00000
7F800000
7E000000
3C000000
30000000
ENDCHAR
STARTCHAR 002A
ENCODING 42
SWIDTH 495 0
DWIDTH 33 0
BBX 28 26 8 15
BITMAP
003FC000
003FC000
003FC000
003FC000
003F8000
101F8080
3C1F83C0
3F1F8FC0
7FDF3FC0
7FEF7FE0
7FFFFFE0
FFFFFFE0
7FFFFFF0
0FFFFF80
003FC000
007FE000
01FFF000
03FFFC00
07F9FE00
0FF9FE00
0FF1FF00
1FF0FF00
07F0FE00
03E07C00
00C03000
00402000
ENDCHAR
STARTCHAR 002B
ENCODING 43
SWIDTH 495 0
DWIDTH 33 0
BBX 29 29 5 3
BITMAP
0003F800
0003F800
0003F800
0007F000
0007F000
0007F000
0007F000
000FF000
000FE000
000FE000
000FE000
7FFFFFF8
7FFFFFF8
7FFFFFF8
FFFFFFF0
FFFFFFF0
FFFFFFF0
FFFFFFF0
003F8000
003F8000
007F0000
007F0000
007F0000
007F0000
00FE0000
00FE0000
00FE0000
00FE0000
01FE0000
ENDCHAR
STARTCHAR 002C
ENCODING 44
SWIDTH 495 0
DWIDTH 33 0
BBX 17 21 6 -10
BITMAP
00FC00
01FE00
03FF00
07FF00
07FF80
07FF80
07FF80
07FF00
07FF00
03FF00
01FF00
007E00
007E00
00FC00
03FC00
1FF800
FFF000
7FE000
7FC000
7F0000
780000
ENDCHAR
STARTCHAR 002D
ENCODING 45
SWIDTH 495 0
DWIDTH 33 0
BBX 20 8 9 13
BITMAP
3FFFF0
3FFFF0
3FFFF0
7FFFF0
7FFFE0
7FFFE0
7FFFE0
FFFFE0
ENDCHAR
STARTCHAR 002E
ENCODING 46
SWIDTH 495 0
DWIDTH 33 0
BBX 12 12 11 -1
BITMAP
0F80
3FC0
7FE0
7FE0
FFF0
FFF0
FFE0
FFE0
FFE0
7FC0
7F80
1E00
ENDCHAR
STARTCHAR 002F
ENCODING 47
SWIDTH 495 0
DWIDTH 33 0
BBX 39 58 0 -11
BITMAP
00000003FE
00000007FC
00000007FC
0000000FF8
0000000FF0
0000001FF0
0000001FE0
0000003FE0
0000003FC0
0000007FC0
0000007F80
000000FF80
000000FF00
000001FF00
000001FE00
000003FE00
000007FC00
000007FC00
00000FF800
00000FF000
00001FF000
00001FE000
00003FE000
00003FC000
00007FC000
00007F8000
0000FF8000
0000FF0000
0001FF0000
0003FE0000
0003FE0000
0007FC0000
0007FC0000
000FF80000
000FF00000
001FF00000
001FE00000
003FE00000
003FC00000
007FC00000
007F800000
00FF800000
00FF000000
01FF000000
03FE000000
03FE000000
07FC000000
07F8000000
0FF8000000
0FF0000000
1FF0000000
1FE0000000
3FE0000000
3FC0000000
7FC0000000
7F80000000
FF80000000
FF00000000
ENDCHAR
STARTCHAR 0030
ENCODING 48
SWIDTH 495 0
DWIDTH 33 0
BBX 31 43 5 -1
BITMAP
0001FF00
000FFFC0
001FFFE0
007FFFF0
00FFFFF8
01FFFFF8
01FFFFFC
03FF07FC
07FC03FC
07F801FC
0FF001FE
0FF001FE
1FE001FE
1FE001FE
3FC001FE
3FC001FE
3FC1C1FE
7F87E1FC
7F87E1FC
7F8FE1FC
7F0FE3FC
7F0FE3FC
FF0FC3FC
FF0FC3F8
FF0787F8
FF0007F8
FE0007F8
FE000FF0
FE000FF0
FE000FE0
FE001FE0
FE003FE0
FF003FC0
FF007FC0
FF80FF80
7FC3FF00
7FFFFF00
7FFFFE00
3FFFFC00
1FFFF800
0FFFE000
07FFC000
00FE0000
ENDCHAR
STARTCHAR 0031
ENCODING 49
SWIDTH 495 0
DWIDTH 33 0
BBX 27 41 4 0
BITMAP
00000FE0
00003FE0
00007FC0
0001FFC0
0007FFC0
000FFFC0
003FFF80
01FFFF80
07FFFF80
07FFFF80
03FFFF00
03FCFF00
03F8FF00
01E1FF00
0101FE00
0001FE00
0001FE00
0001FE00
0003FE00
0003FC00
0003FC00
0003FC00
0007FC00
0007F800
0007F800
0007F800
000FF800
000FF000
000FF000
000FF000
001FF000
001FE000
001FE000
001FE000
3FFFFFE0
3FFFFFE0
7FFFFFC0
7FFFFFC0
7FFFFFC0
7FFFFFC0
FFFFFF80
ENDCHAR
STARTCHAR 0032
ENCODING 50
SWIDTH 495 0
DWIDTH 33 0
BBX 32 42 3 0
BITMAP
0000FFC0
0007FFF0
001FFFF8
007FFFFC
01FFFFFE
01FFFFFF
01FFFFFF
00FF03FF
00F801FF
007000FF
004000FF
000000FF
000000FF
000000FF
000001FE
000003FE
000007FC
00000FFC
00001FF8
00003FF0
0000FFE0
0001FFC0
0007FF80
000FFE00
001FFC00
003FF800
00FFE000
01FFC000
03FF8000
07FE0000
0FFC0000
0FF80000
1FF00000
3FE00000
3FC00000
7FFFFFF0
7FFFFFF0
7FFFFFF0
FFFFFFE0
FFFFFFE0
FFFFFFE0
FFFFFFE0
ENDCHAR
STARTCHAR 0033
ENCODING 51
SWIDTH 495 0
DWIDTH 33 0
BBX 33 43 2 -1
BITMAP
0000FFC000
0007FFF000
003FFFFC00
007FFFFE00
003FFFFF00
003FFFFF00
003FFFFF00
001C01FF80
001000FF80
0000007F80
0000007F80
0000007F00
000000FF00
000000FF00
000001FE00
000003FE00
00000FFC00
0007FFF800
000FFFE000
000FFFC000
000FFF0000
000FFFC000
001FFFE000
001FFFF000
00001FF800
00000FF800
000007F800
000003FC00
000003FC00
000003FC00
000007FC00
000007FC00
000007F800
00000FF800
38001FF800
3E007FF000
3FFFFFF000
7FFFFFE000
7FFFFFC000
FFFFFF8000
7FFFFE0000
1FFFF80000
01FF800000
ENDCHAR
STARTCHAR 0034
ENCODING 52
SWIDTH 495 0
DWIDTH 33 0
BBX 33 41 3 0
BITMAP
000000FF80
000001FF80
000003FF80
000007FF00
00000FFF00
00001FFF00
00003FFF00
00007FFE00
0000FFFE00
0001FFFE00
0003FDFE00
0007F9FC00
000FF3FC00
001FE3FC00
003FC3FC00
007F83F800
00FF03F800
01FE07F800
03FC07F800
03F807F800
07F007F000
0FE00FF000
1FC00FF000
3F800FF000
3F800FE000
7FFFFFFE00
7FFFFFFE00
7FFFFFFE00
FFFFFFFE00
FFFFFFFE00
FFFFFFFC00
00003FC000
00003F8000
00007F8000
00007F8000
00007F8000
00007F0000
0000FF0000
0000FF0000
0000FF0000
0000FE0000
ENDCHAR
STARTCHAR 0035
ENCODING 53
SWIDTH 495 0
DWIDTH 33 0
BBX 35 42 2 -1
BITMAP
0007FFFFE0
0007FFFFE0
0007FFFFC0
000FFFFFC0
000FFFFFC0
000FFFFFC0
001FFFFF80
001FC00000
001FC00000
003F800000
003F800000
003F800000
007F800000
007F000000
007F000000
00FFC00000
00FFFC0000
00FFFF0000
01FFFFC000
01FFFFE000
01FFFFF000
001FFFF000
00007FF800
00001FF800
00000FF800
000007FC00
000007FC00
000003FC00
000003FC00
000003FC00
000007FC00
000007F800
00000FF800
18001FF800
3F007FF000
3FFFFFE000
7FFFFFE000
7FFFFFC000
FFFFFF8000
7FFFFE0000
1FFFF80000
00FF800000
ENDCHAR
STARTCHAR 0036
ENCODING 54
SWIDTH 495 0
DWIDTH 33 0
BBX 32 43 5 -1
BITMAP
00000006
000007FF
00007FFF
0001FFFF
0007FFFF
000FFFFE
003FFFFE
007FFF80
00FFF000
01FFC000
03FF0000
07FE0000
07F80000
0FF80000
1FF00000
1FE00000
3FE3FC00
3FDFFF00
3FFFFF80
7FFFFFC0
7FFFFFE0
7FFFFFE0
7FF07FF0
FF801FF0
FF000FF0
FF0007F8
FF0007F8
FF0007F8
FF0007F8
FF0007F0
FF000FF0
FF000FF0
FF000FF0
7F801FE0
7FC03FE0
7FE07FC0
3FFFFFC0
3FFFFF80
1FFFFF00
0FFFFE00
07FFFC00
01FFF000
003F0000
ENDCHAR
STARTCHAR 0037
ENCODING 55
SWIDTH 495 0
DWIDTH 33 0
BBX 31 41 8 0
BITMAP
1FFFFFFE
3FFFFFFE
3FFFFFFE
3FFFFFFE
3FFFFFFC
7FFFFFFC
7FFFFFF8
00001FF0
00003FE0
00007FC0
00007F80
0000FF80
0001FF00
0003FE00
0007FC00
0007F800
000FF800
001FF000
001FE000
003FE000
007FC000
007F8000
00FF8000
00FF0000
01FE0000
03FE0000
03FC0000
07FC0000
07F80000
0FF80000
0FF00000
1FF00000
1FE00000
3FE00000
3FC00000
3FC00000
7FC00000
7F800000
7F800000
FF800000
FF000000
ENDCHAR
STARTCHAR 0038
ENCODING 56
SWIDTH 495 0
DWIDTH 33 0
BBX 32 43 4 -1
BITMAP
0001FF80
0007FFE0
001FFFF8
003FFFFC
007FFFFE
00FFFFFE
01FFC7FF
01FF01FF
01FE00FF
03FC00FF
03FC00FF
03F800FF
03F800FF
03FC00FE
03FC01FE
03FE03FC
01FF07F8
01FF9FF0
00FFFFE0
007FFFC0
007FFF00
00FFFF00
03FFFF80
07FDFFC0
0FF07FE0
1FE03FE0
3FC01FF0
7F800FF0
7F800FF0
7F000FF0
FF0007F0
FF000FF0
FF000FF0
FF000FF0
FF801FF0
FFC07FE0
7FFFFFE0
7FFFFFC0
3FFFFF80
1FFFFF00
0FFFFC00
03FFF000
007F8000
ENDCHAR
STARTCHAR 0039
ENCODING 57
SWIDTH 495 0
DWIDTH 33 0
BBX 32 42 4 0
BITMAP
0003FE00
001FFF80
007FFFE0
00FFFFF0
01FFFFF8
03FFFFF8
07FFFFFC
07FC07FC
0FF803FE
0FF001FE
0FF001FE
1FE001FE
1FE000FF
1FE000FF
1FE000FF
1FE000FF
1FE000FF
1FE001FE
1FF001FE
0FF807FE
0FFFFFFE
0FFFFFFE
07FFFFFE
03FFFFFC
01FFFBFC
007FE7FC
000007F8
00000FF8
00000FF0
00001FF0
00003FE0
00007FC0
0001FF80
0007FF80
001FFF00
1FFFFC00
7FFFF800
FFFFF000
FFFFC000
FFFF0000
FFFC0000
FFC00000
ENDCHAR
STARTCHAR 003A
ENCODING 58
SWIDTH 495 0
DWIDTH 33 0
BBX 16 32 11 -1
BITMAP
00FC
01FE
03FF
07FF
07FF
07FF
07FF
07FF
07FE
07FE
03F8
0060
0000
0000
0000
0000
0000
0000
0000
0000
0F80
3FC0
7FE0
7FE0
FFF0
FFF0
FFE0
FFE0
FFE0
7FC0
7F80
1E00
ENDCHAR
STARTCHAR 003B
ENCODING 59
SWIDTH 495 0
DWIDTH 33 0
BBX 21 41 6 -10
BITMAP
0007E0
000FF0
001FF8
003FF8
003FF8
003FF8
003FF8
003FF8
003FF0
003FF0
001FC0
000300
000000
000000
000000
000000
000000
000000
000000
000000
00FC00
01FE00
03FF00
07FF00
07FF80
07FF80
07FF80
07FF00
07FF00
03FF00
01FF00
007E00
007E00
00FC00
03FC00
1FF800
FFF000
7FE000
7FC000
7F0000
780000
ENDCHAR
STARTCHAR 003C
ENCODING 60
SWIDTH 495 0
DWIDTH 33 0
BBX 31 28 5 4
BITMAP
0000001C
000000FC
000003FC
00001FFC
00007FFC
0003FFFE
001FFFFE
007FFFF0
03FFFFC0
0FFFFE00
3FFFF000
7FFF8000
7FFC0000
7FE00000
7FE00000
7FF80000
FFFF0000
3FFFC000
0FFFF000
03FFFC00
00FFFF00
003FFFC0
000FFFE0
0003FFC0
0000FF80
00003F80
00000F00
00000300
ENDCHAR
STARTCHAR 003D
ENCODING 61
SWIDTH 495 0
DWIDTH 33 0
BBX 32 19 3 8
BITMAP
0FFFFFFF
0FFFFFFF
0FFFFFFF
0FFFFFFF
0FFFFFFF
1FFFFFFE
00000000
00000000
00000000
00000000
00000000
00000000
00000000
7FFFFFF8
7FFFFFF8
7FFFFFF8
7FFFFFF8
FFFFFFF0
FFFFFFF0
ENDCHAR
STARTCHAR 003E
ENCODING 62
SWIDTH 495 0
DWIDTH 33 0
BBX 30 28 4 4
BITMAP
03800000
07E00000
07F80000
0FFE0000
0FFF8000
1FFFE000
07FFF800
01FFFE00
007FFF80
001FFFF0
0003FFFC
0000FFFC
00003FFC
00000FF8
00007FF8
0001FFF8
000FFFF8
007FFFF0
03FFFF80
1FFFFE00
FFFFF000
FFFF8000
FFFE0000
FFF00000
FF800000
FE000000
F0000000
C0000000
ENDCHAR
STARTCHAR 003F
ENCODING 63
SWIDTH 495 0
DWIDTH 33 0
BBX 25 43 10 -1
BITMAP
007FF000
03FFFC00
1FFFFE00
1FFFFF00
1FFFFF80
1FFFFF80
1FFFFF80
0F00FF80
0800FF80
00007F80
0000FF80
0000FF80
0000FF80
0001FF00
0003FE00
000FFE00
001FFC00
003FF000
00FFE000
01FFC000
03FF0000
03FE0000
07FC0000
0FF80000
0FF00000
0FF00000
1FE00000
00000000
00000000
00000000
00000000
00000000
1F800000
3FC00000
7FE00000
7FE00000
FFE00000
FFE00000
FFE00000
FFC00000
7FC00000
3F800000
1E000000
ENDCHAR
STARTCHAR 0040
ENCODING 64
SWIDTH 495 0
DWIDTH 33 0
BBX 33 51 4 -9
BITMAP
00007FE000
0003FFF800
000FFFFE00
001FFFFE00
003FFFFF00
007FFFFF80
00FF807F80
01FE003F80
03FC003F80
03F8001F80
07F0001F80
0FE0001F80
0FC0003F80
1FC03FFF80
1F80FFFF80
3F81FFFF80
3F03FFFF00
3F07FFFF00
7F07FFFF00
7E0FF87F00
7E0FE0FE00
7E1FC0FE00
7E1FC0FE00
FC1F80FE00
FC3F81FC00
FC3F81FC00
FC3F81FC00
FC3F81FC00
FC3F81FC00
FC3F83F800
FC3F83F800
FC3F83F800
FC3FC3F800
FC3FFFF000
FC1FFFF000
FC1FFFF000
FC0FFFF000
FE07FFE000
FE03FFE000
FE00780000
7F00000000
7F00000000
7F80000000
3FE0000000
3FF8010000
1FFFFF0000
0FFFFF0000
07FFFE0000
03FFFE0000
00FFFE0000
001FF80000
ENDCHAR
STARTCHAR 0041
ENCODING 65
SWIDTH 495 0
DWIDTH 33 0
BBX 32 41 0 0
BITMAP
00000FFC
00000FFC
00001FFC
00001FFC
00003FFC
00007FFC
00007FFC
0000FFFC
0000FEFC
0001FCFE
0001FCFE
0003F8FE
0007F8FE
0007F0FE
000FF0FE
000FE0FE
001FE0FE
001FC0FE
003FC0FE
003F80FE
007F80FE
007F80FE
00FF00FE
00FF00FE
01FE00FE
01FFFFFE
03FFFFFF
03FFFFFF
07FFFFFF
07FFFFFF
0FFFFFFF
0FF000FF
0FF000FF
1FE000FF
1FE000FF
3FC000FF
3FC000FF
7F8000FF
7F8000FF
FF8001FF
FF0001FF
ENDCHAR
STARTCHAR 0042
ENCODING 66
SWIDTH 495 0
DWIDTH 33 0
BBX 33 43 3 -1
BITMAP
0000FF0000
007FFFE000
007FFFF800
007FFFFC00
00FFFFFE00
00FFFFFF00
00FFFFFF00
00FF03FF00
01FE00FF80
01FE007F80
01FE007F80
01FE007F80
03FE007F00
03FC00FF00
03FC00FF00
03FC01FE00
03FC07FE00
07FFFFFC00
07FFFFF800
07FFFFE000
07FFFFC000
0FFFFFE000
0FFFFFF000
0FFFFFF800
0FF00FFC00
1FE003FC00
1FE003FC00
1FE003FC00
1FE001FE00
3FC003FC00
3FC003FC00
3FC003FC00
3FC007FC00
7F800FFC00
7F803FF800
7FF3FFF800
7FFFFFF000
FFFFFFE000
FFFFFFC000
FFFFFF0000
FFFFFC0000
7FFFE00000
0028000000
ENDCHAR
STARTCHAR 0043
ENCODING 67
SWIDTH 495 0
DWIDTH 33 0
BBX 32 43 6 -1
BITMAP
00007FE0
0003FFFC
000FFFFE
001FFFFF
007FFFFE
00FFFFFE
01FFFFFC
03FFC07C
03FF0008
07FE0000
0FFC0000
0FF80000
1FF00000
1FF00000
3FE00000
3FE00000
3FC00000
7FC00000
7F800000
7F800000
7F800000
FF800000
FF800000
FF000000
FF000000
FF000000
FF000000
FF000000
FF000000
FF000000
FF000000
FF800000
FF800000
FFC00000
7FE00300
7FF83F00
3FFFFF00
3FFFFF00
1FFFFF80
0FFFFF80
07FFFF00
03FFF800
003FC000
ENDCHAR
STARTCHAR 0044
ENCODING 68
SWIDTH 495 0
DWIDTH 33 0
BBX 33 43 2 -1
BITMAP
0003FC0000
003FFFC000
007FFFF000
007FFFF800
007FFFFC00
007FFFFE00
007FFFFE00
00FFCFFF00
00FF01FF00
00FF00FF80
00FF00FF80
01FF007F80
01FE007F80
01FE007F80
01FE007F80
03FE007F80
03FC007F80
03FC007F80
03FC007F80
07FC007F80
07F800FF80
07F800FF80
07F800FF80
0FF800FF00
0FF000FF00
0FF001FF00
0FF001FF00
1FF003FE00
1FE003FE00
1FE007FC00
1FE007FC00
3FE00FFC00
3FC01FF800
3FC03FF000
3FC0FFF000
7FFFFFE000
7FFFFFC000
7FFFFF8000
7FFFFE0000
7FFFFC0000
FFFFF00000
FFFF800000
0070000000
ENDCHAR
STARTCHAR 0045
ENCODING 69
SWIDTH 495 0
DWIDTH 33 0
BBX 34 41 4 0
BITMAP
007FFFFFC0
007FFFFF80
007FFFFF80
00FFFFFF80
00FFFFFF80
00FFFFFF80
00FFFFFF00
00FF000000
01FF000000
01FE000000
01FE000000
01FE000000
03FE000000
03FC000000
03FC000000
03FC000000
07FFFFF000
07FFFFE000
07FFFFE000
07FFFFE000
0FFFFFE000
0FFFFFE000
0FFFFFC000
0FF0000000
1FF0000000
1FE0000000
1FE0000000
1FE0000000
1FE0000000
3FC0000000
3FC0000000
3FC0000000
3FC0000000
7FC0000000
7FFFFFE000
7FFFFFE000
7FFFFFE000
FFFFFFC000
FFFFFFC000
FFFFFFC000
FFFFFFC000
ENDCHAR
STARTCHAR 0046
ENCODING 70
SWIDTH 495 0
DWIDTH 33 0
BBX 35 41 4 0
BITMAP
007FFFFFE0
007FFFFFE0
007FFFFFC0
007FFFFFC0
007FFFFFC0
00FFFFFFC0
00FFFFFF80
00FF000000
00FF000000
01FF000000
01FE000000
01FE000000
01FE000000
03FE000000
03FC000000
03FC000000
03FC000000
07FFFFF800
07FFFFF000
07FFFFF000
07FFFFF000
0FFFFFF000
0FFFFFE000
0FF0000000
0FF0000000
1FF0000000
1FF0000000
1FE0000000
1FE0000000
1FE0000000
3FE0000000
3FC0000000
3FC0000000
3FC0000000
7FC0000000
7F80000000
7F80000000
7F80000000
FF80000000
FF00000000
FF00000000
ENDCHAR
STARTCHAR 0047
ENCODING 71
SWIDTH 495 0
DWIDTH 33 0
BBX 33 43 5 -1
BITMAP
00007FF000
0001FFFE00
0007FFFF00
001FFFFF80
003FFFFF00
007FFFFF00
00FFFFFE00
01FFE03E00
03FF800400
03FE000000
07FC000000
0FF8000000
0FF8000000
1FF0000000
1FE0000000
3FE0000000
3FE0000000
3FC0000000
3FC0000000
7FC0000000
7F8007F800
7F8007F800
7F8007F800
7F800FF800
FF800FF000
FF000FF000
FF000FF000
FF001FF000
FF001FE000
FF801FE000
FF801FE000
FF803FE000
7F803FC000
7FC03FC000
7FE03FC000
7FF87FC000
3FFFFF8000
3FFFFF8000
1FFFFF8000
0FFFFF8000
07FFFF8000
03FFFE0000
007FC00000
ENDCHAR
STARTCHAR 0048
ENCODING 72
SWIDTH 495 0
DWIDTH 33 0
BBX 37 41 2 0
BITMAP
007FC007F8
007F800FF8
007F800FF0
007F800FF0
007F800FF0
00FF001FF0
00FF001FE0
00FF001FE0
00FF001FE0
01FF003FE0
01FE003FC0
01FE003FC0
01FE003FC0
03FE003FC0
03FC007FC0
03FC007F80
03FFFFFF80
07FFFFFF80
07FFFFFF80
07FFFFFF00
07FFFFFF00
0FFFFFFF00
0FFFFFFF00
0FF001FE00
0FF001FE00
1FF001FE00
1FE003FE00
1FE003FC00
1FE003FC00
3FE003FC00
3FC007FC00
3FC007F800
3FC007F800
3FC007F800
7FC00FF800
7F800FF000
7F800FF000
7F800FF000
FF801FF000
FF001FF000
FF001FE000
ENDCHAR
STARTCHAR 0049
ENCODING 73
SWIDTH 495 0
DWIDTH 33 0
BBX 36 41 2 0
BITMAP
003FFFFFF0
003FFFFFF0
003FFFFFF0
007FFFFFF0
007FFFFFE0
007FFFFFE0
007FFFFFE0
00007FC000
00007F8000
00007F8000
00007F8000
0000FF8000
0000FF0000
0000FF0000
0000FF0000
0001FF0000
0001FE0000
0001FE0000
0001FE0000
0001FE0000
0003FE0000
0003FC0000
0003FC0000
0003FC0000
0007FC0000
0007F80000
0007F80000
0007F80000
000FF80000
000FF00000
000FF00000
000FF00000
001FF00000
001FE00000
3FFFFFF000
3FFFFFF000
7FFFFFF000
7FFFFFE000
7FFFFFE000
7FFFFFE000
FFFFFFE000
ENDCHAR
STARTCHAR 004A
ENCODING 74
SWIDTH 495 0
DWIDTH 33 0
BBX 34 42 3 -1
BITMAP
000FFFFFC0
000FFFFFC0
000FFFFF80
000FFFFF80
001FFFFF80
001FFFFF80
001FFFFF80
000000FF00
000000FF00
000000FF00
000001FF00
000001FE00
000001FE00
000001FE00
000003FE00
000003FC00
000003FC00
000003FC00
000007FC00
000007F800
000007F800
000007F800
000007F800
00000FF800
00000FF000
00000FF000
00000FF000
00001FF000
00001FE000
00001FE000
00003FE000
00003FC000
18007FC000
3E00FFC000
7F87FF8000
7FFFFF0000
FFFFFF0000
FFFFFE0000
7FFFFC0000
3FFFF80000
0FFFE00000
00FE000000
ENDCHAR
STARTCHAR 004B
ENCODING 75
SWIDTH 495 0
DWIDTH 33 0
BBX 38 41 2 0
BITMAP
003FC00FFC
003FC00FF8
007FC01FF0
007F803FE0
007F807FE0
007F807FC0
00FF80FF80
00FF01FF00
00FF03FE00
00FF07FC00
01FF0FFC00
01FE1FF800
01FE3FF000
01FE3FE000
03FE7FC000
03FCFF8000
03FFFF0000
03FFFE0000
07FFFC0000
07FFF80000
07FFF80000
07FFFC0000
0FFFFE0000
0FF3FE0000
0FF1FF0000
0FF1FF0000
0FF0FF8000
1FF0FF8000
1FE07FC000
1FE07FC000
1FE03FE000
3FE03FE000
3FC01FF000
3FC01FF000
3FC00FF000
7FC00FF800
7F800FF800
7F8007F800
7F8007F800
FF8007FC00
FF0007FC00
ENDCHAR
STARTCHAR 004C
ENCODING 76
SWIDTH 495 0
DWIDTH 33 0
BBX 27 41 3 0
BITMAP
003FC000
007FC000
007F8000
007F8000
007F8000
00FF8000
00FF0000
00FF0000
00FF0000
00FF0000
01FE0000
01FE0000
01FE0000
01FE0000
03FE0000
03FC0000
03FC0000
03FC0000
07FC0000
07F80000
07F80000
07F80000
0FF80000
0FF00000
0FF00000
0FF00000
1FF00000
1FE00000
1FE00000
1FE00000
1FE00000
3FC00000
3FC00000
3FC00000
3FFFFFE0
7FFFFFE0
7FFFFFE0
7FFFFFC0
7FFFFFC0
FFFFFFC0
FFFFFFC0
ENDCHAR
STARTCHAR 004D
ENCODING 77
SWIDTH 495 0
DWIDTH 33 0
BBX 37 41 1 0
BITMAP
001FC007F8
001FE007F8
003FE00FF8
003FE00FF8
003FE01FF8
007FE01FF8
007FE03FF0
007FE03FF0
007FE07FF0
00FFE07FF0
00FFE0FBF0
00FDE0FBF0
01FDE1F7E0
01F9F1F7E0
01F9F3E7E0
03F9F3E7E0
03F9F7CFE0
03F1F7CFE0
03F1FF8FC0
07F1FF8FC0
07F1FF1FC0
07E1FF1FC0
0FE1FE1FC0
0FE1FE1F80
0FE1FC3F80
0FE1FC3F80
1FC0003F80
1FC0003F80
1FC0007F00
1FC0007F00
3F80007F00
3F80007F00
3F8000FE00
7F8000FE00
7F0000FE00
7F0000FE00
7F0001FE00
FF0001FC00
FF0001FC00
FE0001FC00
FE0003FC00
ENDCHAR
STARTCHAR 004E
ENCODING 78
SWIDTH 495 0
DWIDTH 33 0
BBX 37 41 2 0
BITMAP
007F8003F8
007F8007F8
007F8007F0
007FC007F0
00FFC007F0
00FFC00FF0
00FFE00FE0
00FFE00FE0
01FFE00FE0
01FFF01FE0
01FFF01FC0
01FFF01FC0
01FFF01FC0
03FDF83FC0
03F9F83F80
03F9F83F80
03F9F83F80
07F8FC3F80
07F0FC7F80
07F0FC7F00
07F0FC7F00
0FF07C7F00
0FE07EFF00
0FE07EFE00
0FE07EFE00
1FE07EFE00
1FC03FFE00
1FC03FFC00
1FC03FFC00
3FC03FFC00
3FC01FFC00
3F801FF800
3F801FF800
3F801FF800
7F801FF800
7F001FF000
7F000FF000
7F000FF000
FF000FF000
FE000FF000
FE000FE000
ENDCHAR
STARTCHAR 004F
ENCODING 79
SWIDTH 495 0
DWIDTH 33 0
BBX 32 43 4 -1
BITMAP
0000FF80
0007FFE0
000FFFF0
003FFFF8
007FFFFC
00FFFFFC
01FFFFFE
01FF83FE
03FF01FF
07FE01FF
07FC01FF
0FF800FF
0FF000FF
0FF000FF
1FF000FF
1FE000FF
1FE000FF
3FC001FF
3FC001FF
3FC001FE
7FC001FE
7F8001FE
7F8001FE
7F8003FE
7F8003FC
7F8003FC
7F8003FC
7F8007FC
FF8007F8
FF800FF8
FF800FF0
7F801FF0
7F803FE0
7F803FE0
7FC07FC0
7FF1FFC0
3FFFFF80
3FFFFF00
1FFFFE00
0FFFFC00
07FFF000
03FFE000
007F0000
ENDCHAR
STARTCHAR 0050
ENCODING 80
SWIDTH 495 0
DWIDTH 33 0
BBX 34 42 3 0
BITMAP
0001FF0000
007FFFE000
007FFFF800
007FFFFE00
007FFFFF00
00FFFFFF00
00FFFFFF80
00FF8FFF80
00FF00FFC0
01FF007FC0
01FE007FC0
01FE003FC0
01FE003FC0
03FE003FC0
03FC003FC0
03FC007FC0
03FC007F80
07FC00FF80
07F801FF80
07F803FF00
07F81FFF00
0FFFFFFE00
0FFFFFFC00
0FFFFFF800
0FFFFFE000
1FFFFFC000
1FFFFE0000
1FFFE00000
1FE0000000
1FE0000000
3FE0000000
3FC0000000
3FC0000000
3FC0000000
7FC0000000
7F80000000
7F80000000
7F80000000
FF80000000
FF00000000
FF00000000
FF00000000
ENDCHAR
STARTCHAR 0051
ENCODING 81
SWIDTH 495 0
DWIDTH 33 0
BBX 31 53 5 -11
BITMAP
0001FF00
000FFFC0
001FFFE0
007FFFF0
00FFFFF8
01FFFFF8
03FFFFFC
03FF07FC
07FE03FC
0FFC03FE
0FF803FE
1FF001FE
1FE001FE
1FE001FE
3FE001FE
3FC001FE
3FC001FE
7F8003FE
7F8003FE
7F8003FC
7F8003FC
FF0003FC
FF0003FC
FF0007FC
FF0007F8
FF0007F8
FF0007F8
FF000FF0
FF000FF0
FF001FF0
FF001FE0
FF003FE0
FF007FC0
FF007FC0
FF80FF80
FFE3FF80
7FFFFF00
7FFFFE00
3FFFFC00
1FFFF800
0FFFE000
07FFC000
01FE0000
01F80000
01FC0000
01FE0000
01FF8000
00FFF000
00FFFC00
007FFC00
001FFC00
0007F800
0000F800
ENDCHAR
STARTCHAR 0052
ENCODING 82
SWIDTH 495 0
DWIDTH 33 0
BBX 34 42 2 0
BITMAP
0000FF0000
003FFFF000
003FFFF800
007FFFFE00
007FFFFF00
007FFFFF00
007FFFFF80
00FF83FF80
00FF00FF80
00FF007F80
00FF007FC0
00FF007FC0
01FE007F80
01FE007F80
01FE007F80
01FE007F80
03FC00FF80
03FC01FF00
03FC03FF00
03FC0FFE00
07FFFFFC00
07FFFFF800
07FFFFF000
07FFFFE000
0FFFFF8000
0FFFFF0000
0FFFFF0000
0FF07F8000
1FF07F8000
1FE07FC000
1FE03FC000
1FE03FC000
1FE01FE000
3FC01FE000
3FC01FE000
3FC00FF000
3FC00FF000
7F800FF000
7F8007F800
7F8007F800
7F8007F800
FF0007F800
ENDCHAR
STARTCHAR 0053
ENCODING 83
SWIDTH 495 0
DWIDTH 33 0
BBX 34 43 2 -1
BITMAP
00007FF800
0003FFFF00
000FFFFFC0
001FFFFFC0
003FFFFF80
007FFFFF80
007FFFFF00
00FFC01F00
00FF000200
00FF000000
01FE000000
01FE000000
01FE000000
01FF000000
01FF000000
01FF800000
00FFE00000
00FFF80000
007FFE0000
007FFF8000
003FFFC000
001FFFE000
0007FFF000
0001FFF000
00007FF800
00003FF800
00000FF800
000007FC00
000007FC00
000007FC00
000007FC00
000007F800
000007F800
10000FF800
1E001FF800
3FC07FF000
3FFFFFF000
7FFFFFE000
FFFFFFC000
FFFFFF8000
3FFFFE0000
0FFFF80000
00FF800000
ENDCHAR
STARTCHAR 0054
ENCODING 84
SWIDTH 495 0
DWIDTH 33 0
BBX 31 41 9 0
BITMAP
7FFFFFFE
7FFFFFFE
7FFFFFFE
FFFFFFFC
FFFFFFFC
FFFFFFFC
FFFFFFFC
003FC000
003FC000
003FC000
003FC000
007F8000
007F8000
007F8000
007F8000
00FF8000
00FF0000
00FF0000
00FF0000
01FF0000
01FE0000
01FE0000
01FE0000
03FE0000
03FC0000
03FC0000
03FC0000
07FC0000
07F80000
07F80000
07F80000
0FF80000
0FF00000
0FF00000
0FF00000
0FF00000
1FE00000
1FE00000
1FE00000
1FE00000
3FE00000
ENDCHAR
STARTCHAR 0055
ENCODING 85
SWIDTH 495 0
DWIDTH 33 0
BBX 34 42 4 -1
BITMAP
01FE003FC0
01FE003FC0
01FE003FC0
03FE007FC0
03FC007F80
03FC007F80
03FC007F80
03FC00FF80
07FC00FF00
07F800FF00
07F800FF00
07F801FF00
0FF801FE00
0FF001FE00
0FF001FE00
0FF001FE00
1FF003FE00
1FE003FC00
1FE003FC00
1FE003FC00
3FE007FC00
3FC007F800
3FC007F800
3FC007F800
7FC00FF800
7F800FF000
7F800FF000
7F800FF000
7F801FF000
7F801FE000
FF801FE000
FF803FE000
7F803FC000
7FC07FC000
7FE3FF8000
7FFFFF8000
7FFFFF0000
3FFFFE0000
1FFFFE0000
0FFFF80000
07FFE00000
00FF000000
ENDCHAR
STARTCHAR 0056
ENCODING 86
SWIDTH 495 0
DWIDTH 33 0
BBX 32 41 9 0
BITMAP
FF8001FF
FF0001FE
FF0003FE
FF0003FC
FF0003FC
FF0007FC
FF0007F8
FF000FF8
FF000FF0
FF000FF0
FF001FE0
FF001FE0
FF003FC0
FF003FC0
FF007F80
FF007F80
FF00FF00
FF00FF00
FF01FE00
FF01FE00
7F01FC00
7F03FC00
7F03F800
7F07F800
7F07F000
7F0FF000
7F0FE000
7F1FE000
7F1FC000
7FBFC000
7FBF8000
7FFF8000
7FFF0000
7FFE0000
3FFE0000
3FFC0000
3FFC0000
3FF80000
3FF80000
3FF00000
3FE00000
ENDCHAR
STARTCHAR 0057
ENCODING 87
SWIDTH 495 0
DWIDTH 33 0
BBX 37 41 3 0
BITMAP
01FE0003F8
01FC0003F8
01FC0007F8
03FC0007F8
03FC0007F0
03F80007F0
03F80007F0
03F8000FE0
07F8000FE0
07F0000FE0
07F0000FE0
07F0001FC0
07F0001FC0
0FE0001FC0
0FE0FC1FC0
0FE1FC3F80
0FE1FC3F80
0FC3FC3F80
1FC3FC3F00
1FC7FC3F00
1FC7FC7F00
1F8FFC7F00
1F8FFC7E00
3F9F7C7E00
3F9F7CFE00
3F3E7CFC00
3F3E7CFC00
3F7C7CFC00
7F7C3DFC00
7EF83FF800
7FF83FF800
7FF03FF800
7FF03FF000
7FE03FF000
FFE03FF000
FFC03FE000
FFC03FE000
FF803FE000
FF803FE000
FF003FC000
FE001FC000
ENDCHAR
STARTCHAR 0058
ENCODING 88
SWIDTH 495 0
DWIDTH 33 0
BBX 39 41 1 0
BITMAP
007FC003FE
003FC003FC
003FC007FC
003FE00FF8
001FE00FF0
001FE01FE0
000FF03FE0
000FF03FC0
000FF87F80
0007F8FF00
0007F9FF00
0003FDFE00
0003FFFC00
0003FFF800
0001FFF000
0001FFF000
0000FFE000
0000FFC000
0000FF8000
0000FF8000
0001FF8000
0003FFC000
0007FFC000
000FFFC000
000FFFE000
001FFFE000
003FFFE000
007FCFF000
007F8FF000
00FF8FF000
01FF07F000
03FE07F800
03FE07F800
07FC07F800
0FF807F800
1FF003FC00
1FF003FC00
3FE003FC00
7FC003FC00
FFC003FC00
FF8003FE00
ENDCHAR
STARTCHAR 0059
ENCODING 89
SWIDTH 495 0
DWIDTH 33 0
BBX 31 41 10 0
BITMAP
FF0003FE
FF0007FC
FF0007FC
FF000FF8
FF000FF0
FF001FF0
7F003FE0
7F803FC0
7F807FC0
7F807F80
7F80FF00
7F81FF00
3F81FE00
3FC3FC00
3FC7FC00
3FC7F800
1FCFF000
1FFFE000
1FFFE000
1FFFC000
0FFF8000
0FFF0000
0FFF0000
07FE0000
07FC0000
07F80000
07F80000
07F80000
0FF80000
0FF00000
0FF00000
0FF00000
1FF00000
1FE00000
1FE00000
1FE00000
3FE00000
3FC00000
3FC00000
3FC00000
3FC00000
ENDCHAR
STARTCHAR 005A
ENCODING 90
SWIDTH 495 0
DWIDTH 33 0
BBX 36 41 2 0
BITMAP
003FFFFFF0
003FFFFFF0
003FFFFFE0
007FFFFFE0
007FFFFFE0
007FFFFFE0
0000007FC0
000000FF80
000001FF80
000001FF00
000003FE00
000007FC00
00000FF800
00001FF000
00003FE000
00007FC000
00007FC000
0000FF8000
0001FF0000
0003FE0000
0007FC0000
000FF80000
001FF00000
001FF00000
003FE00000
007FC00000
00FF800000
01FF000000
01FE000000
03FE000000
07FC000000
0FF8000000
1FF0000000
1FE0000000
3FFFFFF800
7FFFFFF000
7FFFFFF000
7FFFFFF000
FFFFFFF000
FFFFFFE000
FFFFFFE000
ENDCHAR
STARTCHAR 005B
ENCODING 91
SWIDTH 495 0
DWIDTH 33 0
BBX 32 58 6 -11
BITMAP
0003FFFF
0003FFFF
0007FFFF
0007FFFF
0007FFFE
0007FFFE
000FFFFE
000FF000
000FF000
000FF000
001FE000
001FE000
001FE000
001FE000
003FC000
003FC000
003FC000
003FC000
007F8000
007F8000
007F8000
007F8000
00FF0000
00FF0000
00FF0000
00FF0000
00FE0000
01FE0000
01FE0000
01FE0000
01FC0000
03FC0000
03FC0000
03FC0000
03F80000
07F80000
07F80000
07F80000
07F80000
0FF00000
0FF00000
0FF00000
0FF00000
1FE00000
1FE00000
1FE00000
1FE00000
3FC00000
3FC00000
3FC00000
3FC00000
7F800000
7FFFF000
7FFFF000
7FFFE000
7FFFE000
FFFFE000
FFFFE000
ENDCHAR
STARTCHAR 005C
ENCODING 92
SWIDTH 495 0
DWIDTH 33 0
BBX 13 58 14 -11
BITMAP
FF00
FF00
FF00
FF00
FF00
FF00
FF00
FF00
FF00
7F00
7F00
7F80
7F80
7F80
7F80
7F80
7F80
7F80
7F80
7F80
3F80
3FC0
3FC0
3FC0
3FC0
3FC0
3FC0
3FC0
3FC0
3FC0
3FC0
1FC0
1FE0
1FE0
1FE0
1FE0
1FE0
1FE0
1FE0
1FE0
1FE0
1FE0
0FE0
0FF0
0FF0
0FF0
0FF0
0FF0
0FF0
0FF0
0FF0
0FF0
0FF0
07F8
07F8
07F8
07F8
07F8
ENDCHAR
STARTCHAR 005D
ENCODING 93
SWIDTH 495 0
DWIDTH 33 0
BBX 32 58 1 -11
BITMAP
0003FFFF
0003FFFF
0007FFFF
0007FFFF
0007FFFE
0007FFFE
000FFFFE
000001FE
000001FC
000003FC
000003FC
000003FC
000003FC
000007F8
000007F8
000007F8
000007F8
00000FF0
00000FF0
00000FF0
00000FF0
00001FE0
00001FE0
00001FE0
00001FE0
00003FC0
00003FC0
00003FC0
00003FC0
00003F80
00007F80
00007F80
00007F80
00007F00
0000FF00
0000FF00
0000FF00
0000FE00
0001FE00
0001FE00
0001FE00
0001FE00
0003FC00
0003FC00
0003FC00
0003FC00
0007F800
0007F800
0007F800
0007F800
000FF000
000FF000
7FFFF000
7FFFF000
7FFFE000
7FFFE000
FFFFE000
FFFFE000
ENDCHAR
STARTCHAR 005E
ENCODING 94
SWIDTH 495 0
DWIDTH 33 0
BBX 31 24 5 17
BITMAP
0000FF00
0001FF00
0001FF80
0003FF80
0007FF80
000FFFC0
001FFFC0
003FFFC0
003FFFE0
007FDFE0
00FF9FE0
01FF1FF0
03FE0FF0
07FE0FF0
07FC0FF8
0FF807F8
1FF007F8
3FE007FC
7FC003FC
FFC003FC
7F8003FE
1F0001F8
060001C0
00000100
ENDCHAR
STARTCHAR 005F
ENCODING 95
SWIDTH 495 0
DWIDTH 33 0
BBX 31 7 -2 -11
BITMAP
7FFFFFFE
7FFFFFFE
7FFFFFFE
7FFFFFFC
FFFFFFFC
FFFFFFFC
FFFFFFFC
ENDCHAR
STARTCHAR 0060
ENCODING 96
SWIDTH 495 0
DWIDTH 33 0
BBX 14 12 16 34
BITMAP
0800
1C00
3E00
3F80
7FC0
FFE0
FFF8
3FFC
0FFC
03F8
00F8
0030
ENDCHAR
STARTCHAR 0061
ENCODING 97
SWIDTH 495 0
DWIDTH 33 0
BBX 31 33 4 -1
BITMAP
0001FF80
000FFFF8
003FFFFE
007FFFFE
01FFFFFC
03FFFFFC
07FFFFFC
0FFE03FC
0FFC07F8
1FF007F8
1FE007F8
3FE007F8
3FC00FF8
7FC00FF0
7F800FF0
7F800FF0
7F801FF0
FF801FE0
FF001FE0
FF001FE0
FF003FE0
FF003FC0
FF803FC0
FF803FC0
7FC0FFC0
7FE1FFC0
7FFFFFC0
3FFFFFE0
3FFFFFE0
1FFFFFE0
0FFFCFE0
07FF0FE0
00F80800
ENDCHAR
STARTCHAR 0062
ENCODING 98
SWIDTH 495 0
DWIDTH 33 0
BBX 30 47 3 -1
BITMAP
0003E000
003FC000
003FC000
003FC000
007FC000
007F8000
007F8000
007F8000
00FF8000
00FF0000
00FF0000
00FF0000
01FF0000
01FE0000
01FE3F00
01FFFFC0
03FFFFE0
03FFFFF0
03FFFFF8
03FFFFF8
03FFFFFC
07FE0FFC
07F807FC
07F803FC
07F803FC
0FF803FC
0FF003FC
0FF003FC
0FF003FC
1FF003FC
1FE003FC
1FE003FC
1FE007FC
3FE007F8
3FC007F8
3FC00FF8
3FC01FF0
7FC03FF0
7F807FE0
7F81FFE0
7FFFFFC0
FFFFFF80
FFFFFF00
FFFFFC00
FFFFF800
3FFFE000
01FE0000
ENDCHAR
STARTCHAR 0063
ENCODING 99
SWIDTH 495 0
DWIDTH 33 0
BBX 30 33 5 -1
BITMAP
0000FFE0
000FFFFC
003FFFFC
007FFFFC
01FFFFF8
03FFFFF8
07FFFFF0
0FFF8070
1FFE0000
1FF80000
3FF00000
3FE00000
7FC00000
7FC00000
7F800000
7F800000
FF800000
FF800000
FF000000
FF000000
FF000000
FF800000
FF800000
FFC00000
7FE00180
7FFF3F80
3FFFFF80
3FFFFF80
1FFFFF80
0FFFFF80
07FFFF80
01FFFE00
001FE000
ENDCHAR
STARTCHAR 0064
ENCODING 100
SWIDTH 495 0
DWIDTH 33 0
BBX 35 47 4 -1
BITMAP
00000003E0
0000003FE0
0000003FC0
0000003FC0
0000003FC0
0000007FC0
0000007F80
0000007F80
0000007F80
000000FF80
000000FF00
000000FF00
000000FF00
000001FF00
00007FFE00
0007FFFE00
003FFFFE00
007FFFFE00
01FFFFFC00
03FFFFFC00
07FFFFFC00
0FFE03FC00
0FFC07F800
1FF007F800
1FE007F800
3FE007F800
3FC00FF800
7FC00FF000
7F800FF000
7F800FF000
7F801FF000
FF801FE000
FF001FE000
FF001FE000
FF003FE000
FF003FC000
FF803FC000
FF803FC000
7FC0FFC000
7FE1FFC000
7FFFFFC000
3FFFFFE000
3FFFFFE000
1FFFFFE000
0FFFCFE000
07FF0FE000
00F8080000
ENDCHAR
STARTCHAR 0065
ENCODING 101
SWIDTH 495 0
DWIDTH 33 0
BBX 30 33 5 -1
BITMAP
0003FF00
001FFFC0
007FFFE0
00FFFFF0
01FFFFF8
03FFFFF8
07FF9FFC
0FF807FC
1FF003FC
1FE003FC
3FC003FC
3FC007F8
7F800FF8
7F801FF8
7F00FFF0
FFFFFFE0
FFFFFFC0
FFFFFF80
FFFFFE00
FFFFF000
FFFC0000
FF000000
FF000000
FF800000
7FC00080
7FF00780
7FFFFF80
3FFFFF80
1FFFFF80
0FFFFF80
07FFFF80
01FFFE00
003FC000
ENDCHAR
STARTCHAR 0066
ENCODING 102
SWIDTH 495 0
DWIDTH 33 0
BBX 41 57 -2 -11
BITMAP
0000000FFE00
0000003FFF80
000000FFFF80
000001FFFF00
000003FFFF00
000007FFFF00
000007FFFE00
00000FFC0600
00000FF80000
00001FF00000
00001FE00000
00001FE00000
00001FE00000
00003FE00000
00003FC00000
000FFFFFFC00
001FFFFFF800
001FFFFFF800
001FFFFFF800
001FFFFFF800
003FFFFFF000
00007F800000
00007F800000
0000FF800000
0000FF000000
0000FF000000
0000FF000000
0000FF000000
0001FF000000
0001FE000000
0001FE000000
0001FE000000
0001FE000000
0003FE000000
0003FC000000
0003FC000000
0003FC000000
0003FC000000
0007FC000000
0007FC000000
0007F8000000
0007F8000000
0007F8000000
000FF8000000
000FF0000000
000FF0000000
001FF0000000
001FF0000000
003FE0000000
31FFE0000000
7FFFC0000000
7FFFC0000000
7FFF80000000
FFFF00000000
FFFE00000000
FFF800000000
7FE000000000
ENDCHAR
STARTCHAR 0067
ENCODING 103
SWIDTH 495 0
DWIDTH 33 0
BBX 35 43 0 -11
BITMAP
00000FFE00
00007FFFC0
0001FFFFE0
0007FFFFE0
000FFFFFE0
003FFFFFE0
007FFFFFC0
007FE03FC0
00FFC03FC0
01FF003FC0
01FF007F80
03FE007F80
03FC007F80
03FC007F80
07FC00FF80
07F800FF00
07F800FF00
07F800FF00
07F801FF00
07F801FE00
07F801FE00
07FC01FE00
07FE07FE00
03FFFFFC00
03FFFFFC00
03FFFFFC00
01FFFFFC00
00FFFFF800
007FFFF800
000FC7F800
00000FF800
00000FF000
00000FF000
00001FF000
10003FE000
3E00FFE000
3FFFFFC000
7FFFFF8000
7FFFFF8000
7FFFFE0000
FFFFFC0000
3FFFF00000
07FF800000
ENDCHAR
STARTCHAR 0068
ENCODING 104
SWIDTH 495 0
DWIDTH 33 0
BBX 30 46 3 0
BITMAP
0003E000
001FE000
003FE000
003FC000
003FC000
003FC000
007FC000
007F8000
007F8000
007F8000
00FF8000
00FF0000
00FF0000
00FF0000
01FF7F00
01FFFFE0
01FFFFF0
01FFFFF8
01FFFFF8
03FFFFFC
03FFFFFC
03FE0FFC
03FC07FC
07FC03FC
07F803FC
07F803FC
07F803FC
0FF807FC
0FF007F8
0FF007F8
0FF007F8
1FF00FF8
1FE00FF0
1FE00FF0
1FE00FF0
3FE00FF0
3FC01FF0
3FC01FE0
3FC01FE0
7FC01FE0
7F803FE0
7F803FC0
7F803FC0
7F803FC0
FF807FC0
FF007F80
ENDCHAR
STARTCHAR 0069
ENCODING 105
SWIDTH 495 0
DWIDTH 33 0
BBX 23 47 8 -1
BITMAP
000300
000FC0
001FE0
003FF0
003FF0
007FF0
007FF0
003FE0
003FE0
003FC0
000F00
000000
000000
000000
000000
7FFFC0
7FFFC0
FFFF80
FFFF80
FFFF80
FFFF80
00FF00
00FF00
00FF00
01FF00
01FE00
01FE00
01FE00
03FE00
03FC00
03FC00
03FC00
07FC00
07F800
07F800
07F800
07F800
07F800
07FC00
07FF7C
07FFFE
07FFFE
03FFFE
03FFFE
01FFFE
00FFFC
001F80
ENDCHAR
STARTCHAR 006A
ENCODING 106
SWIDTH 495 0
DWIDTH 33 0
BBX 32 57 0 -11
BITMAP
00000010
000000FE
000001FE
000003FF
000003FF
000003FF
000003FF
000003FE
000003FE
000001FC
000000F0
00000000
00000000
00000000
00000000
001FFFFE
003FFFFE
003FFFFE
003FFFFE
003FFFFC
007FFFFC
000003FC
000007FC
000007F8
000007F8
000007F8
000007F8
00000FF8
00000FF0
00000FF0
00000FF0
00001FF0
00001FE0
00001FE0
00001FE0
00003FE0
00003FC0
00003FC0
00003FC0
00007FC0
00007F80
00007F80
00007F80
0000FF80
0000FF00
0000FF00
0000FF00
0001FF00
3003FE00
3C07FE00
7FFFFC00
7FFFFC00
FFFFF800
FFFFF000
FFFFE000
7FFFC000
0FFF0000
ENDCHAR
STARTCHAR 006B
ENCODING 107
SWIDTH 495 0
DWIDTH 33 0
BBX 33 46 4 0
BITMAP
0003E00000
003FE00000
003FC00000
003FC00000
003FC00000
007FC00000
007F800000
007F800000
007F800000
00FF800000
00FF000000
00FF000000
00FF000000
01FF000000
01FE000000
01FE00FF80
01FE01FF00
03FE03FE00
03FC07FC00
03FC0FF800
03FC1FF000
07FC3FE000
07F87FC000
07F8FF8000
07F9FF0000
07FBFE0000
0FFFFC0000
0FFFF80000
0FFFF00000
0FFFE00000
1FFFF00000
1FEFF80000
1FE7F80000
1FE7FC0000
3FE3FC0000
3FC3FE0000
3FC1FF0000
3FC1FF0000
7FC0FF8000
7F80FF8000
7F807FC000
7F807FC000
FF803FC000
FF003FE000
FF003FE000
FF001FF000
ENDCHAR
STARTCHAR 006C
ENCODING 108
SWIDTH 495 0
DWIDTH 33 0
BBX 20 47 10 -1
BITMAP
7FFFC0
7FFFC0
7FFFC0
FFFF80
FFFF80
FFFF80
FFFF80
00FF00
00FF00
00FF00
01FF00
01FE00
01FE00
01FE00
01FE00
03FE00
03FC00
03FC00
03FC00
07FC00
07F800
07F800
07F800
0FF800
0FF000
0FF000
0FF000
1FF000
1FE000
1FE000
1FE000
3FE000
3FE000
3FC000
3FC000
3FC000
7FC000
7FC000
7FC010
3FF9F0
3FFFF0
3FFFF0
3FFFF0
1FFFF0
0FFFF0
07FFC0
00FC00
ENDCHAR
STARTCHAR 006D
ENCODING 109
SWIDTH 495 0
DWIDTH 33 0
BBX 33 32 2 0
BITMAP
0007803000
00FFF1FE00
03FFFFFF00
03FFFFFF80
03FFFFFF80
03FFFFFF80
03F9FF3F80
07F0FC3F80
07F0FC1F80
07E0FC3F80
07E1FC3F80
0FE1FC3F80
0FE1F83F00
0FE1F87F00
0FC3F87F00
1FC3F87F00
1FC3F87E00
1FC3F0FE00
1F83F0FE00
3F87F0FE00
3F8000FC00
3F8000FC00
3F0001FC00
7F0001FC00
7F0001FC00
7F0001F800
7E0003F800
FE0003F800
FE0003F800
FE0003F000
FC0007F000
FC0007F000
ENDCHAR
STARTCHAR 006E
ENCODING 110
SWIDTH 495 0
DWIDTH 33 0
BBX 30 32 3 0
BITMAP
0003FF00
007FFFE0
01FFFFF0
01FFFFF8
01FFFFF8
03FFFFFC
03FFFFFC
03FE0FFC
03FC07FC
07FC03FC
07F803FC
07F803FC
07F803FC
0FF807FC
0FF007F8
0FF007F8
0FF007F8
1FF00FF8
1FE00FF0
1FE00FF0
1FE00FF0
3FE01FF0
3FC01FE0
3FC01FE0
3FC01FE0
7FC01FE0
7F803FC0
7F803FC0
7F803FC0
7F803FC0
FF807FC0
FF007F80
ENDCHAR
STARTCHAR 006F
ENCODING 111
SWIDTH 495 0
DWIDTH 33 0
BBX 30 33 4 -1
BITMAP
0003FE00
001FFF80
007FFFC0
00FFFFE0
01FFFFF0
03FFFFF8
07FFFFF8
0FFC1FF8
0FF80FF8
1FF007FC
1FE007FC
3FE007FC
3FC007FC
7FC007FC
7F8007FC
7F8007F8
7F8007F8
7F8007F8
FF8007F8
FF800FF8
FF800FF0
FF801FF0
FF801FE0
FF803FE0
7FC07FC0
7FF1FFC0
7FFFFF80
3FFFFF00
3FFFFE00
1FFFFC00
0FFFF000
07FFC000
00FE0000
ENDCHAR
STARTCHAR 0070
ENCODING 112
SWIDTH 495 0
DWIDTH 33 0
BBX 34 43 0 -11
BITMAP
0000FFC000
001FFFF800
003FFFFC00
007FFFFE00
007FFFFF00
007FFFFF00
007FFFFF80
00FF80FF80
00FF007F80
00FF007FC0
00FF003FC0
01FF003FC0
01FE003FC0
01FE003FC0
01FE007FC0
03FE007F80
03FE007F80
03FC007F80
03FC00FF80
03FC00FF00
07FC01FF00
07F801FF00
07F803FE00
07F80FFE00
0FF81FFC00
0FF9FFF800
0FFFFFF800
0FFFFFF000
1FFFFFE000
1FFFFF8000
1FFFFF0000
1FFFF80000
3FFF000000
3FC0000000
3FC0000000
3FC0000000
7FC0000000
7F80000000
7F80000000
7F80000000
FF80000000
FF00000000
FF00000000
ENDCHAR
STARTCHAR 0071
ENCODING 113
SWIDTH 495 0
DWIDTH 33 0
BBX 30 43 5 -11
BITMAP
0001FF80
000FFFF8
003FFFFC
00FFFFFC
01FFFFFC
03FFFFFC
07FFFFFC
0FFE07F8
1FF807F8
1FF007F8
3FE00FF8
3FC00FF0
7FC00FF0
7F800FF0
7F801FF0
FF801FE0
FF001FE0
FF001FE0
FF003FE0
FF003FC0
FF003FC0
FF003FC0
FF007FC0
FF007F80
FF80FF80
FFE3FF80
7FFFFF80
7FFFFF00
3FFFFF00
3FFFFF00
1FFFFF00
07FFFF00
00C1FE00
0001FE00
0001FE00
0003FE00
0003FC00
0003FC00
0003FC00
0007FC00
0007F800
0007F800
0007F800
ENDCHAR
STARTCHAR 0072
ENCODING 114
SWIDTH 495 0
DWIDTH 33 0
BBX 31 32 5 0
BITMAP
0001FFE0
003FFFFE
01FFFFFC
03FFFFFC
03FFFFF8
03FFFFF8
03FFFFF8
07FFFFF0
07FC0010
07F80000
07F80000
0FF80000
0FF00000
0FF00000
0FF00000
0FF00000
1FF00000
1FE00000
1FE00000
1FE00000
3FE00000
3FC00000
3FC00000
3FC00000
7FC00000
7F800000
7F800000
7F800000
FF800000
FF000000
FF000000
FF000000
ENDCHAR
STARTCHAR 0073
ENCODING 115
SWIDTH 495 0
DWIDTH 33 0
BBX 30 33 3 -1
BITMAP
0003FFC0
000FFFFC
003FFFFC
007FFFFC
00FFFFF8
01FFFFF8
01FFFFF8
01FF0070
03FE0000
03FC0000
03FE0000
03FE0000
03FF8000
01FFF000
01FFFC00
00FFFF00
007FFF80
003FFFC0
000FFFC0
0001FFE0
00007FE0
00003FE0
00001FE0
00001FE0
1C003FE0
3F80FFE0
3FFFFFC0
7FFFFFC0
7FFFFF80
FFFFFF00
7FFFFE00
0FFFF800
00FF8000
ENDCHAR
STARTCHAR 0074
ENCODING 116
SWIDTH 495 0
DWIDTH 33 0
BBX 27 42 8 -1
BITMAP
00004000
001F8000
007F8000
007F8000
00FF8000
00FF0000
00FF0000
00FF0000
01FF0000
01FE0000
7FFFFFE0
7FFFFFE0
FFFFFFE0
FFFFFFC0
FFFFFFC0
FFFFFFC0
03FC0000
07FC0000
07F80000
07F80000
07F80000
0FF80000
0FF00000
0FF00000
0FF00000
1FF00000
1FE00000
1FE00000
1FE00000
3FE00000
3FE00000
3FE00000
3FE00000
3FE00400
3FFCFC00
3FFFFC00
1FFFFC00
1FFFFC00
0FFFFC00
07FFFC00
03FFF800
007E0000
ENDCHAR
STARTCHAR 0075
ENCODING 117
SWIDTH 495 0
DWIDTH 33 0
BBX 30 32 5 -1
BITMAP
07F803FC
0FF807FC
0FF007F8
0FF007F8
0FF007F8
1FF00FF8
1FE00FF0
1FE00FF0
1FE00FF0
3FE01FF0
3FC01FE0
3FC01FE0
3FC01FE0
7FC03FE0
7F803FC0
7F803FC0
7F803FC0
FF803FC0
FF807F80
FF007F80
FF007F80
FF007F80
FF00FF80
FF81FF80
FFEFFF80
FFFFFF80
7FFFFF80
7FFFFFC0
3FFFFFC0
3FFFBFC0
0FFE1F80
01F00000
ENDCHAR
STARTCHAR 0076
ENCODING 118
SWIDTH 495 0
DWIDTH 33 0
BBX 30 31 7 0
BITMAP
FF8007FC
FF8007F8
FF800FF8
FF800FF0
FF801FF0
FF801FF0
7F801FE0
7F803FE0
7F803FC0
7F807FC0
7F807F80
7F80FF80
7F80FF00
7F81FF00
7FC1FE00
3FC3FC00
3FC3FC00
3FC7F800
3FCFF800
3FCFF000
3FDFF000
1FFFE000
1FFFC000
1FFFC000
1FFF8000
1FFF0000
0FFF0000
0FFE0000
0FFC0000
0FF80000
0FF00000
ENDCHAR
STARTCHAR 0077
ENCODING 119
SWIDTH 495 0
DWIDTH 33 0
BBX 34 31 4 0
BITMAP
1FC0001FC0
3FC0001FC0
3F80001FC0
3F80003F80
3F80003F80
3F80003F80
3F83F03F00
3F03F07F00
3F07F07F00
7F07F07E00
7F0FF07E00
7F0FF0FE00
7F0FF0FC00
7E1FF0FC00
7E1FF1FC00
7E3FF1F800
7E7FF1F800
7E7CF3F000
7EFCFBF000
7CF8FBF000
7DF8FFE000
7DF0FFE000
FFF0FFE000
FFE0FFC000
FFE0FFC000
FFC0FF8000
FF80FF8000
FF80FF0000
FF00FF0000
FF00FE0000
FE00FE0000
ENDCHAR
STARTCHAR 0078
ENCODING 120
SWIDTH 495 0
DWIDTH 33 0
BBX 35 31 1 0
BITMAP
01FE003FE0
01FF003FC0
00FF007FC0
00FF80FF80
007F80FF00
007FC1FE00
003FC3FE00
003FC7FC00
001FEFF800
001FEFF000
000FFFE000
000FFFC000
0007FFC000
0007FF8000
0003FF0000
0007FE0000
0007FF0000
000FFF0000
001FFF8000
003FFF8000
007FFFC000
00FFBFC000
01FF3FE000
03FE1FE000
07FC1FF000
07F80FF000
0FF80FF800
1FF00FF800
3FE007F800
7FC007FC00
FF8003FC00
ENDCHAR
STARTCHAR 0079
ENCODING 121
SWIDTH 495 0
DWIDTH 33 0
BBX 39 42 -3 -11
BITMAP
001FE001FE
001FE003FE
001FE003FE
001FE003FC
001FE007FC
001FE007F8
001FE007F8
001FE00FF8
001FF00FF0
001FF01FF0
001FF01FE0
000FF01FE0
000FF03FC0
000FF03FC0
000FF07F80
000FF07F80
000FF0FF00
000FF0FF00
0007F9FE00
0007F9FE00
0007FBFC00
0007FFFC00
0007FFF800
0003FFF000
0003FFF000
0003FFE000
0003FFC000
0003FFC000
0001FF8000
0001FF0000
0001FF0000
0003FE0000
0007FC0000
000FF80000
001FF80000
3FFFF00000
3FFFE00000
7FFFC00000
7FFF000000
7FFE000000
FFF8000000
3FE0000000
ENDCHAR
STARTCHAR 007A
ENCODING 122
SWIDTH 495 0
DWIDTH 33 0
BBX 32 31 3 0
BITMAP
00FFFFFF
00FFFFFF
00FFFFFF
01FFFFFE
01FFFFFE
01FFFFFE
00000FFC
00001FF8
00003FF0
00007FE0
0000FFC0
0001FF80
0003FF00
0007FE00
000FFC00
001FF000
003FE000
007FC000
00FF8000
01FF0000
03FE0000
07FE0000
0FFC0000
1FF80000
1FFFFFE0
3FFFFFE0
7FFFFFC0
7FFFFFC0
7FFFFFC0
7FFFFFC0
FFFFFF80
ENDCHAR
STARTCHAR 007B
ENCODING 123
SWIDTH 495 0
DWIDTH 33 0
BBX 32 58 7 -11
BITMAP
000001FF
00003FFE
00007FFE
0001FFFE
0001FFFE
0003FFFC
0003FFFC
0007FC00
0007F800
0007F000
000FF000
000FF000
000FE000
000FE000
001FE000
001FE000
001FC000
001FC000
003FC000
003FC000
003FC000
003F8000
007F8000
007F0000
00FF0000
01FE0000
7FFE0000
7FFC0000
7FF00000
FFC00000
FFE00000
FFF00000
1FF80000
07F80000
03F80000
03F80000
03F80000
03F80000
03F80000
07F80000
07F80000
07F00000
07F00000
0FF00000
0FF00000
0FF00000
0FE00000
0FE00000
1FE00000
1FE00000
1FE00000
1FF80000
1FFFF000
0FFFF000
0FFFE000
07FFE000
03FFE000
00FFE000
ENDCHAR
STARTCHAR 007C
ENCODING 124
SWIDTH 495 0
DWIDTH 33 0
BBX 22 58 8 -11
BITMAP
0003FC
0003FC
0003FC
0007FC
0007F8
0007F8
0007F8
000FF8
000FF0
000FF0
000FF0
000FF0
001FF0
001FE0
001FE0
001FE0
003FE0
003FC0
003FC0
003FC0
007FC0
007F80
007F80
007F80
00FF80
00FF00
00FF00
00FF00
01FF00
01FE00
01FE00
01FE00
03FE00
03FC00
03FC00
03FC00
07FC00
07FC00
07F800
07F800
07F800
0FF800
0FF000
0FF000
0FF000
1FF000
1FE000
1FE000
1FE000
3FE000
3FC000
3FC000
3FC000
7FC000
7F8000
7F8000
7F8000
FF8000
ENDCHAR
STARTCHAR 007D
ENCODING 125
SWIDTH 495 0
DWIDTH 33 0
BBX 32 58 0 -11
BITMAP
0007F000
0007FF80
0007FFC0
0007FFE0
000FFFF0
000FFFF0
000FFFF0
00000FF8
000007F8
000007F0
000007F0
000007F0
00000FF0
00000FF0
00000FE0
00000FE0
00001FE0
00001FE0
00001FE0
00001FC0
00001FC0
00001FC0
00003FC0
00003FC0
00001FC0
00001FE0
00001FFF
00000FFF
000007FF
000007FE
00001FFE
00007FFE
00007FE0
0000FF00
0001FE00
0001FE00
0001FC00
0003FC00
0003FC00
0003F800
0003F800
0007F800
0007F800
0007F800
0007F000
0007F000
000FF000
000FF000
000FE000
001FE000
003FE000
00FFC000
3FFFC000
7FFF8000
7FFF8000
7FFF0000
7FFC0000
FFF00000
ENDCHAR
STARTCHAR 007E
ENCODING 126
SWIDTH 495 0
DWIDTH 33 0
BBX 32 12 3 11
BITMAP
007C0000
01FF003C
07FF803F
0FFFE07F
0FFFF8FE
1FFFFFFE
3FFFFFFC
3FFFFFFC
7F0FFFF8
7E03FFF0
FE00FFE0
1C007F80
ENDCHAR
STARTCHAR 00A0
ENCODING 160
SWIDTH 495 0
DWIDTH 33 0
BBX 0 0 0 0
BITMAP
ENDCHAR
STARTCHAR 00A1
ENCODING 161
SWIDTH 495 0
DWIDTH 33 0
BBX 18 42 9 -11
BITMAP
003F00
007F80
00FFC0
00FFC0
01FFC0
01FFC0
01FFC0
01FFC0
00FF80
007F00
003C00
000000
000000
000000
000000
01FC00
01FC00
03FC00
03FC00
03FC00
07F800
07F800
0FF800
0FF800
0FF800
1FF800
1FF000
1FF000
1FF000
3FF000
3FF000
3FE000
3FE000
7FE000
7FE000
7FC000
7FC000
FFC000
FFC000
FF8000
FF8000
FF8000
ENDCHAR
STARTCHAR 00A2
ENCODING 162
SWIDTH 495 0
DWIDTH 33 0
BBX 30 47 6 -6
BITMAP
00003FC0
00003FC0
00007FC0
00007F80
00007F80
00007F80
0000FF80
0000FF00
0001FF00
001FFFF0
007FFFFC
01FFFFF8
03FFFFF8
07FFFFF0
0FFFFFF0
1FFF81E0
1FFC0020
3FF00000
3FE00000
7FC00000
7F800000
FF800000
FF800000
FF000000
FF000000
FF000000
FF000000
FF000000
FF800000
FF800000
FFC00000
7FF00700
7FFFFF00
7FFFFF80
3FFFFF80
1FFFFF80
0FFFFF80
03FFFF00
007FF000
00FF8000
00FF0000
00FF0000
00FF0000
00FF0000
01FF0000
01FE0000
01FE0000
ENDCHAR
STARTCHAR 00A3
ENCODING 163
SWIDTH 495 0
DWIDTH 33 0
BBX 33 42 5 0
BITMAP
00000FFC00
00007FFF80
0000FFFF80
0003FFFF80
0007FFFF00
000FFFFF00
000FFFFE00
001FF80600
003FF00000
003FE00000
003FC00000
007FC00000
007F800000
007F800000
007F800000
00FF000000
00FF000000
00FF000000
00FF000000
3FFFFFC000
3FFFFFC000
3FFFFFC000
7FFFFF8000
7FFFFF8000
7FFFFF8000
7FFFFF8000
03FC000000
07FC000000
07F8000000
07F8000000
0FF8000000
0FF0000000
0FF0000000
1FE0000000
1FE0000000
1FFFFFE000
3FFFFFE000
3FFFFFE000
3FFFFFC000
7FFFFFC000
7FFFFFC000
FFFFFFC000
ENDCHAR
STARTCHAR 00A4
ENCODING 164
SWIDTH 495 0
DWIDTH 33 0
BBX 31 30 5 6
BITMAP
04000040
0E0000E0
1F0001F0
3F8103F8
7FFFFFFC
FFFFFFFE
7FFFFFFC
3FFFFFF8
1FFFFFF0
0FFFFFE0
0FF83FE0
1FF01FE0
1FE00FE0
1FC00FF0
1FC00FF0
1FC00FF0
1FC00FF0
1FE00FE0
1FE01FE0
0FF01FE0
0FFEFFE0
1FFFFFE0
3FFFFFF0
7FFFFFF8
FFFFFFFC
7FFFFFFC
3F9FE7F8
1F0003F0
0E0000E0
04000040
ENDCHAR
STARTCHAR 00A5
ENCODING 165
SWIDTH 495 0
DWIDTH 33 0
BBX 37 41 4 0
BITMAP
07F8000FF8
07F8001FF0
07FC001FF0
03FC003FE0
03FC003FC0
03FC007FC0
03FE00FF80
01FE00FF00
01FE01FE00
01FE03FE00
00FF03FC00
00FF07F800
00FF0FF800
007F9FF000
007F9FE000
007FBFC000
003FFF8000
003FFF8000
001FFF0000
0FFFFFFC00
1FFFFFF800
1FFFFFF800
1FFFFFF800
1FFFFFF800
001FF00000
001FF00000
001FE00000
003FE00000
003FE00000
7FFFFFE000
7FFFFFE000
7FFFFFE000
7FFFFFE000
FFFFFFC000
007F800000
00FF800000
00FF800000
00FF800000
00FF000000
01FF000000
01FF000000
ENDCHAR
STARTCHAR 00A6
ENCODING 166
SWIDTH 495 0
DWIDTH 33 0
BBX 22 58 9 -11
BITMAP
0007FC
0007F8
0007F8
0007F8
0007F8
000FF8
000FF0
000FF0
000FF0
001FF0
001FE0
001FE0
001FE0
003FE0
003FC0
003FC0
003FC0
007FC0
007F80
007F80
007F80
00FF80
00FF00
00FF00
000000
000000
000000
000000
000000
000000
000000
000000
000000
000000
07FC00
07F800
07F800
07F800
0FF800
0FF000
0FF000
0FF000
1FF000
1FE000
1FE000
1FE000
3FE000
3FC000
3FC000
3FC000
7FC000
7FC000
7F8000
7F8000
7F8000
FF8000
FF0000
FF0000
ENDCHAR
STARTCHAR 00A7
ENCODING 167
SWIDTH 495 0
DWIDTH 33 0
BBX 32 48 3 -6
BITMAP
00007FF8
0001FFFF
0007FFFF
000FFFFF
001FFFFF
003FFFFE
003FF07E
007FC004
007F8000
007F8000
007F8000
003FC000
003FF000
003FFC00
001FFF00
007FFF80
00FFFFE0
01FFFFF0
03FC7FF8
07F81FF8
07F007F8
0FE003F8
0FE003FC
0FE003F8
0FE003F8
0FF003F8
0FF007F8
0FF80FF0
0FFE1FE0
07FFBFC0
03FFFF80
01FFFF00
007FFE00
001FFE00
000FFE00
0003FF00
0000FF00
0000FF00
0000FF00
0000FF00
2001FF00
7807FE00
7FFFFE00
FFFFFC00
FFFFF800
FFFFF000
FFFFE000
1FFF0000
ENDCHAR
STARTCHAR 00A8
ENCODING 168
SWIDTH 495 0
DWIDTH 33 0
BBX 22 9 14 36
BITMAP
1C00F0
7F01F8
7F03FC
FF87FC
FF87FC
FF87FC
FF07F8
FE03F8
3C01E0
ENDCHAR
STARTCHAR 00A9
ENCODING 169
SWIDTH 495 0
DWIDTH 33 0
BBX 30 33 4 -1
BITMAP
00078000
007FF800
01FFFE00
03FFFF80
07FFFFC0
0FE01FE0
1F8007E0
3F0003F0
3E07E1F8
7C1FF0F8
7C3FF0F8
787FE07C
787C207C
F8F8007C
F8F0003C
F8F0003C
F8F0003C
F8F0003C
F8F0003C
F8F8007C
787C007C
787FE07C
7C3FF0F8
7C1FF0F8
3E0FE1F8
3F0003F0
1F8007F0
0FE00FE0
07FCFFC0
03FFFF80
01FFFE00
007FFC00
000FC000
ENDCHAR
STARTCHAR 00AA
ENCODING 170
SWIDTH 495 0
DWIDTH 33 0
BBX 23 24 11 18
BITMAP
003FF8
00FFFE
03FFFE
07FFFE
0FFFFC
1FFFFC
3FE1FC
7F81FC
7F01F8
7E01F8
FE03F8
FC03F8
FC03F0
FC03F0
FC07F0
FC07F0
FE07F0
FF0FF0
7FFFF0
7FFFF0
3FFFF0
3FFFF0
0FF9F8
03E100
ENDCHAR
STARTCHAR 00AB
ENCODING 171
SWIDTH 495 0
DWIDTH 33 0
BBX 29 28 6 3
BITMAP
00100000
003800E0
007E01F0
007E03F8
00FE07F0
01FC0FE0
03F81FC0
07F01FC0
0FF03F80
0FE07F00
1FC0FE00
3F81FE00
7F83FC00
FF07F800
FE03F800
7F03F800
7F01F800
3F01FC00
3F81FC00
1F80FC00
1F80FE00
0FC07E00
0FC07E00
0FC03F00
07E03F00
07E01F00
03801E00
02000800
ENDCHAR
STARTCHAR 00AC
ENCODING 172
SWIDTH 495 0
DWIDTH 33 0
BBX 28 21 6 3
BITMAP
7FFFFFF0
7FFFFFF0
7FFFFFF0
7FFFFFF0
FFFFFFE0
FFFFFFE0
FFFFFFE0
00000FE0
00001FC0
00001FC0
00001FC0
00001FC0
00003F80
00003F80
00003F80
00003F80
00007F00
00007F00
00007F00
00007F00
0000FE00
ENDCHAR
STARTCHAR 00AD
ENCODING 173
SWIDTH 495 0
DWIDTH 33 0
BBX 20 8 9 13
BITMAP
3FFFF0
3FFFF0
3FFFF0
7FFFF0
7FFFE0
7FFFE0
7FFFE0
FFFFE0
ENDCHAR
STARTCHAR 00AE
ENCODING 174
SWIDTH 495 0
DWIDTH 33 0
BBX 30 33 4 -1
BITMAP
00078000
007FF800
01FFFE00
03FFFF80
07FFFFC0
0FE01FE0
1F8007E0
3F0003F0
3E1F81F8
7C3FE0F8
7C3FF0F8
783FF87C
7838387C
F838387C
F838383C
F838783C
F83FF83C
F83FF03C
F83FE03C
F83FE07C
7838F07C
7838787C
7C3878F8
7C383CF8
3E383DF8
3F0003F0
1F8007F0
0FE00FE0
07FCFFC0
03FFFF80
01FFFE00
007FFC00
000FC000
ENDCHAR
STARTCHAR 00AF
ENCODING 175
SWIDTH 495 0
DWIDTH 33 0
BBX 21 6 14 37
BITMAP
3FFFF8
7FFFF0
7FFFF0
7FFFF0
7FFFF0
FFFFF0
ENDCHAR
STARTCHAR 00B0
ENCODING 176
SWIDTH 495 0
DWIDTH 33 0
BBX 19 19 14 28
BITMAP
00C000
0FFC00
1FFF00
3FFF80
7FFF80
FFFFC0
FE1FC0
FC0FE0
FC07E0
FC07E0
FC07E0
FC07E0
FE0FC0
FFFFC0
7FFFC0
7FFF80
3FFF00
0FFE00
03F000
ENDCHAR
STARTCHAR 00B1
ENCODING 177
SWIDTH 495 0
DWIDTH 33 0
BBX 34 37 2 0
BITMAP
00001FC000
00003F8000
00003F8000
00003F8000
00003F8000
00007F8000
00007F0000
00007F0000
00007F0000
0000FF0000
03FFFFFFC0
03FFFFFFC0
07FFFFFF80
07FFFFFF80
07FFFFFF80
07FFFFFF80
0FFFFFFF00
0001FC0000
0003F80000
0003F80000
0003F80000
0003F80000
0007F00000
0007F00000
0007F00000
0007F00000
000FF00000
0000000000
0000000000
0000000000
7FFFFFF800
7FFFFFF800
7FFFFFF800
FFFFFFF000
FFFFFFF000
FFFFFFF000
FFFFFFF000
ENDCHAR
STARTCHAR 00B2
ENCODING 178
SWIDTH 495 0
DWIDTH 33 0
BBX 19 24 12 18
BITMAP
00FF00
07FFC0
0FFFC0
1FFFE0
1FFFE0
0FCFE0
0E07E0
0407E0
0007E0
000FE0
001FC0
007FC0
01FF80
03FE00
0FFC00
1FF000
3FE000
7F8000
7F0000
FFFFC0
FFFFC0
FFFFC0
FFFF80
FFFF80
ENDCHAR
STARTCHAR 00B3
ENCODING 179
SWIDTH 495 0
DWIDTH 33 0
BBX 21 25 11 17
BITMAP
007FC0
03FFE0
07FFF0
07FFF0
03FFF8
0383F8
0001F8
0001F0
0003F0
000FE0
00FFC0
00FF80
01FFC0
01FFE0
000FE0
0007E0
0003F0
0007E0
380FE0
3FFFE0
7FFFC0
7FFFC0
FFFF00
3FFE00
008000
ENDCHAR
STARTCHAR 00B4
ENCODING 180
SWIDTH 495 0
DWIDTH 33 0
BBX 14 12 19 34
BITMAP
0040
00E0
03F0
07F0
0FF8
3FFC
7FF8
FFF0
FFC0
7F00
7C00
3000
ENDCHAR
STARTCHAR 00B5
ENCODING 181
SWIDTH 495 0
DWIDTH 33 0
BBX 35 42 0 -11
BITMAP
003FC01FE0
003FC01FE0
003FC03FC0
007F803FC0
007F803FC0
007F803FC0
007F807FC0
00FF007F80
00FF007F80
00FF007F80
00FF00FF80
01FF00FF00
01FE00FF00
01FE00FF00
01FE01FF00
03FE01FE00
03FC01FE00
03FC01FE00
03FC03FE00
07FC03FC00
07FC03FC00
07FC03FC00
07FC03FC00
0FFC07FC00
0FFF3FFE00
0FFFFFFF00
0FFFFFFF00
0FFFFFFF00
1FFFFFFE00
1FFFFCFE00
1FDFF87E00
1FC3C00400
3FC0000000
3FC0000000
3FC0000000
3FC0000000
7F80000000
7F80000000
7F80000000
7F80000000
FF00000000
FF00000000
ENDCHAR
STARTCHAR 00B6
ENCODING 182
SWIDTH 495 0
DWIDTH 33 0
BBX 33 53 6 -11
BITMAP
00003F8000
0007FFFF00
003FFFFF80
00FFFFFF00
01FFFFFF00
07FFFFFF00
0FFFFFFF00
1FFFE07E00
1FFFE0FE00
3FFFE0FE00
3FFFE0FE00
7FFFC0FC00
7FFFC1FC00
7FFFC1FC00
FFFFC1FC00
FFFF81F800
FFFF83F800
FFFF83F800
FFFF83F800
FFFF03F800
7FFF03F000
7FFF07F000
3FFF07F000
3FFE07F000
1FFE07E000
07FE0FE000
00FE0FE000
00FE0FE000
00FC0FC000
01FC1FC000
01FC1FC000
01FC1FC000
01F81F8000
03F83F8000
03F83F8000
03F83F8000
03F03F0000
07F07F0000
07F07F0000
07F07F0000
07E07E0000
0FE0FE0000
0FE0FE0000
0FE0FE0000
0FC0FE0000
1FC0FC0000
1FC1FC0000
1FC1FC0000
1F81FC0000
3F81F80000
3F83F80000
3F83F80000
3F83F80000
ENDCHAR
STARTCHAR 00B7
ENCODING 183
SWIDTH 495 0
DWIDTH 33 0
BBX 12 12 13 12
BITMAP
0300
1FC0
3FE0
7FF0
7FF0
7FF0
FFF0
FFF0
7FF0
7FE0
7FC0
1F80
ENDCHAR
STARTCHAR 00B8
ENCODING 184
SWIDTH 495 0
DWIDTH 33 0
BBX 13 12 9 -11
BITMAP
01F0
03E0
07E0
07F0
03F8
01F8
01F8
41F8
7FF8
FFF0
FFF0
FFC0
ENDCHAR
STARTCHAR 00B9
ENCODING 185
SWIDTH 495 0
DWIDTH 33 0
BBX 19 24 11 18
BITMAP
0007C0
001FC0
007FC0
01FF80
07FF80
1FFF80
1FFF80
1FFF00
1F7F00
1C7F00
007F00
007F00
00FE00
00FE00
00FE00
00FE00
00FC00
01FC00
01FC00
FFFFE0
FFFFE0
FFFFE0
FFFFC0
FFFFC0
ENDCHAR
STARTCHAR 00BA
ENCODING 186
SWIDTH 495 0
DWIDTH 33 0
BBX 22 24 12 18
BITMAP
007FC0
03FFE0
07FFF0
0FFFF8
1FFFFC
3FE3FC
3F81FC
7F00FC
7E00FC
FE00FC
FE00FC
FC00FC
FC01FC
FC01F8
FC01F8
FC03F8
FC07F0
FE0FF0
FFFFE0
FFFFC0
7FFF80
3FFF00
1FFC00
03E000
ENDCHAR
STARTCHAR 00BB
ENCODING 187
SWIDTH 495 0
DWIDTH 33 0
BBX 28 28 5 3
BITMAP
00800400
03801E00
0FC07E00
0FC03E00
07E03F00
07E03F00
07E01F80
03F01F80
03F01FC0
03F80FC0
01F80FE0
01FC0FE0
01FC07F0
00FE07F0
01FE07F0
03FC0FE0
03F81FE0
07F03FC0
0FE07F80
1FE07F00
1FC0FE00
3F81FC00
7F03F800
FE03F800
FC07F000
FC07E000
7801C000
10008000
ENDCHAR
STARTCHAR 00BC
ENCODING 188
SWIDTH 495 0
DWIDTH 33 0
BBX 37 42 1 0
BITMAP
0001E00000
0007E003F8
001FE007F0
003FC007E0
01FFC00FC0
01FFC01FC0
01FFC03F80
01EF803F00
011F807E00
001F80FE00
001F81FC00
001F01F800
003F03F000
003F07F000
003F0FE000
003E0FC000
007E1F8000
00003F8000
00007F0000
00007E0000
0000FC0000
0001FC0000
0003F80000
0003F00000
0007E00000
000FE07F00
001FC0FF00
001F80FF00
003F01FF00
007F03FE00
00FE07FE00
00FC0FBE00
01F81F3E00
03F83E3C00
07F03C7C00
07E07FFF00
0FC0FFFF00
1FC0FFFF00
3F80FFFF00
3F0000F800
7E0000F800
FE0000F000
ENDCHAR
STARTCHAR 00BD
ENCODING 189
SWIDTH 495 0
DWIDTH 33 0
BBX 37 42 1 0
BITMAP
0001E00000
0007E003F8
001FE007F0
003FC007E0
01FFC00FC0
01FFC01FC0
01FFC03F80
01EF803F00
011F807E00
001F80FE00
001F81FC00
001F01F800
003F03F000
003F07F000
003F0FE000
003E0FC000
007E1F8000
00003F8000
00007F0000
00007E0000
0000FC0000
0001FC0000
0003F80000
0003F00000
0007E00000
000FE1FC00
001FC7FE00
001F8FFF00
003F0FFF00
007F0FBF00
00FE041F00
00FC001F00
01F8003F00
03F800FE00
07F003FC00
07E00FF000
0FC01FC000
1FC03F0000
3F803FFE00
3F007FFE00
7E007FFE00
FE007FFC00
ENDCHAR
STARTCHAR 00BE
ENCODING 190
SWIDTH 495 0
DWIDTH 33 0
BBX 36 42 3 0
BITMAP
00FF800000
03FFC007F0
03FFC007E0
03FFE00FC0
0107E01FC0
0007C03F80
001F803F00
00FF007E00
00FF80FE00
00FFC1FC00
001FC1F800
000FC3F000
080FC7F000
0FFFCFE000
1FFF8FC000
1FFF1F8000
1FFC3F8000
01407F0000
00007E0000
0000FC0000
0001FC0000
0003F80000
0003F00000
0007E00000
000FE00000
001FC1FC00
001F83FC00
003F03FC00
007F07FC00
00FE0FF800
00FC1FF800
01F83EF800
03F87CF800
07F0F8F000
07E0F1F000
0FC1FFFC00
1FC3FFFC00
3F83FFFC00
3F03FFFC00
7E0003E000
FE0003E000
FC0003C000
ENDCHAR
STARTCHAR 00BF
ENCODING 191
SWIDTH 495 0
DWIDTH 33 0
BBX 26 42 3 -11
BITMAP
00003F00
00007F80
0000FF80
0001FFC0
0001FFC0
0001FFC0
0001FF80
0001FF80
0001FF00
0000FF00
00003800
00000000
00000000
00000000
00000000
0001FC00
0003FC00
0003FC00
0007F800
000FF800
001FF000
003FF000
00FFE000
01FFC000
07FF0000
0FFE0000
1FFC0000
3FF00000
3FE00000
7FC00000
7FC00000
7F800000
FF800000
FF800400
FFC03C00
7FFFFC00
7FFFFE00
7FFFFE00
3FFFFE00
1FFFFE00
0FFFF000
03FF8000
ENDCHAR
STARTCHAR 00C0
ENCODING 192
SWIDTH 495 0
DWIDTH 33 0
BBX 33 55 0 0
BITMAP
0000020000
0000078000
00000FC000
00000FE000
00001FF800
00003FFC00
00001FFE00
000007FF80
000001FF00
0000007E00
0000001E00
0000000400
0000000000
0000000000
00000FFC00
00000FFC00
00001FFC00
00001FFC00
00003FFC00
00007FFC00
00007FFC00
0000FFFC00
0000FEFC00
0001FCFE00
0001FCFE00
0003F8FE00
0007F8FE00
0007F0FE00
000FF0FE00
000FE0FE00
001FE0FE00
001FC0FE00
003FC0FE00
003F80FE00
007F80FE00
007F80FE00
00FF00FE00
00FF00FE00
01FE00FE00
01FFFFFE00
03FFFFFF00
03FFFFFF00
07FFFFFF00
07FFFFFF00
0FFFFFFF00
0FF000FF00
0FF000FF00
1FE000FF00
1FE000FF00
3FC000FF00
3FC000FF00
7F8000FF00
7F8000FF00
FF8001FF00
FF0001FF00
ENDCHAR
STARTCHAR 00C1
ENCODING 193
SWIDTH 495 0
DWIDTH 33 0
BBX 35 55 0 0
BITMAP
0000000300
0000000700
0000001F80
0000003FC0
0000007FC0
000001FFE0
000003FFC0
000007FF00
000007FC00
000003F000
000001E000
0000018000
0000000000
0000000000
00000FFC00
00000FFC00
00001FFC00
00001FFC00
00003FFC00
00007FFC00
00007FFC00
0000FFFC00
0000FEFC00
0001FCFE00
0001FCFE00
0003F8FE00
0007F8FE00
0007F0FE00
000FF0FE00
000FE0FE00
001FE0FE00
001FC0FE00
003FC0FE00
003F80FE00
007F80FE00
007F80FE00
00FF00FE00
00FF00FE00
01FE00FE00
01FFFFFE00
03FFFFFF00
03FFFFFF00
07FFFFFF00
07FFFFFF00
0FFFFFFF00
0FF000FF00
0FF000FF00
1FE000FF00
1FE000FF00
3FC000FF00
3FC000FF00
7F8000FF00
7F8000FF00
FF8001FF00
FF0001FF00
ENDCHAR
STARTCHAR 00C2
ENCODING 194
SWIDTH 495 0
DWIDTH 33 0
BBX 36 55 0 0
BITMAP
0000001800
0000003C00
0000007E00
000001FE00
000003FF00
000007FF80
00000FFFC0
00003FEFE0
00003F87F0
00001F03E0
00001C01C0
0000080000
0000000000
0000000000
00000FFC00
00000FFC00
00001FFC00
00001FFC00
00003FFC00
00007FFC00
00007FFC00
0000FFFC00
0000FEFC00
0001FCFE00
0001FCFE00
0003F8FE00
0007F8FE00
0007F0FE00
000FF0FE00
000FE0FE00
001FE0FE00
001FC0FE00
003FC0FE00
003F80FE00
007F80FE00
007F80FE00
00FF00FE00
00FF00FE00
01FE00FE00
01FFFFFE00
03FFFFFF00
03FFFFFF00
07FFFFFF00
07FFFFFF00
0FFFFFFF00
0FF000FF00
0FF000FF00
1FE000FF00
1FE000FF00
3FC000FF00
3FC000FF00
7F8000FF00
7F8000FF00
FF8001FF00
FF0001FF00
ENDCHAR
STARTCHAR 00C3
ENCODING 195
SWIDTH 495 0
DWIDTH 33 0
BBX 37 54 0 0
BITMAP
000007C060
00001FF0F0
00003FFFF8
00007FFFF8
00007FFFF0
0000FFFFF0
0000FFFFE0
0000783FC0
0000100400
0000000000
0000000000
0000000000
0000000000
00000FFC00
00000FFC00
00001FFC00
00001FFC00
00003FFC00
00007FFC00
00007FFC00
0000FFFC00
0000FEFC00
0001FCFE00
0001FCFE00
0003F8FE00
0007F8FE00
0007F0FE00
000FF0FE00
000FE0FE00
001FE0FE00
001FC0FE00
003FC0FE00
003F80FE00
007F80FE00
007F80FE00
00FF00FE00
00FF00FE00
01FE00FE00
01FFFFFE00
03FFFFFF00
03FFFFFF00
07FFFFFF00
07FFFFFF00
0FFFFFFF00
0FF000FF00
0FF000FF00
1FE000FF00
1FE000FF00
3FC000FF00
3FC000FF00
7F8000FF00
7F8000FF00
FF8001FF00
FF0001FF00
ENDCHAR
STARTCHAR 00C4
ENCODING 196
SWIDTH 495 0
DWIDTH 33 0
BBX 38 54 0 0
BITMAP
00001E00F0
00007F01F8
00007F83FC
0000FF87FC
0000FF87FC
0000FF87FC
0000FF03F8
00007E03F8
00003C01E0
0000000000
0000000000
0000000000
0000000000
00000FFC00
00000FFC00
00001FFC00
00001FFC00
00003FFC00
00007FFC00
00007FFC00
0000FFFC00
0000FEFC00
0001FCFE00
0001FCFE00
0003F8FE00
0007F8FE00
0007F0FE00
000FF0FE00
000FE0FE00
001FE0FE00
001FC0FE00
003FC0FE00
003F80FE00
007F80FE00
007F80FE00
00FF00FE00
00FF00FE00
01FE00FE00
01FFFFFE00
03FFFFFF00
03FFFFFF00
07FFFFFF00
07FFFFFF00
0FFFFFFF00
0FF000FF00
0FF000FF00
1FE000FF00
1FE000FF00
3FC000FF00
3FC000FF00
7F8000FF00
7F8000FF00
FF8001FF00
FF0001FF00
ENDCHAR
STARTCHAR 00C5
ENCODING 197
SWIDTH 495 0
DWIDTH 33 0
BBX 33 53 0 0
BITMAP
0000004000
000003FC00
00000FFE00
00000FFF00
00001FFF00
00001F0F00
00001E0F80
00001E0F80
00001E0F80
00001F1F00
00001FFF00
00000FFE00
00000FFC00
00000FFC00
00001FFC00
00001FFC00
00003FFC00
00007FFC00
00007FFC00
0000FFFC00
0000FEFC00
0001FCFC00
0001FCFE00
0003F8FE00
0003F8FE00
0007F0FE00
000FF0FE00
000FE0FE00
001FE0FE00
001FC0FE00
003FC0FE00
003F80FE00
007F80FE00
007F80FE00
00FF00FE00
00FF00FE00
01FE00FE00
01FFFFFF00
03FFFFFF00
03FFFFFF00
07FFFFFF00
07FFFFFF00
0FFFFFFF00
0FF000FF00
0FF000FF00
1FE000FF00
1FE000FF00
3FC000FF00
3FC000FF00
7F8000FF00
7F8000FF00
FF8001FF00
FF0001FF00
ENDCHAR
STARTCHAR 00C6
ENCODING 198
SWIDTH 495 0
DWIDTH 33 0
BBX 41 41 -1 0
BITMAP
000003FFFF80
000007FFFF80
00000FFFFF80
00000FFFFF00
00001FFFFF00
00001FFFFF00
00003FFFFF00
00007F7F0000
00007F7F0000
0000FEFF0000
0000FCFE0000
0001FCFE0000
0001F8FE0000
0003F9FE0000
0007F1FC0000
0007F1FC0000
000FE1FFF000
000FE3FFF000
001FC3FFE000
001FC3FFE000
003F83FFE000
003F87FFE000
007F87FFC000
007F07F00000
00FF07F00000
00FFFFF00000
01FFFFE00000
01FFFFE00000
03FFFFE00000
03FFFFE00000
07FFFFE00000
07F01FC00000
0FF01FC00000
0FF01FC00000
1FE03FFFC000
1FE03FFFC000
3FC03FFF8000
3FC03FFF8000
7F807FFF8000
7F807FFF8000
FF807FFF8000
ENDCHAR
STARTCHAR 00C7
ENCODING 199
SWIDTH 495 0
DWIDTH 33 0
BBX 32 53 6 -11
BITMAP
00007FE0
0003FFFC
000FFFFE
001FFFFF
007FFFFE
00FFFFFE
01FFFFFC
03FFC07C
03FF0008
07FE0000
0FFC0000
0FF80000
1FF00000
1FF00000
3FE00000
3FE00000
3FC00000
7FC00000
7F800000
7F800000
7F800000
FF800000
FF800000
FF000000
FF000000
FF000000
FF000000
FF000000
FF000000
FF000000
FF000000
FF800000
FF800000
FFC00000
7FE00300
7FF83F00
3FFFFF00
3FFFFF00
1FFFFF80
0FFFFF80
07FFFF00
03FFF800
007FC000
007C0000
00FE0000
007F0000
003F8000
001F8000
083F8000
0FFF0000
1FFF0000
1FFE0000
0FF80000
ENDCHAR
STARTCHAR 00C8
ENCODING 200
SWIDTH 495 0
DWIDTH 33 0
BBX 34 55 4 0
BITMAP
0000100000
00003C0000
00007E0000
00007F0000
0000FFC000
0001FFE000
0000FFF000
00003FFC00
00000FF800
000003F000
000000F000
0000002000
0000000000
0000000000
007FFFFFC0
007FFFFF80
007FFFFF80
00FFFFFF80
00FFFFFF80
00FFFFFF80
00FFFFFF00
00FF000000
01FF000000
01FE000000
01FE000000
01FE000000
03FE000000
03FC000000
03FC000000
03FC000000
07FFFFF000
07FFFFE000
07FFFFE000
07FFFFE000
0FFFFFE000
0FFFFFE000
0FFFFFC000
0FF0000000
1FF0000000
1FE0000000
1FE0000000
1FE0000000
1FE0000000
3FC0000000
3FC0000000
3FC0000000
3FC0000000
7FC0000000
7FFFFFE000
7FFFFFE000
7FFFFFE000
FFFFFFC000
FFFFFFC000
FFFFFFC000
FFFFFFC000
ENDCHAR
STARTCHAR 00C9
ENCODING 201
SWIDTH 495 0
DWIDTH 33 0
BBX 34 55 4 0
BITMAP
0000003000
0000007000
000001F800
000003FC00
000007FC00
00001FFE00
00003FFC00
00007FF000
00007FC000
00003F8000
00001E0000
0000180000
0000000000
0000000000
007FFFFFC0
007FFFFF80
007FFFFF80
00FFFFFF80
00FFFFFF80
00FFFFFF80
00FFFFFF00
00FF000000
01FF000000
01FE000000
01FE000000
01FE000000
03FE000000
03FC000000
03FC000000
03FC000000
07FFFFF000
07FFFFE000
07FFFFE000
07FFFFE000
0FFFFFE000
0FFFFFE000
0FFFFFC000
0FF0000000
1FF0000000
1FE0000000
1FE0000000
1FE0000000
1FE0000000
3FC0000000
3FC0000000
3FC0000000
3FC0000000
7FC0000000
7FFFFFE000
7FFFFFE000
7FFFFFE000
FFFFFFC000
FFFFFFC000
FFFFFFC000
FFFFFFC000
ENDCHAR
STARTCHAR 00CA
ENCODING 202
SWIDTH 495 0
DWIDTH 33 0
BBX 34 55 4 0
BITMAP
0000008000
000003C000
000007E000
00000FF000
00001FF800
00007FFC00
0000FFFC00
0001FEFE00
0003FC7F00
0001F03E00
0000E01C00
0000000800
0000000000
0000000000
007FFFFFC0
007FFFFF80
007FFFFF80
00FFFFFF80
00FFFFFF80
00FFFFFF80
00FFFFFF00
00FF000000
01FF000000
01FE000000
01FE000000
01FE000000
03FE000000
03FC000000
03FC000000
03FC000000
07FFFFF000
07FFFFE000
07FFFFE000
07FFFFE000
0FFFFFE000
0FFFFFE000
0FFFFFC000
0FF0000000
1FF0000000
1FE0000000
1FE0000000
1FE0000000
1FE0000000
3FC0000000
3FC0000000
3FC0000000
3FC0000000
7FC0000000
7FFFFFE000
7FFFFFE000
7FFFFFE000
FFFFFFC000
FFFFFFC000
FFFFFFC000
FFFFFFC000
ENDCHAR
STARTCHAR 00CB
ENCODING 203
SWIDTH 495 0
DWIDTH 33 0
BBX 34 54 4 0
BITMAP
0001E00F80
0007F01FC0
0007F83FC0
000FF83FC0
000FF87FC0
000FF87FC0
000FF03F80
0007E03F80
0003C00E00
0000000000
0000000000
0000000000
0000000000
007FFFFFC0
007FFFFF80
007FFFFF80
00FFFFFF80
00FFFFFF80
00FFFFFF80
00FFFFFF00
00FF000000
01FF000000
01FE000000
01FE000000
01FE000000
03FE000000
03FC000000
03FC000000
03FC000000
07FFFFF000
07FFFFE000
07FFFFE000
07FFFFE000
0FFFFFE000
0FFFFFE000
0FFFFFC000
0FF0000000
1FF0000000
1FE0000000
1FE0000000
1FE0000000
1FE0000000
3FC0000000
3FC0000000
3FC0000000
3FC0000000
7FC0000000
7FFFFFE000
7FFFFFE000
7FFFFFE000
FFFFFFC000
FFFFFFC000
FFFFFFC000
FFFFFFC000
ENDCHAR
STARTCHAR 00CC
ENCODING 204
SWIDTH 495 0
DWIDTH 33 0
BBX 36 55 2 0
BITMAP
0000080000
00001E0000
00003F0000
00003FC000
00007FE000
00007FF000
00007FF800
00001FFE00
000007FC00
000001FC00
0000007800
0000001000
0000000000
0000000000
003FFFFFF0
003FFFFFF0
003FFFFFF0
007FFFFFF0
007FFFFFE0
007FFFFFE0
007FFFFFE0
00007FC000
00007F8000
00007F8000
00007F8000
0000FF8000
0000FF0000
0000FF0000
0000FF0000
0001FF0000
0001FE0000
0001FE0000
0001FE0000
0001FE0000
0003FE0000
0003FC0000
0003FC0000
0003FC0000
0007FC0000
0007F80000
0007F80000
0007F80000
000FF80000
000FF00000
000FF00000
000FF00000
001FF00000
001FE00000
3FFFFFF000
3FFFFFF000
7FFFFFF000
7FFFFFE000
7FFFFFE000
7FFFFFE000
FFFFFFE000
ENDCHAR
STARTCHAR 00CD
ENCODING 205
SWIDTH 495 0
DWIDTH 33 0
BBX 36 55 2 0
BITMAP
0000000C00
0000001E00
0000003E00
000000FF00
000001FF00
000003FF80
00000FFF00
00001FFC00
00001FF800
00000FE000
0000078000
0000060000
0000000000
0000000000
003FFFFFF0
003FFFFFF0
003FFFFFF0
007FFFFFF0
007FFFFFE0
007FFFFFE0
007FFFFFE0
00007FC000
00007F8000
00007F8000
00007F8000
0000FF8000
0000FF0000
0000FF0000
0000FF0000
0001FF0000
0001FE0000
0001FE0000
0001FE0000
0001FE0000
0003FE0000
0003FC0000
0003FC0000
0003FC0000
0007FC0000
0007F80000
0007F80000
0007F80000
000FF80000
000FF00000
000FF00000
000FF00000
001FF00000
001FE00000
3FFFFFF000
3FFFFFF000
7FFFFFF000
7FFFFFE000
7FFFFFE000
7FFFFFE000
FFFFFFE000
ENDCHAR
STARTCHAR 00CE
ENCODING 206
SWIDTH 495 0
DWIDTH 33 0
BBX 36 55 2 0
BITMAP
0000006000
000000F000
000001F800
000003FC00
00000FFC00
00001FFE00
00003FFF00
00007FBF80
0000FE1FC0
00007C0F80
0000300700
0000200200
0000000000
0000000000
003FFFFFF0
003FFFFFF0
003FFFFFF0
007FFFFFF0
007FFFFFE0
007FFFFFE0
007FFFFFE0
00007FC000
00007F8000
00007F8000
00007F8000
0000FF8000
0000FF0000
0000FF0000
0000FF0000
0001FF0000
0001FE0000
0001FE0000
0001FE0000
0001FE0000
0003FE0000
0003FC0000
0003FC0000
0003FC0000
0007FC0000
0007F80000
0007F80000
0007F80000
000FF80000
000FF00000
000FF00000
000FF00000
001FF00000
001FE00000
3FFFFFF000
3FFFFFF000
7FFFFFF000
7FFFFFE000
7FFFFFE000
7FFFFFE000
FFFFFFE000
ENDCHAR
STARTCHAR 00CF
ENCODING 207
SWIDTH 495 0
DWIDTH 33 0
BBX 36 54 2 0
BITMAP
00007803E0
0000FC07F0
0001FE0FF0
0003FE0FF0
0003FE1FF0
0003FE1FF0
0001FC0FF0
0001F80FE0
0000F00380
0000000000
0000000000
0000000000
0000000000
003FFFFFF0
003FFFFFF0
003FFFFFF0
007FFFFFF0
007FFFFFE0
007FFFFFE0
007FFFFFE0
00007FC000
00007F8000
00007F8000
00007F8000
0000FF8000
0000FF0000
0000FF0000
0000FF0000
0001FF0000
0001FE0000
0001FE0000
0001FE0000
0001FE0000
0003FE0000
0003FC0000
0003FC0000
0003FC0000
0007FC0000
0007F80000
0007F80000
0007F80000
000FF80000
000FF00000
000FF00000
000FF00000
001FF00000
001FE00000
3FFFFFF000
3FFFFFF000
7FFFFFF000
7FFFFFE000
7FFFFFE000
7FFFFFE000
FFFFFFE000
ENDCHAR
STARTCHAR 00D0
ENCODING 208
SWIDTH 495 0
DWIDTH 33 0
BBX 32 43 3 -1
BITMAP
0003FC00
003FFF80
003FFFE0
007FFFF0
007FFFF8
007FFFFC
007FFFFC
00FF8FFE
00FF03FE
00FF01FF
00FF01FF
00FF00FF
01FE00FF
01FE00FF
01FE00FF
01FE00FF
03FC00FF
3FFFC0FF
3FFFC0FF
3FFFC0FF
3FFFC0FF
7FFF81FF
7FFF81FF
7FFF81FE
0FF001FE
0FF003FE
0FF003FE
0FF003FC
1FF007FC
1FE007F8
1FE00FF8
1FE01FF8
3FE03FF0
3FC07FE0
3FC1FFE0
3FFFFFC0
3FFFFF80
7FFFFF00
7FFFFE00
7FFFF800
7FFFE000
FFFF8000
01400000
ENDCHAR
STARTCHAR 00D1
ENCODING 209
SWIDTH 495 0
DWIDTH 33 0
BBX 37 54 2 0
BITMAP
00001F0180
00007FC3E0
0000FFFFF0
0000FFFFE0
0001FFFFC0
0003FFFFC0
0003FFFF80
0000E0FF00
0000403000
0000000000
0000000000
0000000000
0000000000
007F8003F8
007F8007F8
007F8007F0
007FC007F0
00FFC007F0
00FFC00FF0
00FFE00FE0
00FFE00FE0
01FFE00FE0
01FFF01FE0
01FFF01FC0
01FFF01FC0
01FFF01FC0
03FDF83FC0
03F9F83F80
03F9F83F80
03F9F83F80
07F8FC3F80
07F0FC7F80
07F0FC7F00
07F0FC7F00
0FF07C7F00
0FE07EFF00
0FE07EFE00
0FE07EFE00
1FE07EFE00
1FC03FFE00
1FC03FFC00
1FC03FFC00
3FC03FFC00
3FC01FFC00
3F801FF800
3F801FF800
3F801FF800
7F801FF800
7F001FF000
7F000FF000
7F000FF000
FF000FF000
FE000FF000
FE000FE000
ENDCHAR
STARTCHAR 00D2
ENCODING 210
SWIDTH 495 0
DWIDTH 33 0
BBX 32 56 4 -1
BITMAP
00001000
00003C00
00007E00
00007F80
0000FFC0
0000FFE0
0000FFF0
00003FFC
00000FF8
000003F8
000000F0
00000020
00000000
0000FF80
0007FFE0
000FFFF0
003FFFF8
007FFFFC
00FFFFFC
01FFFFFE
01FF83FE
03FF01FF
07FE01FF
07FC01FF
0FF800FF
0FF000FF
0FF000FF
1FF000FF
1FE000FF
1FE000FF
3FC001FF
3FC001FF
3FC001FE
7FC001FE
7F8001FE
7F8001FE
7F8003FE
7F8003FC
7F8003FC
7F8003FC
7F8007FC
FF8007F8
FF800FF8
FF800FF0
7F801FF0
7F803FE0
7F803FE0
7FC07FC0
7FF1FFC0
3FFFFF80
3FFFFF00
1FFFFE00
0FFFFC00
07FFF000
03FFE000
007F0000
ENDCHAR
STARTCHAR 00D3
ENCODING 211
SWIDTH 495 0
DWIDTH 33 0
BBX 32 56 4 -1
BITMAP
00000040
000001E0
000003E0
000007F0
00001FF8
00003FF8
00007FF8
0001FFE0
0000FF80
0000FE00
00007800
00002000
00000000
0000FF80
0007FFE0
000FFFF0
003FFFF8
007FFFFC
00FFFFFC
01FFFFFE
01FF83FE
03FF01FF
07FE01FF
07FC01FF
0FF800FF
0FF000FF
0FF000FF
1FF000FF
1FE000FF
1FE000FF
3FC001FF
3FC001FF
3FC001FE
7FC001FE
7F8001FE
7F8001FE
7F8003FE
7F8003FC
7F8003FC
7F8003FC
7F8007FC
FF8007F8
FF800FF8
FF800FF0
7F801FF0
7F803FE0
7F803FE0
7FC07FC0
7FF1FFC0
3FFFFF80
3FFFFF00
1FFFFE00
0FFFFC00
07FFF000
03FFE000
007F0000
ENDCHAR
STARTCHAR 00D4
ENCODING 212
SWIDTH 495 0
DWIDTH 33 0
BBX 32 56 4 -1
BITMAP
00000300
00000780
00000FC0
00001FE0
00007FE0
0000FFF0
0001FFF8
0003FDFC
0007F0FE
0003E07C
00018038
00010010
00000000
0000FF80
0007FFE0
000FFFF0
003FFFF8
007FFFFC
00FFFFFC
01FFFFFE
01FF83FE
03FF01FF
07FE01FF
07FC01FF
0FF800FF
0FF000FF
0FF000FF
1FF000FF
1FE000FF
1FE000FF
3FC001FF
3FC001FF
3FC001FE
7FC001FE
7F8001FE
7F8001FE
7F8003FE
7F8003FC
7F8003FC
7F8003FC
7F8007FC
FF8007F8
FF800FF8
FF800FF0
7F801FF0
7F803FE0
7F803FE0
7FC07FC0
7FF1FFC0
3FFFFF80
3FFFFF00
1FFFFE00
0FFFFC00
07FFF000
03FFE000
007F0000
ENDCHAR
STARTCHAR 00D5
ENCODING 213
SWIDTH 495 0
DWIDTH 33 0
BBX 34 55 4 -1
BITMAP
00003C0600
0000FF0F80
0001FFFFC0
0003FFFF80
0007FFFF80
0007FFFF00
000FFFFE00
000383FC00
0001006000
0000000000
0000000000
0000000000
0000FF8000
0007FFE000
000FFFF000
003FFFF800
007FFFFC00
00FFFFFC00
01FFFFFE00
01FF83FE00
03FF01FF00
07FE01FF00
07FC01FF00
0FF800FF00
0FF000FF00
0FF000FF00
1FF000FF00
1FE000FF00
1FE000FF00
3FC001FF00
3FC001FF00
3FC001FE00
7FC001FE00
7F8001FE00
7F8001FE00
7F8003FE00
7F8003FC00
7F8003FC00
7F8003FC00
7F8007FC00
FF8007F800
FF800FF800
FF800FF000
7F801FF000
7F803FE000
7F803FE000
7FC07FC000
7FF1FFC000
3FFFFF8000
3FFFFF0000
1FFFFE0000
0FFFFC0000
07FFF00000
03FFE00000
007F000000
ENDCHAR
STARTCHAR 00D6
ENCODING 214
SWIDTH 495 0
DWIDTH 33 0
BBX 34 55 4 -1
BITMAP
0003E00F00
0007F03F80
000FF03FC0
000FF87FC0
000FF87FC0
000FF07FC0
000FF07F80
0007E03F00
0003801E00
0000000000
0000000000
0000000000
0000FF8000
0007FFE000
000FFFF000
003FFFF800
007FFFFC00
00FFFFFC00
01FFFFFE00
01FF83FE00
03FF01FF00
07FE01FF00
07FC01FF00
0FF800FF00
0FF000FF00
0FF000FF00
1FF000FF00
1FE000FF00
1FE000FF00
3FC001FF00
3FC001FF00
3FC001FE00
7FC001FE00
7F8001FE00
7F8001FE00
7F8003FE00
7F8003FC00
7F8003FC00
7F8003FC00
7F8007FC00
FF8007F800
FF800FF800
FF800FF000
7F801FF000
7F803FE000
7F803FE000
7FC07FC000
7FF1FFC000
3FFFFF8000
3FFFFF0000
1FFFFE0000
0FFFFC0000
07FFF00000
03FFE00000
007F000000
ENDCHAR
STARTCHAR 00D7
ENCODING 215
SWIDTH 495 0
DWIDTH 33 0
BBX 30 27 5 4
BITMAP
00400020
00E00070
03E001F0
07F003F8
0FF807FC
0FFC0FFC
07FC3FF8
03FE7FF0
01FFFFC0
01FFFF80
00FFFF00
007FFE00
003FF800
003FF000
007FF800
01FFF800
03FFFC00
07FFFE00
0FFFFF00
3FF9FF00
7FF0FF80
FFC07FC0
7F807FC0
3F003F00
3E001E00
18000C00
00000800
ENDCHAR
STARTCHAR 00D8
ENCODING 216
SWIDTH 495 0
DWIDTH 33 0
BBX 33 46 4 -3
BITMAP
0000000800
0000001E00
0000FF9F80
0007FFFF80
000FFFFF00
003FFFFE00
007FFFFE00
00FFFFFC00
01FFFFFE00
01FF03FE00
03FE07FF00
07FC07FF00
07F80FFF00
0FF81FFF00
0FF01FFF00
0FF03FFF00
1FE07FFF00
1FE07EFF00
1FC0FEFF00
3FC1FCFF00
3FC1F8FF00
3F83F8FE00
7F87F0FE00
7F87E1FE00
7F8FE1FE00
7F9FC1FE00
7F9F81FC00
7F3F83FC00
7F7F03FC00
7F7E03FC00
FFFE07F800
FFFC07F800
FFF80FF000
7FF80FF000
7FF01FE000
7FE03FE000
7FE07FC000
7FE0FFC000
3FFFFF8000
3FFFFF0000
3FFFFE0000
7FFFFC0000
FFFFF00000
FFFFE00000
F87F000000
3800000000
ENDCHAR
STARTCHAR 00D9
ENCODING 217
SWIDTH 495 0
DWIDTH 33 0
BBX 34 56 4 -1
BITMAP
0000C00000
0001E00000
0001F00000
0003FC0000
0007FE0000
0007FF0000
0003FFC000
0001FFE000
00007FC000
00001FC000
0000078000
0000010000
0000000000
0000000000
01FE003FC0
01FE003FC0
01FE003FC0
03FE007FC0
03FC007F80
03FC007F80
03FC007F80
03FC00FF80
07FC00FF00
07F800FF00
07F800FF00
07F801FF00
0FF801FE00
0FF001FE00
0FF001FE00
0FF001FE00
1FF003FE00
1FE003FC00
1FE003FC00
1FE003FC00
3FE007FC00
3FC007F800
3FC007F800
3FC007F800
7FC00FF800
7F800FF000
7F800FF000
7F800FF000
7F801FF000
7F801FE000
FF801FE000
FF803FE000
7F803FC000
7FC07FC000
7FE3FF8000
7FFFFF8000
7FFFFF0000
3FFFFE0000
1FFFFE0000
0FFFF80000
07FFE00000
00FF000000
ENDCHAR
STARTCHAR 00DA
ENCODING 218
SWIDTH 495 0
DWIDTH 33 0
BBX 34 56 4 -1
BITMAP
0000006000
000000E000
000003F000
000007F800
00000FF800
00003FFC00
00007FF800
0000FFE000
0000FF8000
00007F0000
00003C0000
0000300000
0000000000
0000000000
01FE003FC0
01FE003FC0
01FE003FC0
03FE007FC0
03FC007F80
03FC007F80
03FC007F80
03FC00FF80
07FC00FF00
07F800FF00
07F800FF00
07F801FF00
0FF801FE00
0FF001FE00
0FF001FE00
0FF001FE00
1FF003FE00
1FE003FC00
1FE003FC00
1FE003FC00
3FE007FC00
3FC007F800
3FC007F800
3FC007F800
7FC00FF800
7F800FF000
7F800FF000
7F800FF000
7F801FF000
7F801FE000
FF801FE000
FF803FE000
7F803FC000
7FC07FC000
7FE3FF8000
7FFFFF8000
7FFFFF0000
3FFFFE0000
1FFFFE0000
0FFFF80000
07FFE00000
00FF000000
ENDCHAR
STARTCHAR 00DB
ENCODING 219
SWIDTH 495 0
DWIDTH 33 0
BBX 34 56 4 -1
BITMAP
0000018000
000003C000
000007E000
00000FF000
00003FF000
00007FF800
0000FFFC00
0001FEFE00
0003F87F00
0001F03E00
0000C01C00
0000800800
0000000000
0000000000
01FE003FC0
01FE003FC0
01FE003FC0
03FE007FC0
03FC007F80
03FC007F80
03FC007F80
03FC00FF80
07FC00FF00
07F800FF00
07F800FF00
07F801FF00
0FF801FE00
0FF001FE00
0FF001FE00
0FF001FE00
1FF003FE00
1FE003FC00
1FE003FC00
1FE003FC00
3FE007FC00
3FC007F800
3FC007F800
3FC007F800
7FC00FF800
7F800FF000
7F800FF000
7F800FF000
7F801FF000
7F801FE000
FF801FE000
FF803FE000
7F803FC000
7FC07FC000
7FE3FF8000
7FFFFF8000
7FFFFF0000
3FFFFE0000
1FFFFE0000
0FFFF80000
07FFE00000
00FF000000
ENDCHAR
STARTCHAR 00DC
ENCODING 220
SWIDTH 495 0
DWIDTH 33 0
BBX 34 55 4 -1
BITMAP
0001E00F80
0003F01FC0
0007F83FC0
000FF83FC0
000FF87FC0
000FF87FC0
0007F03FC0
0007E03F80
0003C00E00
0000000000
0000000000
0000000000
0000000000
01FE003FC0
01FE003FC0
01FE003FC0
03FE007FC0
03FC007F80
03FC007F80
03FC007F80
03FC00FF80
07FC00FF00
07F800FF00
07F800FF00
07F801FF00
0FF801FE00
0FF001FE00
0FF001FE00
0FF001FE00
1FF003FE00
1FE003FC00
1FE003FC00
1FE003FC00
3FE007FC00
3FC007F800
3FC007F800
3FC007F800
7FC00FF800
7F800FF000
7F800FF000
7F800FF000
7F801FF000
7F801FE000
FF801FE000
FF803FE000
7F803FC000
7FC07FC000
7FE3FF8000
7FFFFF8000
7FFFFF0000
3FFFFE0000
1FFFFE0000
0FFFF80000
07FFE00000
00FF000000
ENDCHAR
STARTCHAR 00DD
ENCODING 221
SWIDTH 495 0
DWIDTH 33 0
BBX 31 55 10 0
BITMAP
00000400
00001E00
00003F00
00007F00
0001FF80
0003FFC0
0007FF80
001FFE00
000FF800
0007E000
00078000
00020000
00000000
00000000
FF0003FE
FF0007FC
FF0007FC
FF000FF8
FF000FF0
FF001FF0
7F003FE0
7F803FC0
7F807FC0
7F807F80
7F80FF00
7F81FF00
3F81FE00
3FC3FC00
3FC7FC00
3FC7F800
1FCFF000
1FFFE000
1FFFE000
1FFFC000
0FFF8000
0FFF0000
0FFF0000
07FE0000
07FC0000
07F80000
07F80000
07F80000
0FF80000
0FF00000
0FF00000
0FF00000
1FF00000
1FE00000
1FE00000
1FE00000
3FE00000
3FC00000
3FC00000
3FC00000
3FC00000
ENDCHAR
STARTCHAR 00DE
ENCODING 222
SWIDTH 495 0
DWIDTH 33 0
BBX 32 41 3 0
BITMAP
007F8000
007F8000
007F8000
007F8000
00FF8000
00FF0000
00FFFF80
00FFFFE0
01FFFFF8
01FFFFFC
01FFFFFE
01FFFFFE
03FFFFFF
03FC03FF
03FC01FF
03FC00FF
07FC00FF
07F800FF
07F800FF
07F800FF
0FF800FF
0FF000FF
0FF001FF
0FF003FE
1FF007FE
1FE01FFC
1FFFFFFC
1FFFFFF8
1FFFFFF0
3FFFFFC0
3FFFFF80
3FFFFE00
3FFFF000
7F800000
7F800000
7F800000
7F800000
FF800000
FF000000
FF000000
FF000000
ENDCHAR
STARTCHAR 00DF
ENCODING 223
SWIDTH 495 0
DWIDTH 33 0
BBX 44 57 -8 -11
BITMAP
0000000FFE00
0000003FFF80
000000FFFFC0
000001FFFFE0
000003FFFFE0
000007FFFFF0
00000FFFFFF0
00000FF81FF0
00001FF00FF0
00001FE00FF0
00003FE00FF0
00003FC00FE0
00003FC01FE0
00007FC03FC0
00007F803FC0
00007F807F80
00007F80FF00
00007F81FE00
0000FF83FC00
0000FF07F800
0000FF07F000
0000FF0FF000
0000FF0FE000
0001FF0FE000
0001FE1FE000
0001FE1FF000
0001FE0FF800
0001FE0FFC00
0003FE07FE00
0003FC07FE00
0003FC03FF00
0003FC01FF80
0003FC00FF80
0007FC007FC0
0007F8007FC0
0007F8003FC0
0007F8003FC0
000FF8003FC0
000FF8007FC0
000FF061FF80
000FF0FFFF80
000FF0FFFF00
001FF1FFFF00
001FF1FFFE00
001FE3FFFC00
001FE1FFF000
003FE03F8000
003FE0000000
007FC0000000
31FFC0000000
3FFF80000000
7FFF80000000
7FFF00000000
7FFE00000000
FFFC00000000
FFF800000000
3FC000000000
ENDCHAR
STARTCHAR 00E0
ENCODING 224
SWIDTH 495 0
DWIDTH 33 0
BBX 31 47 4 -1
BITMAP
00006000
00007000
0000F800
0000FE00
0001FF00
0003FF80
0003FFE0
0000FFF0
00003FF0
00000FE0
000003E0
000000C0
00000000
00000000
0001FF80
000FFFF8
003FFFFE
007FFFFE
01FFFFFC
03FFFFFC
07FFFFFC
0FFE03FC
0FFC07F8
1FF007F8
1FE007F8
3FE007F8
3FC00FF8
7FC00FF0
7F800FF0
7F800FF0
7F801FF0
FF801FE0
FF001FE0
FF001FE0
FF003FE0
FF003FC0
FF803FC0
FF803FC0
7FC0FFC0
7FE1FFC0
7FFFFFC0
3FFFFFE0
3FFFFFE0
1FFFFFE0
0FFFCFE0
07FF0FE0
00F80800
ENDCHAR
STARTCHAR 00E1
ENCODING 225
SWIDTH 495 0
DWIDTH 33 0
BBX 31 47 4 -1
BITMAP
00000020
00000070
000001F8
000003F8
000007FC
00001FFC
00003FFC
00007FF0
00007FE0
00007F80
00003E00
00001800
00000000
00000000
0001FF80
000FFFF8
003FFFFE
007FFFFE
01FFFFFC
03FFFFFC
07FFFFFC
0FFE03FC
0FFC07F8
1FF007F8
1FE007F8
3FE007F8
3FC00FF8
7FC00FF0
7F800FF0
7F800FF0
7F801FF0
FF801FE0
FF001FE0
FF001FE0
FF003FE0
FF003FC0
FF803FC0
FF803FC0
7FC0FFC0
7FE1FFC0
7FFFFFC0
3FFFFFE0
3FFFFFE0
1FFFFFE0
0FFFCFE0
07FF0FE0
00F80800
ENDCHAR
STARTCHAR 00E2
ENCODING 226
SWIDTH 495 0
DWIDTH 33 0
BBX 31 47 4 -1
BITMAP
00000100
00000780
00000F80
00001FC0
00003FE0
0000FFF0
0001FFF8
0003FFF8
0007F9FC
0003E0FC
0003C078
00010010
00000000
00000000
0001FF80
000FFFF8
003FFFFE
007FFFFE
01FFFFFC
03FFFFFC
07FFFFFC
0FFE03FC
0FFC07F8
1FF007F8
1FE007F8
3FE007F8
3FC00FF8
7FC00FF0
7F800FF0
7F800FF0
7F801FF0
FF801FE0
FF001FE0
FF001FE0
FF003FE0
FF003FC0
FF803FC0
FF803FC0
7FC0FFC0
7FE1FFC0
7FFFFFC0
3FFFFFE0
3FFFFFE0
1FFFFFE0
0FFFCFE0
07FF0FE0
00F80800
ENDCHAR
STARTCHAR 00E3
ENCODING 227
SWIDTH 495 0
DWIDTH 33 0
BBX 33 46 4 -1
BITMAP
0000100400
0001FE0E00
0003FFFF80
0007FFFF80
000FFFFF00
000FFFFE00
001FFFFE00
000F87FC00
000301F000
0000000000
0000000000
0000000000
0000000000
0001FF8000
000FFFF800
003FFFFE00
007FFFFE00
01FFFFFC00
03FFFFFC00
07FFFFFC00
0FFE03FC00
0FFC07F800
1FF007F800
1FE007F800
3FE007F800
3FC00FF800
7FC00FF000
7F800FF000
7F800FF000
7F801FF000
FF801FE000
FF001FE000
FF001FE000
FF003FE000
FF003FC000
FF803FC000
FF803FC000
7FC0FFC000
7FE1FFC000
7FFFFFC000
3FFFFFE000
3FFFFFE000
1FFFFFE000
0FFFCFE000
07FF0FE000
00F8080000
ENDCHAR
STARTCHAR 00E4
ENCODING 228
SWIDTH 495 0
DWIDTH 33 0
BBX 34 46 4 -1
BITMAP
0001C00F00
0007F01F80
0007F03FC0
000FF87FC0
000FF87FC0
000FF07FC0
000FF07F80
000FE03F00
0007C01E00
0000000000
0000000000
0000000000
0000000000
0001FF8000
000FFFF800
003FFFFE00
007FFFFE00
01FFFFFC00
03FFFFFC00
07FFFFFC00
0FFE03FC00
0FFC07F800
1FF007F800
1FE007F800
3FE007F800
3FC00FF800
7FC00FF000
7F800FF000
7F800FF000
7F801FF000
FF801FE000
FF001FE000
FF001FE000
FF003FE000
FF003FC000
FF803FC000
FF803FC000
7FC0FFC000
7FE1FFC000
7FFFFFC000
3FFFFFE000
3FFFFFE000
1FFFFFE000
0FFFCFE000
07FF0FE000
00F8080000
ENDCHAR
STARTCHAR 00E5
ENCODING 229
SWIDTH 495 0
DWIDTH 33 0
BBX 31 49 4 -1
BITMAP
00001FE0
00003FF0
00007FF8
0000FFF8
0000F87C
0000F07C
0000F03C
0000F07C
0000F87C
00007FF8
00007FF8
00003FF0
00000FC0
00000000
00000000
00000000
0001FF80
000FFFF8
003FFFFE
007FFFFE
01FFFFFC
03FFFFFC
07FFFFFC
0FFE03FC
0FFC07F8
1FF007F8
1FE007F8
3FE007F8
3FC00FF8
7FC00FF0
7F800FF0
7F800FF0
7F801FF0
FF801FE0
FF001FE0
FF001FE0
FF003FE0
FF003FC0
FF803FC0
FF803FC0
7FC0FFC0
7FE1FFC0
7FFFFFC0
3FFFFFE0
3FFFFFE0
1FFFFFE0
0FFFCFE0
07FF0FE0
00F80800
ENDCHAR
STARTCHAR 00E6
ENCODING 230
SWIDTH 495 0
DWIDTH 33 0
BBX 34 33 2 -1
BITMAP
01FE007E00
07FF01FF00
0FFF83FF80
07FFC7FFC0
07FFEFFFC0
07FFEFFFC0
060FFF8FC0
0007FF0FC0
0003FE0FC0
0003FC0FC0
0003FC0FC0
0003F80FC0
001FF81F80
00FFF83F80
03FFF8FF00
07FFFFFE00
1FFFFFFC00
1FF3FFF800
3F83FFF000
7F07FFC000
7E07FC0000
7E07F00000
FC0FF00000
FC0FF00000
FC1FF00000
FC3FF80000
FE7FFE3800
FFFFFFFC00
FFFCFFFC00
7FF8FFFC00
7FF07FFC00
3FE03FF800
0F800FC000
ENDCHAR
STARTCHAR 00E7
ENCODING 231
SWIDTH 495 0
DWIDTH 33 0
BBX 30 43 5 -11
BITMAP
0000FFE0
000FFFFC
003FFFFC
007FFFFC
01FFFFF8
03FFFFF8
07FFFFF0
0FFF8070
1FFE0000
1FF80000
3FF00000
3FE00000
7FC00000
7FC00000
7F800000
7F800000
FF800000
FF800000
FF000000
FF000000
FF000000
FF800000
FF800000
FFC00000
7FE00180
7FFF3F80
3FFFFF80
3FFFFF80
1FFFFF80
0FFFFF80
07FFFF80
01FFFE00
001FC000
003F0000
003F8000
001FC000
000FC000
000FC000
020FC000
03FFC000
07FFC000
07FF8000
07FE0000
ENDCHAR
STARTCHAR 00E8
ENCODING 232
SWIDTH 495 0
DWIDTH 33 0
BBX 30 47 5 -1
BITMAP
00008000
0001C000
0003F000
0003F800
0007FC00
0007FF00
0007FF80
0001FFC0
0000FFC0
00003FC0
00000F80
00000300
00000000
00000000
0003FF00
001FFFC0
007FFFE0
00FFFFF0
01FFFFF8
03FFFFF8
07FF9FFC
0FF807FC
1FF003FC
1FE003FC
3FC003FC
3FC007F8
7F800FF8
7F801FF8
7F00FFF0
FFFFFFE0
FFFFFFC0
FFFFFF80
FFFFFE00
FFFFF000
FFFC0000
FF000000
FF000000
FF800000
7FC00080
7FF00780
7FFFFF80
3FFFFF80
1FFFFF80
0FFFFF80
07FFFF80
01FFFE00
003FC000
ENDCHAR
STARTCHAR 00E9
ENCODING 233
SWIDTH 495 0
DWIDTH 33 0
BBX 30 47 5 -1
BITMAP
00000080
000003C0
000007C0
00000FE0
00003FF0
00007FF0
0000FFF0
0003FFC0
0001FF00
0001FC00
0000F000
00006000
00000000
00000000
0003FF00
001FFFC0
007FFFE0
00FFFFF0
01FFFFF8
03FFFFF8
07FF9FFC
0FF807FC
1FF003FC
1FE003FC
3FC003FC
3FC007F8
7F800FF8
7F801FF8
7F00FFF0
FFFFFFE0
FFFFFFC0
FFFFFF80
FFFFFE00
FFFFF000
FFFC0000
FF000000
FF000000
FF800000
7FC00080
7FF00780
7FFFFF80
3FFFFF80
1FFFFF80
0FFFFF80
07FFFF80
01FFFE00
003FC000
ENDCHAR
STARTCHAR 00EA
ENCODING 234
SWIDTH 495 0
DWIDTH 33 0
BBX 30 47 5 -1
BITMAP
00000400
00000E00
00003F00
00007F80
0000FF80
0001FFC0
0007FFE0
000FF7F0
001FE3F8
000F81F0
000700E0
00060040
00000000
00000000
0003FF00
001FFFC0
007FFFE0
00FFFFF0
01FFFFF8
03FFFFF8
07FF9FFC
0FF807FC
1FF003FC
1FE003FC
3FC003FC
3FC007F8
7F800FF8
7F801FF8
7F00FFF0
FFFFFFE0
FFFFFFC0
FFFFFF80
FFFFFE00
FFFFF000
FFFC0000
FF000000
FF000000
FF800000
7FC00080
7FF00780
7FFFFF80
3FFFFF80
1FFFFF80
0FFFFF80
07FFFF80
01FFFE00
003FC000
ENDCHAR
STARTCHAR 00EB
ENCODING 235
SWIDTH 495 0
DWIDTH 33 0
BBX 31 46 5 -1
BITMAP
000E0078
003F80FC
003F81FE
007FC3FE
007FC3FE
007FC3FE
007F83FC
003F01FC
001E00F0
00000000
00000000
00000000
00000000
0003FF00
001FFFC0
007FFFE0
00FFFFF0
01FFFFF8
03FFFFF8
07FF9FFC
0FF807FC
1FF003FC
1FE003FC
3FC003FC
3FC007F8
7F800FF8
7F801FF8
7F00FFF0
FFFFFFE0
FFFFFFC0
FFFFFF80
FFFFFE00
FFFFF000
FFFC0000
FF000000
FF000000
FF800000
7FC00080
7FF00780
7FFFFF80
3FFFFF80
1FFFFF80
0FFFFF80
07FFFF80
01FFFE00
003FC000
ENDCHAR
STARTCHAR 00EC
ENCODING 236
SWIDTH 495 0
DWIDTH 33 0
BBX 23 47 8 -1
BITMAP
004000
007000
00F800
01FC00
01FF00
03FF80
03FFC0
00FFF0
003FF0
000FE0
0003C0
0000C0
000000
000000
000000
7FFFC0
7FFFC0
FFFF80
FFFF80
FFFF80
FFFF80
00FF00
00FF00
00FF00
01FF00
01FE00
01FE00
01FE00
03FE00
03FC00
03FC00
03FC00
07FC00
07F800
07F800
07F800
07F800
07F800
07FC00
07FF7C
07FFFE
07FFFE
03FFFE
03FFFE
01FFFE
00FFFC
001F80
ENDCHAR
STARTCHAR 00ED
ENCODING 237
SWIDTH 495 0
DWIDTH 33 0
BBX 23 47 8 -1
BITMAP
000020
000070
0001F0
0003F8
0007FC
001FFC
003FFC
007FF0
007FC0
007F00
003E00
001800
000000
000000
000000
7FFFC0
7FFFC0
FFFF80
FFFF80
FFFF80
FFFF80
00FF00
00FF00
00FF00
01FF00
01FE00
01FE00
01FE00
03FE00
03FC00
03FC00
03FC00
07FC00
07F800
07F800
07F800
07F800
07F800
07FC00
07FF7C
07FFFE
07FFFE
03FFFE
03FFFE
01FFFE
00FFFC
001F80
ENDCHAR
STARTCHAR 00EE
ENCODING 238
SWIDTH 495 0
DWIDTH 33 0
BBX 23 47 8 -1
BITMAP
000100
000380
0007C0
001FE0
003FF0
007FF0
01FFF8
03FDFC
07F8FE
03F07C
01C038
018010
000000
000000
000000
7FFFC0
7FFFC0
FFFF80
FFFF80
FFFF80
FFFF80
00FF00
00FF00
00FF00
01FF00
01FE00
01FE00
01FE00
03FE00
03FC00
03FC00
03FC00
07FC00
07F800
07F800
07F800
07F800
07F800
07FC00
07FF7C
07FFFE
07FFFE
03FFFE
03FFFE
01FFFE
00FFFC
001F80
ENDCHAR
STARTCHAR 00EF
ENCODING 239
SWIDTH 495 0
DWIDTH 33 0
BBX 26 46 8 -1
BITMAP
01C00E00
07F03F80
0FF03F80
0FF07FC0
0FF07FC0
0FF07F80
0FF07F80
0FE07F00
07C03E00
00000000
00000000
00000000
00000000
00000000
7FFFC000
7FFFC000
FFFF8000
FFFF8000
FFFF8000
FFFF8000
00FF0000
00FF0000
00FF0000
01FF0000
01FE0000
01FE0000
01FE0000
03FE0000
03FC0000
03FC0000
03FC0000
07FC0000
07F80000
07F80000
07F80000
07F80000
07F80000
07FC0000
07FF7C00
07FFFE00
07FFFE00
03FFFE00
03FFFE00
01FFFE00
00FFFC00
001F8000
ENDCHAR
STARTCHAR 00F0
ENCODING 240
SWIDTH 495 0
DWIDTH 33 0
BBX 35 47 4 -1
BITMAP
00000C0000
00003E0000
00007F0000
0001FF8000
0000FFC1C0
00007FEFE0
00003FFFE0
00001FFFE0
00003FFFE0
0001FFFE00
0003FFF800
0003FFF800
0003FFF800
0001C3F800
000003F800
000003F800
000003FC00
000003FC00
000FF3FC00
007FFFFC00
01FFFFFC00
03FFFFFC00
07FFFFFC00
0FFFFFFC00
1FFFFFF800
1FF00FF800
3FE007F800
3FC007F800
7FC00FF800
7F800FF800
7F800FF000
7F800FF000
FF001FF000
FF001FE000
FF003FE000
FF003FE000
FF007FC000
FF80FFC000
FF81FF8000
7FE7FF8000
7FFFFF0000
7FFFFE0000
3FFFFC0000
1FFFF80000
0FFFF00000
07FFC00000
00FE000000
ENDCHAR
STARTCHAR 00F1
ENCODING 241
SWIDTH 495 0
DWIDTH 33 0
BBX 32 45 3 0
BITMAP
00002008
0003FC1E
0007FFFF
000FFFFF
000FFFFE
001FFFFC
001FFFFC
000F0FF8
000603E0
00000000
00000000
00000000
00000000
0003FF00
007FFFE0
01FFFFF0
01FFFFF8
01FFFFF8
03FFFFFC
03FFFFFC
03FE0FFC
03FC07FC
07FC03FC
07F803FC
07F803FC
07F803FC
0FF807FC
0FF007F8
0FF007F8
0FF007F8
1FF00FF8
1FE00FF0
1FE00FF0
1FE00FF0
3FE01FF0
3FC01FE0
3FC01FE0
3FC01FE0
7FC01FE0
7F803FC0
7F803FC0
7F803FC0
7F803FC0
FF807FC0
FF007F80
ENDCHAR
STARTCHAR 00F2
ENCODING 242
SWIDTH 495 0
DWIDTH 33 0
BBX 30 47 4 -1
BITMAP
00008000
0001C000
0003E000
0003F800
0007FC00
000FFE00
000FFF80
0003FFC0
0000FFC0
00003F80
00000F80
00000300
00000000
00000000
0003FE00
001FFF80
007FFFC0
00FFFFE0
01FFFFF0
03FFFFF8
07FFFFF8
0FFC1FF8
0FF80FF8
1FF007FC
1FE007FC
3FE007FC
3FC007FC
7FC007FC
7F8007FC
7F8007F8
7F8007F8
7F8007F8
FF8007F8
FF800FF8
FF800FF0
FF801FF0
FF801FE0
FF803FE0
7FC07FC0
7FF1FFC0
7FFFFF80
3FFFFF00
3FFFFE00
1FFFFC00
0FFFF000
07FFC000
00FE0000
ENDCHAR
STARTCHAR 00F3
ENCODING 243
SWIDTH 495 0
DWIDTH 33 0
BBX 30 47 4 -1
BITMAP
00000180
00000380
000007C0
00001FE0
00003FE0
00007FF0
0001FFF0
0003FFC0
0003FF00
0001FC00
0000F000
0000C000
00000000
00000000
0003FE00
001FFF80
007FFFC0
00FFFFE0
01FFFFF0
03FFFFF8
07FFFFF8
0FFC1FF8
0FF80FF8
1FF007FC
1FE007FC
3FE007FC
3FC007FC
7FC007FC
7F8007FC
7F8007F8
7F8007F8
7F8007F8
FF8007F8
FF800FF8
FF800FF0
FF801FF0
FF801FE0
FF803FE0
7FC07FC0
7FF1FFC0
7FFFFF80
3FFFFF00
3FFFFE00
1FFFFC00
0FFFF000
07FFC000
00FE0000
ENDCHAR
STARTCHAR 00F4
ENCODING 244
SWIDTH 495 0
DWIDTH 33 0
BBX 30 47 4 -1
BITMAP
00000600
00000E00
00001F00
00003F80
0000FFC0
0001FFE0
0003FFE0
000FFFF0
000FE3F8
000FC1F8
000700F0
00020040
00000000
00000000
0003FE00
001FFF80
007FFFC0
00FFFFE0
01FFFFF0
03FFFFF8
07FFFFF8
0FFC1FF8
0FF80FF8
1FF007FC
1FE007FC
3FE007FC
3FC007FC
7FC007FC
7F8007FC
7F8007F8
7F8007F8
7F8007F8
FF8007F8
FF800FF8
FF800FF0
FF801FF0
FF801FE0
FF803FE0
7FC07FC0
7FF1FFC0
7FFFFF80
3FFFFF00
3FFFFE00
1FFFFC00
0FFFF000
07FFC000
00FE0000
ENDCHAR
STARTCHAR 00F5
ENCODING 245
SWIDTH 495 0
DWIDTH 33 0
BBX 31 46 4 -1
BITMAP
00004010
0007F83C
000FFFFE
001FFFFE
001FFFFC
003FFFF8
003FFFF8
001E1FF0
000C07C0
00000000
00000000
00000000
00000000
0003FE00
001FFF80
007FFFC0
00FFFFE0
01FFFFF0
03FFFFF8
07FFFFF8
0FFC1FF8
0FF80FF8
1FF007FC
1FE007FC
3FE007FC
3FC007FC
7FC007FC
7F8007FC
7F8007F8
7F8007F8
7F8007F8
FF8007F8
FF800FF8
FF800FF0
FF801FF0
FF801FE0
FF803FE0
7FC07FC0
7FF1FFC0
7FFFFF80
3FFFFF00
3FFFFE00
1FFFFC00
0FFFF000
07FFC000
00FE0000
ENDCHAR
STARTCHAR 00F6
ENCODING 246
SWIDTH 495 0
DWIDTH 33 0
BBX 32 46 4 -1
BITMAP
0007003C
001FC07E
001FC0FF
003FE1FF
003FE1FF
003FE1FF
003FC1FE
003F80FE
000F0078
00000000
00000000
00000000
00000000
0003FE00
001FFF80
007FFFC0
00FFFFE0
01FFFFF0
03FFFFF8
07FFFFF8
0FFC1FF8
0FF80FF8
1FF007FC
1FE007FC
3FE007FC
3FC007FC
7FC007FC
7F8007FC
7F8007F8
7F8007F8
7F8007F8
FF8007F8
FF800FF8
FF800FF0
FF801FF0
FF801FE0
FF803FE0
7FC07FC0
7FF1FFC0
7FFFFF80
3FFFFF00
3FFFFE00
1FFFFC00
0FFFF000
07FFC000
00FE0000
ENDCHAR
STARTCHAR 00F7
ENCODING 247
SWIDTH 495 0
DWIDTH 33 0
BBX 30 35 5 0
BITMAP
00002000
0001FC00
0003FC00
0003FE00
0007FE00
0007FE00
0007FE00
0007FC00
0003FC00
0001F000
00000000
00000000
00000000
00000000
3FFFFFFC
3FFFFFFC
7FFFFFF8
7FFFFFF8
7FFFFFF8
7FFFFFF8
FFFFFFF8
00000000
00000000
00000000
00000000
003E0000
00FF0000
00FF8000
01FF8000
01FF8000
01FF8000
01FF0000
00FF0000
00FE0000
00100000
ENDCHAR
STARTCHAR 00F8
ENCODING 248
SWIDTH 495 0
DWIDTH 33 0
BBX 31 37 5 -3
BITMAP
00000018
0000003C
0003FF7E
000FFFFE
003FFFFC
007FFFF8
00FFFFF8
01FFFFF8
03FFFFF8
07FC0FFC
0FF81FFC
0FF03FFC
1FE07FFC
1FE0FFFC
3FC0FFFC
3FC1FBFC
3F83FBFC
7F87F3FC
7F8FE3FC
7F9FC3FC
7FBF83F8
7FFF07F8
7FFE07F8
7FFC0FF0
7FF80FF0
7FF81FE0
7FF03FE0
7FE0FFC0
3FFFFF80
3FFFFF80
1FFFFF00
3FFFFC00
7FFFF800
FFFFE000
7C7F0000
38000000
10000000
ENDCHAR
STARTCHAR 00F9
ENCODING 249
SWIDTH 495 0
DWIDTH 33 0
BBX 30 47 5 -1
BITMAP
00060000
00070000
000F8000
000FE000
001FF000
003FF800
003FFE00
000FFF00
0003FF00
0000FE00
00003E00
00000C00
00000000
00000000
00000000
07F803FC
0FF807FC
0FF007F8
0FF007F8
0FF007F8
1FF00FF8
1FE00FF0
1FE00FF0
1FE00FF0
3FE01FF0
3FC01FE0
3FC01FE0
3FC01FE0
7FC03FE0
7F803FC0
7F803FC0
7F803FC0
FF803FC0
FF807F80
FF007F80
FF007F80
FF007F80
FF00FF80
FF81FF80
FFEFFF80
FFFFFF80
7FFFFF80
7FFFFFC0
3FFFFFC0
3FFFBFC0
0FFE1F80
01F00000
ENDCHAR
STARTCHAR 00FA
ENCODING 250
SWIDTH 495 0
DWIDTH 33 0
BBX 30 47 5 -1
BITMAP
00000200
00000700
00001F80
00003F80
00007FC0
0001FFC0
0003FFC0
0007FF00
0007FE00
0007F800
0003E000
00018000
00000000
00000000
00000000
07F803FC
0FF807FC
0FF007F8
0FF007F8
0FF007F8
1FF00FF8
1FE00FF0
1FE00FF0
1FE00FF0
3FE01FF0
3FC01FE0
3FC01FE0
3FC01FE0
7FC03FE0
7F803FC0
7F803FC0
7F803FC0
FF803FC0
FF807F80
FF007F80
FF007F80
FF007F80
FF00FF80
FF81FF80
FFEFFF80
FFFFFF80
7FFFFF80
7FFFFFC0
3FFFFFC0
3FFFBFC0
0FFE1F80
01F00000
ENDCHAR
STARTCHAR 00FB
ENCODING 251
SWIDTH 495 0
DWIDTH 33 0
BBX 30 47 5 -1
BITMAP
00000800
00001C00
00007E00
0000FE00
0001FF00
0003FF80
000FFFC0
001FEFE0
003FC7F0
001F03E0
000E01C0
00080080
00000000
00000000
00000000
07F803FC
0FF807FC
0FF007F8
0FF007F8
0FF007F8
1FF00FF8
1FE00FF0
1FE00FF0
1FE00FF0
3FE01FF0
3FC01FE0
3FC01FE0
3FC01FE0
7FC03FE0
7F803FC0
7F803FC0
7F803FC0
FF803FC0
FF807F80
FF007F80
FF007F80
FF007F80
FF00FF80
FF81FF80
FFEFFF80
FFFFFF80
7FFFFF80
7FFFFFC0
3FFFFFC0
3FFFBFC0
0FFE1F80
01F00000
ENDCHAR
STARTCHAR 00FC
ENCODING 252
SWIDTH 495 0
DWIDTH 33 0
BBX 30 46 5 -1
BITMAP
001C00F0
007F01F8
007F03FC
00FF87FC
00FF87FC
00FF07FC
00FF07F8
00FE03F0
007C01E0
00000000
00000000
00000000
00000000
00000000
07F803FC
0FF807FC
0FF007F8
0FF007F8
0FF007F8
1FF00FF8
1FE00FF0
1FE00FF0
1FE00FF0
3FE01FF0
3FC01FE0
3FC01FE0
3FC01FE0
7FC03FE0
7F803FC0
7F803FC0
7F803FC0
FF803FC0
FF807F80
FF007F80
FF007F80
FF007F80
FF00FF80
FF81FF80
FFEFFF80
FFFFFF80
7FFFFF80
7FFFFFC0
3FFFFFC0
3FFFBFC0
0FFE1F80
01F00000
ENDCHAR
STARTCHAR 00FD
ENCODING 253
SWIDTH 495 0
DWIDTH 33 0
BBX 39 57 -3 -11
BITMAP
0000000200
0000000700
0000001F00
0000003F80
0000007FC0
000001FFC0
000003FFC0
000007FF00
000007FC00
000007F800
000003E000
0000018000
0000000000
0000000000
0000000000
001FE001FE
001FE003FE
001FE003FE
001FE003FC
001FE007FC
001FE007F8
001FE007F8
001FE00FF8
001FF00FF0
001FF01FF0
001FF01FE0
000FF01FE0
000FF03FC0
000FF03FC0
000FF07F80
000FF07F80
000FF0FF00
000FF0FF00
0007F9FE00
0007F9FE00
0007FBFC00
0007FFFC00
0007FFF800
0003FFF000
0003FFF000
0003FFE000
0003FFC000
0003FFC000
0001FF8000
0001FF0000
0001FF0000
0003FE0000
0007FC0000
000FF80000
001FF80000
3FFFF00000
3FFFE00000
7FFFC00000
7FFF000000
7FFE000000
FFF8000000
3FE0000000
ENDCHAR
STARTCHAR 00FE
ENCODING 254
SWIDTH 495 0
DWIDTH 33 0
BBX 34 57 0 -11
BITMAP
00007C0000
0007F80000
0007F80000
0007F80000
0007F80000
000FF00000
000FF00000
000FF00000
000FF00000
001FF00000
001FE00000
001FE00000
001FE00000
003FE00000
003FDFE000
003FFFF800
003FFFFC00
007FFFFE00
007FFFFF00
007FFFFF80
007FFFFF80
00FF80FF80
00FF007F80
00FF007FC0
00FF003FC0
01FF003FC0
01FE003FC0
01FE003FC0
01FE007FC0
03FE007F80
03FC007F80
03FC007F80
03FC00FF80
03FC00FF00
07FC01FF00
07F801FF00
07F803FE00
07F80FFE00
0FF81FFC00
0FF9FFF800
0FFFFFF800
0FFFFFF000
1FFFFFE000
1FFFFF8000
1FFFFF0000
1FFFF80000
3FFF000000
3FC0000000
3FC0000000
3FC0000000
7FC0000000
7F80000000
7F80000000
7F80000000
FF80000000
FF00000000
FF00000000
ENDCHAR
STARTCHAR 00FF
ENCODING 255
SWIDTH 495 0
DWIDTH 33 0
BBX 39 56 -3 -11
BITMAP
00001C00F0
00007F03F8
0000FF03FC
0000FF87FC
0000FF87FC
0000FF07FC
0000FF07F8
0000FE03F0
00007C01E0
0000000000
0000000000
0000000000
0000000000
0000000000
001FE001FE
001FE003FE
001FE003FE
001FE003FC
001FE007FC
001FE007F8
001FE007F8
001FE00FF8
001FF00FF0
001FF01FF0
001FF01FE0
000FF01FE0
000FF03FC0
000FF03FC0
000FF07F80
000FF07F80
000FF0FF00
000FF0FF00
0007F9FE00
0007F9FE00
0007FBFC00
0007FFFC00
0007FFF800
0003FFF000
0003FFF000
0003FFE000
0003FFC000
0003FFC000
0001FF8000
0001FF0000
0001FF0000
0003FE0000
0007FC0000
000FF80000
001FF80000
3FFFF00000
3FFFE00000
7FFFC00000
7FFF000000
7FFE000000
FFF8000000
3FE0000000
ENDCHAR
STARTCHAR 0100
ENCODING 256
SWIDTH 495 0
DWIDTH 33 0
BBX 37 52 0 0
BITMAP
00003FFFF8
00003FFFF8
00007FFFF8
00007FFFF0
00007FFFF0
0000000000
0000000000
0000000000
0000000000
0000000000
0000000000
00000FFC00
00000FFC00
00001FFC00
00001FFC00
00003FFC00
00007FFC00
00007FFC00
0000FFFC00
0000FEFC00
0001FCFE00
0001FCFE00
0003F8FE00
0007F8FE00
0007F0FE00
000FF0FE00
000FE0FE00
001FE0FE00
001FC0FE00
003FC0FE00
003F80FE00
007F80FE00
007F80FE00
00FF00FE00
00FF00FE00
01FE00FE00
01FFFFFE00
03FFFFFF00
03FFFFFF00
07FFFFFF00
07FFFFFF00
0FFFFFFF00
0FF000FF00
0FF000FF00
1FE000FF00
1FE000FF00
3FC000FF00
3FC000FF00
7F8000FF00
7F8000FF00
FF8001FF00
FF0001FF00
ENDCHAR
STARTCHAR 0101
ENCODING 257
SWIDTH 495 0
DWIDTH 33 0
BBX 33 44 4 -1
BITMAP
0003FFFF80
0003FFFF80
0007FFFF80
0007FFFF00
0007FFFF00
0007FFFF00
0000000000
0000000000
0000000000
0000000000
0000000000
0001FF8000
000FFFF800
003FFFFE00
007FFFFE00
01FFFFFC00
03FFFFFC00
07FFFFFC00
0FFE03FC00
0FFC07F800
1FF007F800
1FE007F800
3FE007F800
3FC00FF800
7FC00FF000
7F800FF000
7F800FF000
7F801FF000
FF801FE000
FF001FE000
FF001FE000
FF003FE000
FF003FC000
FF803FC000
FF803FC000
7FC0FFC000
7FE1FFC000
7FFFFFC000
3FFFFFE000
3FFFFFE000
1FFFFFE000
0FFFCFE000
07FF0FE000
00F8080000
ENDCHAR
STARTCHAR 0102
ENCODING 258
SWIDTH 495 0
DWIDTH 33 0
BBX 37 55 0 0
BITMAP
00001F81F8
00001F81F8
00001F81F8
00001F83F8
00001FFFF0
00001FFFF0
00000FFFE0
00000FFFC0
000007FF80
000001FE00
0000000000
0000000000
0000000000
0000000000
00000FFC00
00000FFC00
00001FFC00
00001FFC00
00003FFC00
00007FFC00
00007FFC00
0000FFFC00
0000FEFC00
0001FCFE00
0001FCFE00
0003F8FE00
0007F8FE00
0007F0FE00
000FF0FE00
000FE0FE00
001FE0FE00
001FC0FE00
003FC0FE00
003F80FE00
007F80FE00
007F80FE00
00FF00FE00
00FF00FE00
01FE00FE00
01FFFFFE00
03FFFFFF00
03FFFFFF00
07FFFFFF00
07FFFFFF00
0FFFFFFF00
0FF000FF00
0FF000FF00
1FE000FF00
1FE000FF00
3FC000FF00
3FC000FF00
7F8000FF00
7F8000FF00
FF8001FF00
FF0001FF00
ENDCHAR
STARTCHAR 0103
ENCODING 259
SWIDTH 495 0
DWIDTH 33 0
BBX 32 46 4 -1
BITMAP
0003F03F
0007F03F
0007F07F
0003F8FE
0003FFFE
0003FFFC
0001FFF8
0000FFF0
00007FC0
00000000
00000000
00000000
00000000
0001FF80
000FFFF8
003FFFFE
007FFFFE
01FFFFFC
03FFFFFC
07FFFFFC
0FFE03FC
0FFC07F8
1FF007F8
1FE007F8
3FE007F8
3FC00FF8
7FC00FF0
7F800FF0
7F800FF0
7F801FF0
FF801FE0
FF001FE0
FF001FE0
FF003FE0
FF003FC0
FF803FC0
FF803FC0
7FC0FFC0
7FE1FFC0
7FFFFFC0
3FFFFFE0
3FFFFFE0
1FFFFFE0
0FFFCFE0
07FF0FE0
00F80800
ENDCHAR
STARTCHAR 0104
ENCODING 260
SWIDTH 495 0
DWIDTH 33 0
BBX 32 52 1 -11
BITMAP
00000FF8
00000FFC
00001FFC
00003FFC
00003FFC
00007FFC
00007FFC
0000FFFC
0001FFFC
0001FDFC
0003FDFC
0003F9FC
0007F9FE
0007F0FE
000FF0FE
000FE0FE
001FE0FE
001FC0FE
003FC0FE
003F80FE
007F80FE
007F00FE
00FF00FE
00FE00FE
01FE00FE
01FFFFFE
03FFFFFE
03FFFFFE
07FFFFFE
07FFFFFE
0FFFFFFE
0FF000FE
1FE001FE
1FE001FE
3FC001FF
3FC001FF
7FC001FF
7F8001FF
7F8001FF
FF0001FF
FF0001FF
000000FE
000003FC
000007F0
00000FE0
00001FC0
00003FC0
00003FC4
00003FFC
00003FFC
00003FFC
00000FFC
ENDCHAR
STARTCHAR 0105
ENCODING 261
SWIDTH 495 0
DWIDTH 33 0
BBX 31 43 4 -11
BITMAP
0001FF80
000FFFF8
003FFFFE
007FFFFE
01FFFFFC
03FFFFFC
07FFFFFC
0FFE03FC
0FFC07F8
1FF007F8
1FE007F8
3FE007F8
3FC00FF8
7FC00FF0
7F800FF0
7F800FF0
7F801FF0
FF801FE0
FF001FE0
FF001FE0
FF003FE0
FF003FC0
FF803FC0
FF803FC0
7FC0FFC0
7FE1FFC0
7FFFFFC0
3FFFFFE0
3FFFFFE0
1FFFFFE0
0FFFCFE0
07FF0FE0
00F81FC0
00007F80
0000FE00
0001FC00
0003FC00
0007F800
0007F8C0
0007FFC0
0007FF80
0007FF80
0001FF80
ENDCHAR
STARTCHAR 0106
ENCODING 262
SWIDTH 495 0
DWIDTH 33 0
BBX 32 56 6 -1
BITMAP
00000040
000001E0
000003F0
000007F0
00001FF8
00003FFC
00007FF8
0001FFE0
0000FF80
00007E00
00007800
00002000
00000000
00007FE0
0003FFFC
000FFFFE
001FFFFF
007FFFFE
00FFFFFE
01FFFFFC
03FFC07C
03FF0008
07FE0000
0FFC0000
0FF80000
1FF00000
1FF00000
3FE00000
3FE00000
3FC00000
7FC00000
7F800000
7F800000
7F800000
FF800000
FF800000
FF000000
FF000000
FF000000
FF000000
FF000000
FF000000
FF000000
FF000000
FF800000
FF800000
FFC00000
7FE00300
7FF83F00
3FFFFF00
3FFFFF00
1FFFFF80
0FFFFF80
07FFFF00
03FFF800
003FC000
ENDCHAR
STARTCHAR 0107
ENCODING 263
SWIDTH 495 0
DWIDTH 33 0
BBX 30 47 5 -1
BITMAP
00000020
000000E0
000001F0
000003F8
00000FF8
00001FFC
00003FFC
0000FFF0
0000FFC0
00007F00
00003C00
00003000
00000000
00000000
0000FFE0
000FFFFC
003FFFFC
007FFFFC
01FFFFF8
03FFFFF8
07FFFFF0
0FFF8070
1FFE0000
1FF80000
3FF00000
3FE00000
7FC00000
7FC00000
7F800000
7F800000
FF800000
FF800000
FF000000
FF000000
FF000000
FF800000
FF800000
FFC00000
7FE00180
7FFF3F80
3FFFFF80
3FFFFF80
1FFFFF80
0FFFFF80
07FFFF80
01FFFE00
001FE000
ENDCHAR
STARTCHAR 0108
ENCODING 264
SWIDTH 495 0
DWIDTH 33 0
BBX 32 56 6 -1
BITMAP
00000080
000003C0
000007E0
00000FF0
00001FF8
00007FFC
0000FFFC
0001FEFE
0003FC7F
0001F03E
0000E01C
00000008
00000000
00007FE0
0003FFFC
000FFFFE
001FFFFF
007FFFFE
00FFFFFE
01FFFFFC
03FFC07C
03FF0008
07FE0000
0FFC0000
0FF80000
1FF00000
1FF00000
3FE00000
3FE00000
3FC00000
7FC00000
7F800000
7F800000
7F800000
FF800000
FF800000
FF000000
FF000000
FF000000
FF000000
FF000000
FF000000
FF000000
FF000000
FF800000
FF800000
FFC00000
7FE00300
7FF83F00
3FFFFF00
3FFFFF00
1FFFFF80
0FFFFF80
07FFFF00
03FFF800
003FC000
ENDCHAR
STARTCHAR 0109
ENCODING 265
SWIDTH 495 0
DWIDTH 33 0
BBX 30 47 5 -1
BITMAP
00000100
00000780
00000FC0
00001FC0
00003FE0
0000FFF0
0001FFF8
0003FFFC
0007F9FC
0003E07C
0003C038
00010010
00000000
00000000
0000FFE0
000FFFFC
003FFFFC
007FFFFC
01FFFFF8
03FFFFF8
07FFFFF0
0FFF8070
1FFE0000
1FF80000
3FF00000
3FE00000
7FC00000
7FC00000
7F800000
7F800000
FF800000
FF800000
FF000000
FF000000
FF000000
FF800000
FF800000
FFC00000
7FE00180
7FFF3F80
3FFFFF80
3FFFFF80
1FFFFF80
0FFFFF80
07FFFF80
01FFFE00
001FE000
ENDCHAR
STARTCHAR 010A
ENCODING 266
SWIDTH 495 0
DWIDTH 33 0
BBX 32 55 6 -1
BITMAP
00000FC0
00001FE0
00003FE0
00003FE0
00003FE0
00003FE0
00003FE0
00001FC0
00000F00
00000000
00000000
00000000
00007FE0
0003FFFC
000FFFFE
001FFFFF
007FFFFE
00FFFFFE
01FFFFFC
03FFC07C
03FF0008
07FE0000
0FFC0000
0FF80000
1FF00000
1FF00000
3FE00000
3FE00000
3FC00000
7FC00000
7F800000
7F800000
7F800000
FF800000
FF800000
FF000000
FF000000
FF000000
FF000000
FF000000
FF000000
FF000000
FF000000
FF800000
FF800000
FFC00000
7FE00300
7FF83F00
3FFFFF00
3FFFFF00
1FFFFF80
0FFFFF80
07FFFF00
03FFF800
003FC000
ENDCHAR
STARTCHAR 010B
ENCODING 267
SWIDTH 495 0
DWIDTH 33 0
BBX 30 46 5 -1
BITMAP
00000F00
00001FC0
00003FC0
00007FC0
00007FE0
00007FC0
00007FC0
00003F80
00001F00
00000000
00000000
00000000
00000000
0000FFE0
000FFFFC
003FFFFC
007FFFFC
01FFFFF8
03FFFFF8
07FFFFF0
0FFF8070
1FFE0000
1FF80000
3FF00000
3FE00000
7FC00000
7FC00000
7F800000
7F800000
FF800000
FF800000
FF000000
FF000000
FF000000
FF800000
FF800000
FFC00000
7FE00180
7FFF3F80
3FFFFF80
3FFFFF80
1FFFFF80
0FFFFF80
07FFFF80
01FFFE00
001FE000
ENDCHAR
STARTCHAR 010C
ENCODING 268
SWIDTH 495 0
DWIDTH 33 0
BBX 32 56 6 -1
BITMAP
00006006
0000F01E
0001F83F
0001FCFF
0000FFFE
00007FFC
00003FF8
00001FE0
00001FC0
00000F80
00000700
00000000
00000000
00007FE0
0003FFFC
000FFFFE
001FFFFF
007FFFFE
00FFFFFE
01FFFFFC
03FFC07C
03FF0008
07FE0000
0FFC0000
0FF80000
1FF00000
1FF00000
3FE00000
3FE00000
3FC00000
7FC00000
7F800000
7F800000
7F800000
FF800000
FF800000
FF000000
FF000000
FF000000
FF000000
FF000000
FF000000
FF000000
FF000000
FF800000
FF800000
FFC00000
7FE00300
7FF83F00
3FFFFF00
3FFFFF00
1FFFFF80
0FFFFF80
07FFFF00
03FFF800
003FC000
ENDCHAR
STARTCHAR 010D
ENCODING 269
SWIDTH 495 0
DWIDTH 33 0
BBX 32 47 5 -1
BITMAP
0000400C
0000E01C
0003F07E
0003F8FF
0001FFFE
0000FFF8
00007FF0
00003FE0
00003FC0
00001F00
00000E00
00000400
00000000
00000000
0000FFE0
000FFFFC
003FFFFC
007FFFFC
01FFFFF8
03FFFFF8
07FFFFF0
0FFF8070
1FFE0000
1FF80000
3FF00000
3FE00000
7FC00000
7FC00000
7F800000
7F800000
FF800000
FF800000
FF000000
FF000000
FF000000
FF800000
FF800000
FFC00000
7FE00180
7FFF3F80
3FFFFF80
3FFFFF80
1FFFFF80
0FFFFF80
07FFFF80
01FFFE00
001FE000
ENDCHAR
STARTCHAR 010E
ENCODING 270
SWIDTH 495 0
DWIDTH 33 0
BBX 33 56 2 -1
BITMAP
0000600400
0000F01E00
0001F83F00
0001FCFF00
0000FFFE00
00007FFC00
00003FF000
00003FE000
00001FC000
00000F8000
0000060000
0000000000
0000000000
0003FC0000
003FFFC000
007FFFF000
007FFFF800
007FFFFC00
007FFFFE00
007FFFFE00
00FFCFFF00
00FF01FF00
00FF00FF80
00FF00FF80
01FF007F80
01FE007F80
01FE007F80
01FE007F80
03FE007F80
03FC007F80
03FC007F80
03FC007F80
07FC007F80
07F800FF80
07F800FF80
07F800FF80
0FF800FF00
0FF000FF00
0FF001FF00
0FF001FF00
1FF003FE00
1FE003FE00
1FE007FC00
1FE007FC00
3FE00FFC00
3FC01FF800
3FC03FF000
3FC0FFF000
7FFFFFE000
7FFFFFC000
7FFFFF8000
7FFFFE0000
7FFFFC0000
FFFFF00000
FFFF800000
0070000000
ENDCHAR
STARTCHAR 010F
ENCODING 271
SWIDTH 495 0
DWIDTH 33 0
BBX 42 47 2 -1
BITMAP
0000000F1FC0
000000FF3FC0
000001FF3F80
000001FE3F80
000001FE3F80
000001FE3F00
000003FE7F00
000003FC7E00
000003FC7E00
000003FC7E00
000003FCFC00
000007F8FC00
000007F8FC00
000007F8F800
0001F7F80000
001FFFF00000
007FFFF00000
00FFFFF00000
01FFFFF00000
03FFFFF00000
07FFFFE00000
0FFC1FE00000
0FF81FE00000
1FF03FE00000
3FE03FC00000
3FC03FC00000
3FC03FC00000
7F807FC00000
7F807F800000
7F807F800000
7F807F800000
FF80FF800000
FF00FF000000
FF00FF000000
FF00FF000000
FF00FF000000
FF81FF000000
FF81FF000000
FF83FF000000
7FCFFF000000
7FFFFF000000
7FFFFF000000
3FFFFF000000
3FFFFF000000
1FFE7F800000
0FFC7F000000
03E000000000
ENDCHAR
STARTCHAR 0110
ENCODING 272
SWIDTH 495 0
DWIDTH 33 0
BBX 32 43 3 -1
BITMAP
0003FC00
003FFF80
003FFFE0
007FFFF0
007FFFF8
007FFFFC
007FFFFC
00FF8FFE
00FF03FE
00FF01FF
00FF01FF
00FF00FF
01FE00FF
01FE00FF
01FE00FF
01FE00FF
03FC00FF
3FFFC0FF
3FFFC0FF
3FFFC0FF
3FFFC0FF
7FFF81FF
7FFF81FF
7FFF81FE
0FF001FE
0FF003FE
0FF003FE
0FF003FC
1FF007FC
1FE007F8
1FE00FF8
1FE01FF8
3FE03FF0
3FC07FE0
3FC1FFE0
3FFFFFC0
3FFFFF80
7FFFFF00
7FFFFE00
7FFFF800
7FFFE000
FFFF8000
01400000
ENDCHAR
STARTCHAR 0111
ENCODING 273
SWIDTH 495 0
DWIDTH 33 0
BBX 37 47 4 -1
BITMAP
00000007C0
0000007F80
0000007F80
0000007F80
000000FF80
0001FFFFF8
0003FFFFF8
0003FFFFF0
0003FFFFF0
0003FFFFF0
0007FFFFF0
000001FE00
000001FE00
000003FC00
0000FBFC00
000FFFFC00
003FFFFC00
00FFFFF800
01FFFFF800
03FFFFF800
07FFFFF800
0FFE0FF800
0FF80FF000
1FF00FF000
3FE00FF000
3FE01FF000
3FC01FE000
7FC01FE000
7F801FE000
7F803FE000
7F803FC000
FF803FC000
FF003FC000
FF007FC000
FF007F8000
FF007F8000
FF807F8000
FF80FF8000
7F81FF8000
7FE3FF8000
7FFFFF8000
7FFFFF8000
3FFFFFC000
1FFFFFC000
1FFFBFC000
07FE1F8000
01F0000000
ENDCHAR
STARTCHAR 0112
ENCODING 274
SWIDTH 495 0
DWIDTH 33 0
BBX 34 52 4 0
BITMAP
0001FFFFC0
0001FFFFC0
0001FFFFC0
0003FFFFC0
0003FFFF80
0000000000
0000000000
0000000000
0000000000
0000000000
0000000000
007FFFFFC0
007FFFFF80
007FFFFF80
00FFFFFF80
00FFFFFF80
00FFFFFF80
00FFFFFF00
00FF000000
01FF000000
01FE000000
01FE000000
01FE000000
03FE000000
03FC000000
03FC000000
03FC000000
07FFFFF000
07FFFFE000
07FFFFE000
07FFFFE000
0FFFFFE000
0FFFFFE000
0FFFFFC000
0FF0000000
1FF0000000
1FE0000000
1FE0000000
1FE0000000
1FE0000000
3FC0000000
3FC0000000
3FC0000000
3FC0000000
7FC0000000
7FFFFFE000
7FFFFFE000
7FFFFFE000
FFFFFFC000
FFFFFFC000
FFFFFFC000
FFFFFFC000
ENDCHAR
STARTCHAR 0113
ENCODING 275
SWIDTH 495 0
DWIDTH 33 0
BBX 32 44 5 -1
BITMAP
0007FFFF
000FFFFE
000FFFFE
000FFFFE
000FFFFE
001FFFFE
00000000
00000000
00000000
00000000
00000000
0003FF00
001FFFC0
007FFFE0
00FFFFF0
01FFFFF8
03FFFFF8
07FF9FFC
0FF807FC
1FF003FC
1FE003FC
3FC003FC
3FC007F8
7F800FF8
7F801FF8
7F00FFF0
FFFFFFE0
FFFFFFC0
FFFFFF80
FFFFFE00
FFFFF000
FFFC0000
FF000000
FF000000
FF800000
7FC00080
7FF00780
7FFFFF80
3FFFFF80
1FFFFF80
0FFFFF80
07FFFF80
01FFFE00
003FC000
ENDCHAR
STARTCHAR 0114
ENCODING 276
SWIDTH 495 0
DWIDTH 33 0
BBX 35 55 4 0
BITMAP
0000FC07E0
0000FC0FE0
0000FC0FC0
0000FC1FC0
0000FFFFC0
0000FFFF80
00007FFF00
00003FFE00
00001FFC00
00000FF000
0000000000
0000000000
0000000000
0000000000
007FFFFFC0
007FFFFF80
007FFFFF80
00FFFFFF80
00FFFFFF80
00FFFFFF80
00FFFFFF00
00FF000000
01FF000000
01FE000000
01FE000000
01FE000000
03FE000000
03FC000000
03FC000000
03FC000000
07FFFFF000
07FFFFE000
07FFFFE000
07FFFFE000
0FFFFFE000
0FFFFFE000
0FFFFFC000
0FF0000000
1FF0000000
1FE0000000
1FE0000000
1FE0000000
1FE0000000
3FC0000000
3FC0000000
3FC0000000
3FC0000000
7FC0000000
7FFFFFE000
7FFFFFE000
7FFFFFE000
FFFFFFC000
FFFFFFC000
FFFFFFC000
FFFFFFC000
ENDCHAR
STARTCHAR 0115
ENCODING 277
SWIDTH 495 0
DWIDTH 33 0
BBX 32 46 5 -1
BITMAP
0007E03F
0007E07F
0007F07E
0007F9FE
0003FFFE
0003FFFC
0001FFF8
0000FFF0
00007FC0
00000000
00000000
00000000
00000000
0003FF00
001FFFC0
007FFFE0
00FFFFF0
01FFFFF8
03FFFFF8
07FF9FFC
0FF807FC
1FF003FC
1FE003FC
3FC003FC
3FC007F8
7F800FF8
7F801FF8
7F00FFF0
FFFFFFE0
FFFFFFC0
FFFFFF80
FFFFFE00
FFFFF000
FFFC0000
FF000000
FF000000
FF800000
7FC00080
7FF00780
7FFFFF80
3FFFFF80
1FFFFF80
0FFFFF80
07FFFF80
01FFFE00
003FC000
ENDCHAR
STARTCHAR 0116
ENCODING 278
SWIDTH 495 0
DWIDTH 33 0
BBX 34 54 4 0
BITMAP
000003E000
00000FF000
00000FF800
00001FF800
00001FF800
00001FF000
00000FF000
00000FE000
000007C000
0000000000
0000000000
0000000000
0000000000
007FFFFFC0
007FFFFF80
007FFFFF80
00FFFFFF80
00FFFFFF80
00FFFFFF80
00FFFFFF00
00FF000000
01FF000000
01FE000000
01FE000000
01FE000000
03FE000000
03FC000000
03FC000000
03FC000000
07FFFFF000
07FFFFE000
07FFFFE000
07FFFFE000
0FFFFFE000
0FFFFFE000
0FFFFFC000
0FF0000000
1FF0000000
1FE0000000
1FE0000000
1FE0000000
1FE0000000
3FC0000000
3FC0000000
3FC0000000
3FC0000000
7FC0000000
7FFFFFE000
7FFFFFE000
7FFFFFE000
FFFFFFC000
FFFFFFC000
FFFFFFC000
FFFFFFC000
ENDCHAR
STARTCHAR 0117
ENCODING 279
SWIDTH 495 0
DWIDTH 33 0
BBX 30 46 5 -1
BITMAP
00000F00
00003F80
00007FC0
00007FC0
00007FC0
00007FC0
00007FC0
00007F80
00003F00
00000000
00000000
00000000
00000000
0003FF00
001FFFC0
007FFFE0
00FFFFF0
01FFFFF8
03FFFFF8
07FF9FFC
0FF807FC
1FF003FC
1FE003FC
3FC003FC
3FC007F8
7F800FF8
7F801FF8
7F00FFF0
FFFFFFE0
FFFFFFC0
FFFFFF80
FFFFFE00
FFFFF000
FFFC0000
FF000000
FF000000
FF800000
7FC00080
7FF00780
7FFFFF80
3FFFFF80
1FFFFF80
0FFFFF80
07FFFF80
01FFFE00
003FC000
ENDCHAR
STARTCHAR 0118
ENCODING 280
SWIDTH 495 0
DWIDTH 33 0
BBX 34 52 4 -11
BITMAP
007FFFFFC0
007FFFFF80
007FFFFF80
00FFFFFF80
00FFFFFF80
00FFFFFF80
00FFFFFF00
00FF000000
01FF000000
01FE000000
01FE000000
01FE000000
03FE000000
03FC000000
03FC000000
03FC000000
07FFFFF000
07FFFFE000
07FFFFE000
07FFFFE000
0FFFFFE000
0FFFFFE000
0FFFFFC000
0FF0000000
1FF0000000
1FE0000000
1FE0000000
1FE0000000
1FE0000000
3FC0000000
3FC0000000
3FC0000000
3FC0000000
7FC0000000
7FFFFFE000
7FFFFFE000
7FFFFFE000
FFFFFFC000
FFFFFFC000
FFFFFFC000
FFFFFFC000
00007F8000
0000FE0000
0001FC0000
0003F80000
0007F00000
000FF00000
000FF10000
000FFF0000
000FFF0000
000FFF0000
0007FF0000
ENDCHAR
STARTCHAR 0119
ENCODING 281
SWIDTH 495 0
DWIDTH 33 0
BBX 30 43 5 -11
BITMAP
0003FF00
001FFFC0
007FFFE0
00FFFFF0
01FFFFF8
03FFFFF8
07FF9FFC
0FF807FC
1FF003FC
1FE003FC
3FC003FC
3FC007F8
7F800FF8
7F801FF8
7F00FFF0
FFFFFFE0
FFFFFFC0
FFFFFF80
FFFFFE00
FFFFF000
FFFC0000
FF000000
FF000000
FF800000
7FC00080
7FF00780
7FFFFF80
3FFFFF80
1FFFFF80
0FFFFF80
07FFFF80
01FFFF00
003FFC00
0007F800
000FF000
001FE000
003FC000
003F8000
007FC400
007FFC00
007FFC00
003FFC00
001FF800
ENDCHAR
STARTCHAR 011A
ENCODING 282
SWIDTH 495 0
DWIDTH 33 0
BBX 34 55 4 0
BITMAP
0000180300
00003C0780
0000FE1F80
00007F3FC0
00007FFF80
00003FFE00
00001FFC00
00000FF800
000007F000
000003C000
0000038000
0000010000
0000000000
0000000000
007FFFFFC0
007FFFFF80
007FFFFF80
00FFFFFF80
00FFFFFF80
00FFFFFF80
00FFFFFF00
00FF000000
01FF000000
01FE000000
01FE000000
01FE000000
03FE000000
03FC000000
03FC000000
03FC000000
07FFFFF000
07FFFFE000
07FFFFE000
07FFFFE000
0FFFFFE000
0FFFFFE000
0FFFFFC000
0FF0000000
1FF0000000
1FE0000000
1FE0000000
1FE0000000
1FE0000000
3FC0000000
3FC0000000
3FC0000000
3FC0000000
7FC0000000
7FFFFFE000
7FFFFFE000
7FFFFFE000
FFFFFFC000
FFFFFFC000
FFFFFFC000
FFFFFFC000
ENDCHAR
STARTCHAR 011B
ENCODING 283
SWIDTH 495 0
DWIDTH 33 0
BBX 30 47 5 -1
BITMAP
00010010
00038078
0007C0F8
0007F3FC
0007FFF8
0003FFF0
0001FFC0
0000FF80
00007F00
00007E00
00003800
00001000
00000000
00000000
0003FF00
001FFFC0
007FFFE0
00FFFFF0
01FFFFF8
03FFFFF8
07FF9FFC
0FF807FC
1FF003FC
1FE003FC
3FC003FC
3FC007F8
7F800FF8
7F801FF8
7F00FFF0
FFFFFFE0
FFFFFFC0
FFFFFF80
FFFFFE00
FFFFF000
FFFC0000
FF000000
FF000000
FF800000
7FC00080
7FF00780
7FFFFF80
3FFFFF80
1FFFFF80
0FFFFF80
07FFFF80
01FFFE00
003FC000
ENDCHAR
STARTCHAR 011C
ENCODING 284
SWIDTH 495 0
DWIDTH 33 0
BBX 33 56 5 -1
BITMAP
0000008000
000003C000
000007E000
00000FF000
00001FF800
00007FF800
0000FFFC00
0001FEFE00
0003F87F00
0001F03E00
0000E01C00
0000000800
0000000000
00007FF000
0001FFFE00
0007FFFF00
001FFFFF80
003FFFFF00
007FFFFF00
00FFFFFE00
01FFE03E00
03FF800400
03FE000000
07FC000000
0FF8000000
0FF8000000
1FF0000000
1FE0000000
3FE0000000
3FE0000000
3FC0000000
3FC0000000
7FC0000000
7F8007F800
7F8007F800
7F8007F800
7F800FF800
FF800FF000
FF000FF000
FF000FF000
FF001FF000
FF001FE000
FF801FE000
FF801FE000
FF803FE000
7F803FC000
7FC03FC000
7FE03FC000
7FF87FC000
3FFFFF8000
3FFFFF8000
1FFFFF8000
0FFFFF8000
07FFFF8000
03FFFE0000
007FC00000
ENDCHAR
STARTCHAR 011D
ENCODING 285
SWIDTH 495 0
DWIDTH 33 0
BBX 35 57 0 -11
BITMAP
0000000800
0000003C00
0000007E00
000000FE00
000001FF00
000007FF80
00000FFFC0
00001FFFE0
00003FCFE0
00001F03E0
00001E01C0
0000080080
0000000000
0000000000
00000FFE00
00007FFFC0
0001FFFFE0
0007FFFFE0
000FFFFFE0
003FFFFFE0
007FFFFFC0
007FE03FC0
00FFC03FC0
01FF003FC0
01FF007F80
03FE007F80
03FC007F80
03FC007F80
07FC00FF80
07F800FF00
07F800FF00
07F800FF00
07F801FF00
07F801FE00
07F801FE00
07FC01FE00
07FE07FE00
03FFFFFC00
03FFFFFC00
03FFFFFC00
01FFFFFC00
00FFFFF800
007FFFF800
000FC7F800
00000FF800
00000FF000
00000FF000
00001FF000
10003FE000
3E00FFE000
3FFFFFC000
7FFFFF8000
7FFFFF8000
7FFFFE0000
FFFFFC0000
3FFFF00000
07FF800000
ENDCHAR
STARTCHAR 011E
ENCODING 286
SWIDTH 495 0
DWIDTH 33 0
BBX 34 56 5 -1
BITMAP
0001F80FC0
0001F81FC0
0001F81F80
0001F83F80
0001FFFF80
0001FFFF00
0000FFFE00
00007FFC00
00003FF800
00001FE000
0000000000
0000000000
0000000000
00007FF000
0001FFFE00
0007FFFF00
001FFFFF80
003FFFFF00
007FFFFF00
00FFFFFE00
01FFE03E00
03FF800400
03FE000000
07FC000000
0FF8000000
0FF8000000
1FF0000000
1FE0000000
3FE0000000
3FE0000000
3FC0000000
3FC0000000
7FC0000000
7F8007F800
7F8007F800
7F8007F800
7F800FF800
FF800FF000
FF000FF000
FF000FF000
FF001FF000
FF001FE000
FF801FE000
FF801FE000
FF803FE000
7F803FC000
7FC03FC000
7FE03FC000
7FF87FC000
3FFFFF8000
3FFFFF8000
1FFFFF8000
0FFFFF8000
07FFFF8000
03FFFE0000
007FC00000
ENDCHAR
STARTCHAR 011F
ENCODING 287
SWIDTH 495 0
DWIDTH 33 0
BBX 37 56 0 -11
BITMAP
00001F81F8
00001F81F8
00001F83F8
00001FC7F0
00001FFFF0
00001FFFE0
00000FFFC0
000007FF80
000001FE00
0000000000
0000000000
0000000000
0000000000
00000FFE00
00007FFFC0
0001FFFFE0
0007FFFFE0
000FFFFFE0
003FFFFFE0
007FFFFFC0
007FE03FC0
00FFC03FC0
01FF003FC0
01FF007F80
03FE007F80
03FC007F80
03FC007F80
07FC00FF80
07F800FF00
07F800FF00
07F800FF00
07F801FF00
07F801FE00
07F801FE00
07FC01FE00
07FE07FE00
03FFFFFC00
03FFFFFC00
03FFFFFC00
01FFFFFC00
00FFFFF800
007FFFF800
000FC7F800
00000FF800
00000FF000
00000FF000
00001FF000
10003FE000
3E00FFE000
3FFFFFC000
7FFFFF8000
7FFFFF8000
7FFFFE0000
FFFFFC0000
3FFFF00000
07FF800000
ENDCHAR
STARTCHAR 0120
ENCODING 288
SWIDTH 495 0
DWIDTH 33 0
BBX 33 55 5 -1
BITMAP
000007E000
00000FF000
00001FF000
00001FF000
00001FF000
00001FF000
00001FF000
00000FE000
0000078000
0000000000
0000000000
0000000000
00007FF000
0001FFFE00
0007FFFF00
001FFFFF80
003FFFFF00
007FFFFF00
00FFFFFE00
01FFE03E00
03FF800400
03FE000000
07FC000000
0FF8000000
0FF8000000
1FF0000000
1FE0000000
3FE0000000
3FE0000000
3FC0000000
3FC0000000
7FC0000000
7F8007F800
7F8007F800
7F8007F800
7F800FF800
FF800FF000
FF000FF000
FF000FF000
FF001FF000
FF001FE000
FF801FE000
FF801FE000
FF803FE000
7F803FC000
7FC03FC000
7FE03FC000
7FF87FC000
3FFFFF8000
3FFFFF8000
1FFFFF8000
0FFFFF8000
07FFFF8000
03FFFE0000
007FC00000
ENDCHAR
STARTCHAR 0121
ENCODING 289
SWIDTH 495 0
DWIDTH 33 0
BBX 35 56 0 -11
BITMAP
0000007800
000000FE00
000001FE00
000003FE00
000003FF00
000003FE00
000003FE00
000001FC00
000000F800
0000000000
0000000000
0000000000
0000000000
00000FFE00
00007FFFC0
0001FFFFE0
0007FFFFE0
000FFFFFE0
003FFFFFE0
007FFFFFC0
007FE03FC0
00FFC03FC0
01FF003FC0
01FF007F80
03FE007F80
03FC007F80
03FC007F80
07FC00FF80
07F800FF00
07F800FF00
07F800FF00
07F801FF00
07F801FE00
07F801FE00
07FC01FE00
07FE07FE00
03FFFFFC00
03FFFFFC00
03FFFFFC00
01FFFFFC00
00FFFFF800
007FFFF800
000FC7F800
00000FF800
00000FF000
00000FF000
00001FF000
10003FE000
3E00FFE000
3FFFFFC000
7FFFFF8000
7FFFFF8000
7FFFFE0000
FFFFFC0000
3FFFF00000
07FF800000
ENDCHAR
STARTCHAR 0122
ENCODING 290
SWIDTH 495 0
DWIDTH 33 0
BBX 33 53 5 -11
BITMAP
00007FF000
0001FFFE00
0007FFFF00
001FFFFF80
003FFFFF00
007FFFFF00
00FFFFFE00
01FFE03E00
03FF800400
03FE000000
07FC000000
0FF8000000
0FF8000000
1FF0000000
1FE0000000
3FE0000000
3FE0000000
3FC0000000
3FC0000000
7FC0000000
7F8007F800
7F8007F800
7F8007F800
7F800FF800
FF800FF000
FF000FF000
FF000FF000
FF001FF000
FF001FE000
FF801FE000
FF801FE000
FF803FE000
7F803FC000
7FC03FC000
7FE03FC000
7FF87FC000
3FFFFF8000
3FFFFF8000
1FFFFF8000
0FFFFF8000
07FFFF8000
03FFFE0000
007FC00000
0000000000
0000000000
007E000000
007E000000
00FE000000
01FE000000
1FFC000000
1FF8000000
1FF0000000
3FC0000000
ENDCHAR
STARTCHAR 0123
ENCODING 291
SWIDTH 495 0
DWIDTH 33 0
BBX 35 58 0 -11
BITMAP
0000000300
0000001F80
0000003F80
0000007FC0
000000FF00
000000FE00
000001FC00
000001FC00
000003F800
000003F800
000003F800
0000000000
0000000000
0000000000
0000000000
00000FFE00
00007FFFC0
0001FFFFE0
0007FFFFE0
000FFFFFE0
003FFFFFE0
007FFFFFC0
007FE03FC0
00FFC03FC0
01FF003FC0
01FF007F80
03FE007F80
03FC007F80
03FC007F80
07FC00FF80
07F800FF00
07F800FF00
07F800FF00
07F801FF00
07F801FE00
07F801FE00
07FC01FE00
07FE07FE00
03FFFFFC00
03FFFFFC00
03FFFFFC00
01FFFFFC00
00FFFFF800
007FFFF800
000FC7F800
00000FF800
00000FF000
00000FF000
00001FF000
10003FE000
3E00FFE000
3FFFFFC000
7FFFFF8000
7FFFFF8000
7FFFFE0000
FFFFFC0000
3FFFF00000
07FF800000
ENDCHAR
STARTCHAR 0124
ENCODING 292
SWIDTH 495 0
DWIDTH 33 0
BBX 37 55 2 0
BITMAP
0000006000
000000F000
000001F800
000003FC00
00000FFC00
00001FFE00
00003FFF00
00007FBF80
0000FE1FC0
00007C0F80
0000300700
0000200200
0000000000
0000000000
007FC007F8
007F800FF8
007F800FF0
007F800FF0
007F800FF0
00FF001FF0
00FF001FE0
00FF001FE0
00FF001FE0
01FF003FE0
01FE003FC0
01FE003FC0
01FE003FC0
03FE003FC0
03FC007FC0
03FC007F80
03FFFFFF80
07FFFFFF80
07FFFFFF80
07FFFFFF00
07FFFFFF00
0FFFFFFF00
0FFFFFFF00
0FF001FE00
0FF001FE00
1FF001FE00
1FE003FE00
1FE003FC00
1FE003FC00
3FE003FC00
3FC007FC00
3FC007F800
3FC007F800
3FC007F800
7FC00FF800
7F800FF000
7F800FF000
7F800FF000
FF801FF000
FF001FF000
FF001FE000
ENDCHAR
STARTCHAR 0125
ENCODING 293
SWIDTH 495 0
DWIDTH 33 0
BBX 30 55 3 0
BITMAP
00000C00
00001E00
00007F00
0000FF80
0003FFC0
0007FFF0
000FF7F0
000FC3E0
000701C0
00000000
00000000
00002000
000FC000
003FC000
003FC000
007FC000
007F8000
007F8000
007F8000
00FF8000
00FF0000
00FF0000
00FF0000
01FF7F00
01FFFFE0
01FFFFF0
01FFFFF8
01FFFFF8
03FFFFFC
03FFFFFC
03FE0FFC
03FC07FC
07FC03FC
07F803FC
07F803FC
07F803FC
0FF807FC
0FF007F8
0FF007F8
0FF007F8
1FF00FF8
1FE00FF0
1FE00FF0
1FE00FF0
3FE00FF0
3FC01FF0
3FC01FE0
3FC01FE0
7FC01FE0
7F803FE0
7F803FC0
7F803FC0
7F803FC0
FF807FC0
FF007F80
ENDCHAR
STARTCHAR 0126
ENCODING 294
SWIDTH 495 0
DWIDTH 33 0
BBX 36 41 4 0
BITMAP
007F807F80
007F807F80
007F80FF80
007F80FF00
00FF00FF00
0FFFFFFFF0
0FFFFFFFE0
0FFFFFFFE0
0FFFFFFFE0
1FFFFFFFE0
1FFFFFFFC0
01FE03FC00
03FE03FC00
03FC03FC00
03FC07FC00
03FC07F800
07FFFFF800
07FFFFF800
07FFFFF800
07FFFFF800
0FFFFFF000
0FFFFFF000
0FFFFFF000
0FF01FF000
1FF01FE000
1FF01FE000
1FE01FE000
1FE03FE000
1FE03FC000
3FE03FC000
3FC03FC000
3FC07FC000
3FC07F8000
7FC07F8000
7F807F8000
7F80FF8000
7F80FF0000
FF80FF0000
FF00FF0000
FF01FF0000
FF01FE0000
ENDCHAR
STARTCHAR 0127
ENCODING 295
SWIDTH 495 0
DWIDTH 33 0
BBX 29 46 4 0
BITMAP
0003E000
003FE000
003FC000
003FC000
003FC000
03FFFFC0
03FFFFC0
07FFFFC0
07FFFF80
07FFFF80
07FFFF80
00FF0000
00FF0000
00FF0000
01FF7F00
01FFFFC0
01FFFFE0
01FFFFF0
03FFFFF0
03FFFFF8
03FFFFF8
03FC1FF8
07FC0FF8
07F80FF8
07F807F8
07F807F8
0FF807F8
0FF00FF8
0FF00FF0
0FF00FF0
0FF00FF0
1FF01FF0
1FE01FE0
1FE01FE0
1FE01FE0
3FE01FE0
3FC03FE0
3FC03FC0
3FC03FC0
7FC03FC0
7F807FC0
7F807F80
7F807F80
FF807F80
FF00FF80
FF00FF00
ENDCHAR
STARTCHAR 0128
ENCODING 296
SWIDTH 495 0
DWIDTH 33 0
BBX 36 54 2 0
BITMAP
00001F0180
00007FC3C0
0000FFFFE0
0001FFFFE0
0001FFFFC0
0003FFFFC0
0003FFFF80
0001E0FF00
0000401000
0000000000
0000000000
0000000000
0000000000
003FFFFFF0
003FFFFFF0
003FFFFFF0
007FFFFFF0
007FFFFFE0
007FFFFFE0
007FFFFFE0
00007FC000
00007F8000
00007F8000
00007F8000
0000FF8000
0000FF0000
0000FF0000
0000FF0000
0001FF0000
0001FE0000
0001FE0000
0001FE0000
0001FE0000
0003FE0000
0003FC0000
0003FC0000
0003FC0000
0007FC0000
0007F80000
0007F80000
0007F80000
000FF80000
000FF00000
000FF00000
000FF00000
001FF00000
001FE00000
3FFFFFF000
3FFFFFF000
7FFFFFF000
7FFFFFE000
7FFFFFE000
7FFFFFE000
FFFFFFE000
ENDCHAR
STARTCHAR 0129
ENCODING 297
SWIDTH 495 0
DWIDTH 33 0
BBX 26 46 8 -1
BITMAP
00180200
00FF0700
01FFFFC0
03FFFFC0
07FFFF80
07FFFF00
0FFFFF00
07C3FC00
0180F000
00000000
00000000
00000000
00000000
00000000
7FFFC000
7FFFC000
FFFF8000
FFFF8000
FFFF8000
FFFF8000
00FF0000
00FF0000
00FF0000
01FF0000
01FE0000
01FE0000
01FE0000
03FE0000
03FC0000
03FC0000
03FC0000
07FC0000
07F80000
07F80000
07F80000
07F80000
07F80000
07FC0000
07FF7C00
07FFFE00
07FFFE00
03FFFE00
03FFFE00
01FFFE00
00FFFC00
001F8000
ENDCHAR
STARTCHAR 012A
ENCODING 298
SWIDTH 495 0
DWIDTH 33 0
BBX 36 52 2 0
BITMAP
00007FFFF0
0000FFFFE0
0000FFFFE0
0000FFFFE0
0000FFFFE0
0000000000
0000000000
0000000000
0000000000
0000000000
0000000000
003FFFFFF0
003FFFFFF0
003FFFFFF0
007FFFFFF0
007FFFFFE0
007FFFFFE0
007FFFFFE0
00007FC000
00007F8000
00007F8000
00007F8000
0000FF8000
0000FF0000
0000FF0000
0000FF0000
0001FF0000
0001FE0000
0001FE0000
0001FE0000
0001FE0000
0003FE0000
0003FC0000
0003FC0000
0003FC0000
0007FC0000
0007F80000
0007F80000
0007F80000
000FF80000
000FF00000
000FF00000
000FF00000
001FF00000
001FE00000
3FFFFFF000
3FFFFFF000
7FFFFFF000
7FFFFFE000
7FFFFFE000
7FFFFFE000
FFFFFFE000
ENDCHAR
STARTCHAR 012B
ENCODING 299
SWIDTH 495 0
DWIDTH 33 0
BBX 26 44 8 -1
BITMAP
03FFFFC0
03FFFF80
03FFFF80
03FFFF80
07FFFF80
07FFFF00
00000000
00000000
00000000
00000000
00000000
00000000
7FFFC000
7FFFC000
FFFF8000
FFFF8000
FFFF8000
FFFF8000
00FF0000
00FF0000
00FF0000
01FF0000
01FE0000
01FE0000
01FE0000
03FE0000
03FC0000
03FC0000
03FC0000
07FC0000
07F80000
07F80000
07F80000
07F80000
07F80000
07FC0000
07FF7C00
07FFFE00
07FFFE00
03FFFE00
03FFFE00
01FFFE00
00FFFC00
001F8000
ENDCHAR
STARTCHAR 012C
ENCODING 300
SWIDTH 495 0
DWIDTH 33 0
BBX 36 55 2 0
BITMAP
00007E07E0
00007E07E0
00007E07E0
00007E0FE0
00007FFFC0
00007FFFC0
00003FFF80
00003FFF00
00001FFE00
000007F800
0000000000
0000000000
0000000000
0000000000
003FFFFFF0
003FFFFFF0
003FFFFFF0
007FFFFFF0
007FFFFFE0
007FFFFFE0
007FFFFFE0
00007FC000
00007F8000
00007F8000
00007F8000
0000FF8000
0000FF0000
0000FF0000
0000FF0000
0001FF0000
0001FE0000
0001FE0000
0001FE0000
0001FE0000
0003FE0000
0003FC0000
0003FC0000
0003FC0000
0007FC0000
0007F80000
0007F80000
0007F80000
000FF80000
000FF00000
000FF00000
000FF00000
001FF00000
001FE00000
3FFFFFF000
3FFFFFF000
7FFFFFF000
7FFFFFE000
7FFFFFE000
7FFFFFE000
FFFFFFE000
ENDCHAR
STARTCHAR 012D
ENCODING 301
SWIDTH 495 0
DWIDTH 33 0
BBX 26 46 8 -1
BITMAP
01F80FC0
01F81FC0
01F81F80
01FE7F80
01FFFF00
00FFFF00
007FFE00
003FFC00
001FF000
00000000
00000000
00000000
00000000
00000000
7FFFC000
7FFFC000
FFFF8000
FFFF8000
FFFF8000
FFFF8000
00FF0000
00FF0000
00FF0000
01FF0000
01FE0000
01FE0000
01FE0000
03FE0000
03FC0000
03FC0000
03FC0000
07FC0000
07F80000
07F80000
07F80000
07F80000
07F80000
07FC0000
07FF7C00
07FFFE00
07FFFE00
03FFFE00
03FFFE00
01FFFE00
00FFFC00
001F8000
ENDCHAR
STARTCHAR 012E
ENCODING 302
SWIDTH 495 0
DWIDTH 33 0
BBX 36 52 2 -11
BITMAP
003FFFFFF0
003FFFFFF0
003FFFFFF0
007FFFFFF0
007FFFFFE0
007FFFFFE0
007FFFFFE0
00007FC000
00007F8000
00007F8000
00007F8000
0000FF8000
0000FF0000
0000FF0000
0000FF0000
0001FF0000
0001FE0000
0001FE0000
0001FE0000
0001FE0000
0003FE0000
0003FC0000
0003FC0000
0003FC0000
0007FC0000
0007F80000
0007F80000
0007F80000
000FF80000
000FF00000
000FF00000
000FF00000
001FF00000
001FE00000
3FFFFFF000
3FFFFFF000
7FFFFFF000
7FFFFFE000
7FFFFFE000
7FFFFFE000
FFFFFFE000
003F800000
00FF000000
01FC000000
03F8000000
07F8000000
0FF0000000
0FF1800000
0FFF800000
0FFF000000
0FFF000000
03FF000000
ENDCHAR
STARTCHAR 012F
ENCODING 303
SWIDTH 495 0
DWIDTH 33 0
BBX 23 57 8 -11
BITMAP
000300
000FC0
001FE0
003FF0
003FF0
007FF0
007FF0
003FE0
003FE0
003FC0
000F00
000000
000000
000000
000000
7FFFC0
7FFFC0
FFFF80
FFFF80
FFFF80
FFFF80
00FF00
00FF00
00FF00
01FF00
01FE00
01FE00
01FE00
03FE00
03FC00
03FC00
03FC00
07FC00
07F800
07F800
07F800
07F800
07F800
07FC00
07FF7C
07FFFE
07FFFE
03FFFE
03FFFE
01FFFE
00FFFC
001FF8
000FE0
003FC0
007F80
007F00
00FF00
00FF10
00FFF0
00FFF0
00FFF0
007FE0
ENDCHAR
STARTCHAR 0130
ENCODING 304
SWIDTH 495 0
DWIDTH 33 0
BBX 36 54 2 0
BITMAP
000003F000
000007F800
000007F800
00000FFC00
00000FFC00
00000FF800
00000FF800
000007F000
000003E000
0000000000
0000000000
0000000000
0000000000
003FFFFFF0
003FFFFFF0
003FFFFFF0
007FFFFFF0
007FFFFFE0
007FFFFFE0
007FFFFFE0
00007FC000
00007F8000
00007F8000
00007F8000
0000FF8000
0000FF0000
0000FF0000
0000FF0000
0001FF0000
0001FE0000
0001FE0000
0001FE0000
0001FE0000
0003FE0000
0003FC0000
0003FC0000
0003FC0000
0007FC0000
0007F80000
0007F80000
0007F80000
000FF80000
000FF00000
000FF00000
000FF00000
001FF00000
001FE00000
3FFFFFF000
3FFFFFF000
7FFFFFF000
7FFFFFE000
7FFFFFE000
7FFFFFE000
FFFFFFE000
ENDCHAR
STARTCHAR 0131
ENCODING 305
SWIDTH 495 0
DWIDTH 33 0
BBX 23 32 8 -1
BITMAP
7FFFC0
7FFFC0
FFFF80
FFFF80
FFFF80
FFFF80
00FF00
00FF00
00FF00
01FF00
01FE00
01FE00
01FE00
03FE00
03FC00
03FC00
03FC00
07FC00
07F800
07F800
07F800
07F800
07F800
07FC00
07FF7C
07FFFE
07FFFE
03FFFE
03FFFE
01FFFE
00FFFC
001F80
ENDCHAR
STARTCHAR 0132
ENCODING 306
SWIDTH 495 0
DWIDTH 33 0
BBX 39 42 1 -1
BITMAP
003F8001FE
007F8001FE
007F8001FC
007F8001FC
007F0003FC
00FF0003FC
00FF0003FC
00FF0003F8
00FE0007F8
01FE0007F8
01FE0007F8
01FE0007F0
01FC000FF0
01FC000FF0
03FC000FF0
03FC000FE0
03F8001FE0
03F8001FE0
07F8001FE0
07F8001FC0
07F0001FC0
07F0003FC0
0FF0003FC0
0FF0003FC0
0FF0003F80
0FE0007F80
1FE0007F80
1FE0007F80
1FE0007F00
1FC000FF00
3FC000FF00
3FC000FF00
3FC001FE00
3F8601FE00
7F8703FC00
7F8FFFFC00
7F9FFFF800
7F3FFFF800
FF3FFFF000
FF0FFFE000
FF07FF8000
0000FE0000
ENDCHAR
STARTCHAR 0133
ENCODING 307
SWIDTH 495 0
DWIDTH 33 0
BBX 33 57 5 -11
BITMAP
0006000800
003F807F00
007FC0FF00
00FFC1FF80
00FFC1FF80
00FFC1FF80
00FFC1FF80
00FFC1FF80
00FF81FF00
007F00FE00
003E007800
0000000000
0000000000
0000000000
0000000000
01FE03FC00
01FE07FC00
03FE07F800
03FC07F800
03FC07F800
03FC0FF800
07FC0FF800
07F80FF000
07F80FF000
07F81FF000
0FF81FF000
0FF01FE000
0FF01FE000
0FF01FE000
1FF03FE000
1FE03FC000
1FE03FC000
1FE03FC000
3FE07FC000
3FC07F8000
3FC07F8000
3FC07F8000
3FC0FF8000
7FC0FF0000
7F80FF0000
7F80FF0000
7F81FF0000
FF81FE0000
FF01FE0000
FF01FE0000
FF03FE0000
0003FC0000
0003FC0000
0007FC0000
03BFF80000
03FFF80000
03FFF00000
07FFF00000
07FFE00000
07FFC00000
0FFF000000
03FC000000
ENDCHAR
STARTCHAR 0134
ENCODING 308
SWIDTH 495 0
DWIDTH 33 0
BBX 34 56 3 -1
BITMAP
0000003000
0000007800
000001F800
000003FC00
000007FE00
00000FFF00
00003FFF80
00007FBF80
00007F1FC0
00007C0F80
0000380700
0000000000
0000000000
0000000000
000FFFFFC0
000FFFFFC0
000FFFFF80
000FFFFF80
001FFFFF80
001FFFFF80
001FFFFF80
000000FF00
000000FF00
000000FF00
000001FF00
000001FE00
000001FE00
000001FE00
000003FE00
000003FC00
000003FC00
000003FC00
000007FC00
000007F800
000007F800
000007F800
000007F800
00000FF800
00000FF000
00000FF000
00000FF000
00001FF000
00001FE000
00001FE000
00003FE000
00003FC000
18007FC000
3E00FFC000
7F87FF8000
7FFFFF0000
FFFFFF0000
FFFFFE0000
7FFFFC0000
3FFFF80000
0FFFE00000
00FE000000
ENDCHAR
STARTCHAR 0135
ENCODING 309
SWIDTH 495 0
DWIDTH 33 0
BBX 33 57 0 -11
BITMAP
0000006000
000000E000
000001F000
000003F800
00000FFC00
00001FFE00
00003FFE00
0000FFFF00
0000FE3F80
0000FC1F80
0000700F00
0000200400
0000000000
0000000000
0000000000
001FFFFE00
003FFFFE00
003FFFFE00
003FFFFE00
003FFFFC00
007FFFFC00
000003FC00
000007FC00
000007F800
000007F800
000007F800
000007F800
00000FF800
00000FF000
00000FF000
00000FF000
00001FF000
00001FE000
00001FE000
00001FE000
00003FE000
00003FC000
00003FC000
00003FC000
00007FC000
00007F8000
00007F8000
00007F8000
0000FF8000
0000FF0000
0000FF0000
0000FF0000
0001FF0000
3003FE0000
3C07FE0000
7FFFFC0000
7FFFFC0000
FFFFF80000
FFFFF00000
FFFFE00000
7FFFC00000
0FFF000000
ENDCHAR
STARTCHAR 0136
ENCODING 310
SWIDTH 495 0
DWIDTH 33 0
BBX 38 52 2 -11
BITMAP
003FC00FFC
003FC00FF8
007FC01FF0
007F803FE0
007F807FE0
007F807FC0
00FF80FF80
00FF01FF00
00FF03FE00
00FF07FC00
01FF0FFC00
01FE1FF800
01FE3FF000
01FE3FE000
03FE7FC000
03FCFF8000
03FFFF0000
03FFFE0000
07FFFC0000
07FFF80000
07FFF80000
07FFFC0000
0FFFFE0000
0FF3FE0000
0FF1FF0000
0FF1FF0000
0FF0FF8000
1FF0FF8000
1FE07FC000
1FE07FC000
1FE03FE000
3FE03FE000
3FC01FF000
3FC01FF000
3FC00FF000
7FC00FF800
7F800FF800
7F8007F800
7F8007F800
FF8007FC00
FF0007FC00
0000000000
0000000000
0000000000
003F800000
003F000000
007F000000
00FF000000
0FFE000000
0FFC000000
0FFC000000
1FF0000000
ENDCHAR
STARTCHAR 0137
ENCODING 311
SWIDTH 495 0
DWIDTH 33 0
BBX 33 57 4 -11
BITMAP
0003E00000
003FE00000
003FC00000
003FC00000
003FC00000
007FC00000
007F800000
007F800000
007F800000
00FF800000
00FF000000
00FF000000
00FF000000
01FF000000
01FE000000
01FE00FF80
01FE01FF00
03FE03FE00
03FC07FC00
03FC0FF800
03FC1FF000
07FC3FE000
07F87FC000
07F8FF8000
07F9FF0000
07FBFE0000
0FFFFC0000
0FFFF80000
0FFFF00000
0FFFE00000
1FFFF00000
1FEFF80000
1FE7F80000
1FE7FC0000
3FE3FC0000
3FC3FE0000
3FC1FF0000
3FC1FF0000
7FC0FF8000
7F80FF8000
7F807FC000
7F807FC000
FF803FC000
FF003FE000
FF003FE000
FF001FF000
0000000000
0000000000
0000000000
007F000000
007E000000
00FE000000
01FE000000
1FFC000000
1FFC000000
1FF8000000
1FE0000000
ENDCHAR
STARTCHAR 0138
ENCODING 312
SWIDTH 495 0
DWIDTH 33 0
BBX 33 31 4 0
BITMAP
01FE00FF80
01FE01FF00
03FE03FE00
03FC07FC00
03FC0FF800
03FC1FF000
07FC3FE000
07F87FC000
07F8FF8000
07F9FF0000
07FBFE0000
0FFFFC0000
0FFFF80000
0FFFF00000
0FFFE00000
1FFFF00000
1FEFF80000
1FE7F80000
1FE7FC0000
3FE3FC0000
3FC3FE0000
3FC1FF0000
3FC1FF0000
7FC0FF8000
7F80FF8000
7F807FC000
7F807FC000
FF803FC000
FF003FE000
FF003FE000
FF001FF000
ENDCHAR
STARTCHAR 0139
ENCODING 313
SWIDTH 495 0
DWIDTH 33 0
BBX 27 55 3 0
BITMAP
00000C00
00001C00
00007E00
0000FF00
0001FF00
0007FF80
000FFF00
001FFC00
001FF000
000FE000
00078000
00060000
00000000
00000000
003FC000
007FC000
007F8000
007F8000
007F8000
00FF8000
00FF0000
00FF0000
00FF0000
00FF0000
01FE0000
01FE0000
01FE0000
01FE0000
03FE0000
03FC0000
03FC0000
03FC0000
07FC0000
07F80000
07F80000
07F80000
0FF80000
0FF00000
0FF00000
0FF00000
1FF00000
1FE00000
1FE00000
1FE00000
1FE00000
3FC00000
3FC00000
3FC00000
3FFFFFE0
7FFFFFE0
7FFFFFE0
7FFFFFC0
7FFFFFC0
FFFFFFC0
FFFFFFC0
ENDCHAR
STARTCHAR 013A
ENCODING 314
SWIDTH 495 0
DWIDTH 33 0
BBX 23 56 9 -1
BITMAP
00000C
00003C
0000FE
0003FE
000FFE
003FFE
007FF8
007FC0
003C00
002000
000000
000000
7FFFC0
7FFFC0
7FFFC0
7FFFC0
FFFF80
FFFF80
FFFF80
00FF80
00FF00
00FF00
00FF00
01FF00
01FF00
01FE00
01FE00
01FE00
03FE00
03FC00
03FC00
03FC00
07FC00
07F800
07F800
07F800
0FF800
0FF000
0FF000
0FF000
1FF000
1FF000
1FE000
1FE000
1FE000
3FE000
3FE000
3FE008
1FFCF8
1FFFF8
1FFFF8
1FFFF8
0FFFF8
07FFF8
03FFE0
007E00
ENDCHAR
STARTCHAR 013B
ENCODING 315
SWIDTH 495 0
DWIDTH 33 0
BBX 27 52 3 -11
BITMAP
003FC000
007FC000
007F8000
007F8000
007F8000
00FF8000
00FF0000
00FF0000
00FF0000
00FF0000
01FE0000
01FE0000
01FE0000
01FE0000
03FE0000
03FC0000
03FC0000
03FC0000
07FC0000
07F80000
07F80000
07F80000
0FF80000
0FF00000
0FF00000
0FF00000
1FF00000
1FE00000
1FE00000
1FE00000
1FE00000
3FC00000
3FC00000
3FC00000
3FFFFFE0
7FFFFFE0
7FFFFFE0
7FFFFFC0
7FFFFFC0
FFFFFFC0
FFFFFFC0
00000000
00000000
00000000
003F8000
003F0000
007F0000
00FF0000
0FFE0000
0FFE0000
0FFC0000
0FF00000
ENDCHAR
STARTCHAR 013C
ENCODING 316
SWIDTH 495 0
DWIDTH 33 0
BBX 20 57 10 -11
BITMAP
7FFFC0
7FFFC0
7FFFC0
FFFF80
FFFF80
FFFF80
FFFF80
00FF00
00FF00
00FF00
01FF00
01FE00
01FE00
01FE00
01FE00
03FE00
03FC00
03FC00
03FC00
07FC00
07F800
07F800
07F800
0FF800
0FF000
0FF000
0FF000
1FF000
1FE000
1FE000
1FE000
3FE000
3FE000
3FC000
3FC000
3FC000
7FC000
7FC000
7FC010
3FF9F0
3FFFF0
3FFFF0
3FFFF0
1FFFF0
0FFFF0
07FFC0
00FC00
000000
000000
01F800
03F800
03F800
0FF800
7FF000
7FE000
FFC000
FF8000
ENDCHAR
STARTCHAR 013D
ENCODING 317
SWIDTH 495 0
DWIDTH 33 0
BBX 31 41 3 0
BITMAP
003FC0FE
007FC1FC
007F81FC
007F81FC
007F81F8
00FF83F8
00FF03F8
00FF03F0
00FF03F0
00FF07E0
01FE07E0
01FE07E0
01FE07C0
01FE07C0
03FE0000
03FC0000
03FC0000
03FC0000
07FC0000
07F80000
07F80000
07F80000
0FF80000
0FF00000
0FF00000
0FF00000
1FF00000
1FE00000
1FE00000
1FE00000
1FE00000
3FC00000
3FC00000
3FC00000
3FFFFFE0
7FFFFFE0
7FFFFFE0
7FFFFFC0
7FFFFFC0
FFFFFFC0
FFFFFFC0
ENDCHAR
STARTCHAR 013E
ENCODING 318
SWIDTH 495 0
DWIDTH 33 0
BBX 31 47 10 -1
BITMAP
7FFFC1FE
7FFFC1FC
7FFFC1FC
FFFF81FC
FFFF83F8
FFFF83F8
FFFF83F0
00FF03F0
00FF03F0
00FF07E0
01FF07E0
01FE07E0
01FE07C0
01FE0FC0
01FE0000
03FE0000
03FC0000
03FC0000
03FC0000
07FC0000
07F80000
07F80000
07F80000
0FF80000
0FF00000
0FF00000
0FF00000
1FF00000
1FE00000
1FE00000
1FE00000
3FE00000
3FE00000
3FC00000
3FC00000
3FC00000
7FC00000
7FC00000
7FC01000
3FF9F000
3FFFF000
3FFFF000
3FFFF000
1FFFF000
0FFFF000
07FFC000
00FC0000
ENDCHAR
STARTCHAR 013F
ENCODING 319
SWIDTH 495 0
DWIDTH 33 0
BBX 30 41 3 0
BITMAP
003FC000
007FC000
007F8000
007F8000
007F8000
00FF8000
00FF0000
00FF0000
00FF0000
00FF0000
01FE0000
01FE0000
01FE0000
01FE0000
03FE0000
03FC01F8
03FC07F8
03FC07FC
07FC07FC
07F807FC
07F807FC
07F807F8
0FF807F0
0FF001C0
0FF00000
0FF00000
1FF00000
1FE00000
1FE00000
1FE00000
1FE00000
3FC00000
3FC00000
3FC00000
3FFFFFE0
7FFFFFE0
7FFFFFE0
7FFFFFC0
7FFFFFC0
FFFFFFC0
FFFFFFC0
ENDCHAR
STARTCHAR 0140
ENCODING 320
SWIDTH 495 0
DWIDTH 33 0
BBX 30 47 10 -1
BITMAP
7FFFC000
7FFFC000
7FFFC000
FFFF8000
FFFF8000
FFFF8000
FFFF8000
00FF0000
00FF0000
00FF0000
01FF0000
01FE0000
01FE0000
01FE0000
01FE0000
03FE0000
03FC0000
03FC0000
03FC0000
07FC0000
07F803F0
07F807F8
07F807FC
0FF80FFC
0FF00FFC
0FF00FF8
0FF007F8
1FF007F0
1FE001C0
1FE00000
1FE00000
3FE00000
3FE00000
3FC00000
3FC00000
3FC00000
7FC00000
7FC00000
7FC01000
3FF9F000
3FFFF000
3FFFF000
3FFFF000
1FFFF000
0FFFF000
07FFC000
00FC0000
ENDCHAR
STARTCHAR 0141
ENCODING 321
SWIDTH 495 0
DWIDTH 33 0
BBX 27 41 3 0
BITMAP
000FF000
000FF000
000FF000
001FF000
001FE000
001FE000
001FE000
003FE000
003FC000
003FC000
003FC100
007FC700
007F9F00
007FFF80
007FFF80
00FFFF80
00FFFF00
00FFFC00
03FFF000
0FFFC000
3FFF0000
FFFE0000
FFFE0000
7FFE0000
7FFE0000
7BFC0000
63FC0000
03FC0000
07FC0000
07F80000
07F80000
07F80000
0FF80000
0FF00000
0FFFFFE0
0FFFFFE0
1FFFFFE0
1FFFFFC0
1FFFFFC0
1FFFFFC0
3FFFFFC0
ENDCHAR
STARTCHAR 0142
ENCODING 322
SWIDTH 495 0
DWIDTH 33 0
BBX 23 47 8 -1
BITMAP
1FFFF0
1FFFF0
1FFFF0
3FFFE0
3FFFE0
3FFFE0
3FFFE0
003FC0
003FC0
003FC0
007FC0
007F80
007F80
007F88
007FBC
00FFFC
00FFFC
00FFFC
00FFFE
01FFF8
07FFC0
3FFF00
FFFE00
7FFE00
7FFC00
7FFC00
7BFC00
27FC00
07F800
07F800
07F800
0FF800
0FF800
0FF000
0FF000
0FF000
1FF000
1FF000
1FF004
0FFE7C
0FFFFC
0FFFFC
0FFFFC
07FFFC
03FFFC
01FFF0
003F00
ENDCHAR
STARTCHAR 0143
ENCODING 323
SWIDTH 495 0
DWIDTH 33 0
BBX 37 55 2 0
BITMAP
0000000C00
0000001E00
0000003E00
000000FF00
000001FF00
000003FF80
00000FFF00
00001FFC00
00001FF800
00000FE000
0000078000
0000060000
0000000000
0000000000
007F8003F8
007F8007F8
007F8007F0
007FC007F0
00FFC007F0
00FFC00FF0
00FFE00FE0
00FFE00FE0
01FFE00FE0
01FFF01FE0
01FFF01FC0
01FFF01FC0
01FFF01FC0
03FDF83FC0
03F9F83F80
03F9F83F80
03F9F83F80
07F8FC3F80
07F0FC7F80
07F0FC7F00
07F0FC7F00
0FF07C7F00
0FE07EFF00
0FE07EFE00
0FE07EFE00
1FE07EFE00
1FC03FFE00
1FC03FFC00
1FC03FFC00
3FC03FFC00
3FC01FFC00
3F801FF800
3F801FF800
3F801FF800
7F801FF800
7F001FF000
7F000FF000
7F000FF000
FF000FF000
FE000FF000
FE000FE000
ENDCHAR
STARTCHAR 0144
ENCODING 324
SWIDTH 495 0
DWIDTH 33 0
BBX 30 46 3 0
BITMAP
00000040
000000E0
000003F0
000007F0
00000FF8
00003FFC
00007FF8
0000FFF0
0000FFC0
00007F00
00007C00
00003000
00000000
00000000
0003FF00
007FFFE0
01FFFFF0
01FFFFF8
01FFFFF8
03FFFFFC
03FFFFFC
03FE0FFC
03FC07FC
07FC03FC
07F803FC
07F803FC
07F803FC
0FF807FC
0FF007F8
0FF007F8
0FF007F8
1FF00FF8
1FE00FF0
1FE00FF0
1FE00FF0
3FE01FF0
3FC01FE0
3FC01FE0
3FC01FE0
7FC01FE0
7F803FC0
7F803FC0
7F803FC0
7F803FC0
FF807FC0
FF007F80
ENDCHAR
STARTCHAR 0145
ENCODING 325
SWIDTH 495 0
DWIDTH 33 0
BBX 37 52 2 -11
BITMAP
007F8003F8
007F8007F8
007F8007F0
007FC007F0
00FFC007F0
00FFC00FF0
00FFE00FE0
00FFE00FE0
01FFE00FE0
01FFF01FE0
01FFF01FC0
01FFF01FC0
01FFF01FC0
03FDF83FC0
03F9F83F80
03F9F83F80
03F9F83F80
07F8FC3F80
07F0FC7F80
07F0FC7F00
07F0FC7F00
0FF07C7F00
0FE07EFF00
0FE07EFE00
0FE07EFE00
1FE07EFE00
1FC03FFE00
1FC03FFC00
1FC03FFC00
3FC03FFC00
3FC01FFC00
3F801FF800
3F801FF800
3F801FF800
7F801FF800
7F001FF000
7F000FF000
7F000FF000
FF000FF000
FE000FF000
FE000FE000
0000000000
0000000000
0000000000
003F800000
003F000000
007F000000
00FF000000
0FFE000000
0FFC000000
0FFC000000
1FF0000000
ENDCHAR
STARTCHAR 0146
ENCODING 326
SWIDTH 495 0
DWIDTH 33 0
BBX 30 43 3 -11
BITMAP
0003FF00
007FFFE0
01FFFFF0
01FFFFF8
01FFFFF8
03FFFFFC
03FFFFFC
03FE0FFC
03FC07FC
07FC03FC
07F803FC
07F803FC
07F803FC
0FF807FC
0FF007F8
0FF007F8
0FF007F8
1FF00FF8
1FE00FF0
1FE00FF0
1FE00FF0
3FE01FF0
3FC01FE0
3FC01FE0
3FC01FE0
7FC01FE0
7F803FC0
7F803FC0
7F803FC0
7F803FC0
FF807FC0
FF007F80
00000000
00000000
00000000
007F0000
007E0000
00FE0000
01FE0000
1FFC0000
1FF80000
1FF80000
3FE00000
ENDCHAR
STARTCHAR 0147
ENCODING 327
SWIDTH 495 0
DWIDTH 33 0
BBX 37 55 2 0
BITMAP
0000180180
00003C07C0
00007F0FC0
00003F9FE0
00003FFF80
00001FFF00
00000FFE00
000007FC00
000003F000
000003E000
000001C000
0000008000
0000000000
0000000000
007F8003F8
007F8007F8
007F8007F0
007FC007F0
00FFC007F0
00FFC00FF0
00FFE00FE0
00FFE00FE0
01FFE00FE0
01FFF01FE0
01FFF01FC0
01FFF01FC0
01FFF01FC0
03FDF83FC0
03F9F83F80
03F9F83F80
03F9F83F80
07F8FC3F80
07F0FC7F80
07F0FC7F00
07F0FC7F00
0FF07C7F00
0FE07EFF00
0FE07EFE00
0FE07EFE00
1FE07EFE00
1FC03FFE00
1FC03FFC00
1FC03FFC00
3FC03FFC00
3FC01FFC00
3F801FF800
3F801FF800
3F801FF800
7F801FF800
7F001FF000
7F000FF000
7F000FF000
FF000FF000
FE000FF000
FE000FE000
ENDCHAR
STARTCHAR 0148
ENCODING 328
SWIDTH 495 0
DWIDTH 33 0
BBX 31 46 3 0
BITMAP
0000C008
0001E03C
0003F07E
0003F9FE
0001FFFC
0001FFF8
0000FFF0
00007FE0
00003F80
00001F00
00000E00
00000800
00000000
00000000
0003FF00
007FFFE0
01FFFFF0
01FFFFF8
01FFFFF8
03FFFFFC
03FFFFFC
03FE0FFC
03FC07FC
07FC03FC
07F803FC
07F803FC
07F803FC
0FF807FC
0FF007F8
0FF007F8
0FF007F8
1FF00FF8
1FE00FF0
1FE00FF0
1FE00FF0
3FE01FF0
3FC01FE0
3FC01FE0
3FC01FE0
7FC01FE0
7F803FC0
7F803FC0
7F803FC0
7F803FC0
FF807FC0
FF007F80
ENDCHAR
STARTCHAR 0149
ENCODING 329
SWIDTH 495 0
DWIDTH 33 0
BBX 30 46 4 0
BITMAP
01FE0000
01FE0000
01FE0000
01FC0000
01FC0000
03FC0000
03F80000
07F00000
07F00000
0FE00000
0FE00000
0FC00000
01800000
00000000
0007FF00
007FFFC0
01FFFFF0
01FFFFF0
03FFFFF8
03FFFFF8
03FFFFFC
03FE0FFC
07FC07FC
07F807FC
07F803FC
07F803FC
0FF807FC
0FF007FC
0FF007F8
0FF007F8
0FF007F8
1FF00FF8
1FE00FF0
1FE00FF0
1FE00FF0
3FE01FF0
3FC01FE0
3FC01FE0
3FC01FE0
7FC03FE0
7F803FC0
7F803FC0
7F803FC0
FF807FC0
FF007F80
FF007F80
ENDCHAR
STARTCHAR 014A
ENCODING 330
SWIDTH 495 0
DWIDTH 33 0
BBX 37 52 2 -11
BITMAP
007F8003F8
007F8007F8
007F8007F0
007FC007F0
00FFC007F0
00FFC00FF0
00FFE00FE0
00FFE00FE0
01FFE00FE0
01FFF01FE0
01FFF01FC0
01FFF01FC0
01FFF01FC0
03FDF83FC0
03F9F83F80
03F9F83F80
03F9F83F80
07F8FC3F80
07F0FC7F80
07F0FC7F00
07F0FC7F00
0FF0FC7F00
0FE07EFF00
0FE07EFE00
0FE07EFE00
1FE07EFE00
1FC03FFE00
1FC03FFC00
1FC03FFC00
3FC03FFC00
3F803FFC00
3F801FF800
3F801FF800
3F801FF800
7F801FF800
7F001FF000
7F000FF000
7F000FF000
FF000FF000
FE000FE000
FE000FE000
00000FE000
00001FE000
00001FC000
00003FC000
001FFFC000
001FFF8000
001FFF8000
003FFF0000
003FFE0000
003FFC0000
001FF00000
ENDCHAR
STARTCHAR 014B
ENCODING 331
SWIDTH 495 0
DWIDTH 33 0
BBX 30 43 3 -11
BITMAP
0007FE00
00FFFFC0
01FFFFF0
01FFFFF0
01FFFFF8
03FFFFFC
03FFFFFC
03FC0FFC
03FC07FC
07FC03FC
07F803FC
07F803FC
07F803FC
0FF807FC
0FF007F8
0FF007F8
0FF007F8
1FF00FF8
1FE00FF0
1FE00FF0
1FE00FF0
3FE00FF0
3FC01FF0
3FC01FE0
3FC01FE0
7FC01FE0
7F803FE0
7F803FC0
7F803FC0
7F803FC0
FF807FC0
FF007F80
00007F80
0000FF80
0000FF00
0021FF00
003FFF00
003FFE00
007FFE00
007FFC00
007FF800
00FFF000
007FC000
ENDCHAR
STARTCHAR 014C
ENCODING 332
SWIDTH 495 0
DWIDTH 33 0
BBX 34 53 4 -1
BITMAP
0003FFFFC0
0003FFFF80
0003FFFF80
0003FFFF80
0007FFFF80
0000000000
0000000000
0000000000
0000000000
0000000000
0000FF8000
0007FFE000
000FFFF000
003FFFF800
007FFFFC00
00FFFFFC00
01FFFFFE00
01FF83FE00
03FF01FF00
07FE01FF00
07FC01FF00
0FF800FF00
0FF000FF00
0FF000FF00
1FF000FF00
1FE000FF00
1FE000FF00
3FC001FF00
3FC001FF00
3FC001FE00
7FC001FE00
7F8001FE00
7F8001FE00
7F8003FE00
7F8003FC00
7F8003FC00
7F8003FC00
7F8007FC00
FF8007F800
FF800FF800
FF800FF000
7F801FF000
7F803FE000
7F803FE000
7FC07FC000
7FF1FFC000
3FFFFF8000
3FFFFF0000
1FFFFE0000
0FFFFC0000
07FFF00000
03FFE00000
007F000000
ENDCHAR
STARTCHAR 014D
ENCODING 333
SWIDTH 495 0
DWIDTH 33 0
BBX 31 44 4 -1
BITMAP
000FFFFE
001FFFFC
001FFFFC
001FFFFC
001FFFFC
003FFFFC
00000000
00000000
00000000
00000000
00000000
0003FE00
001FFF80
007FFFC0
00FFFFE0
01FFFFF0
03FFFFF8
07FFFFF8
0FFC1FF8
0FF80FF8
1FF007FC
1FE007FC
3FE007FC
3FC007FC
7FC007FC
7F8007FC
7F8007F8
7F8007F8
7F8007F8
FF8007F8
FF800FF8
FF800FF0
FF801FF0
FF801FE0
FF803FE0
7FC07FC0
7FF1FFC0
7FFFFF80
3FFFFF00
3FFFFE00
1FFFFC00
0FFFF000
07FFC000
00FE0000
ENDCHAR
STARTCHAR 014E
ENCODING 334
SWIDTH 495 0
DWIDTH 33 0
BBX 34 56 4 -1
BITMAP
0001F80FC0
0001F80FC0
0001F81FC0
0001FC3F80
0001FFFF80
0000FFFF00
0000FFFF00
00007FFE00
00003FF800
00000FE000
0000000000
0000000000
0000000000
0000FF8000
0007FFE000
000FFFF000
003FFFF800
007FFFFC00
00FFFFFC00
01FFFFFE00
01FF83FE00
03FF01FF00
07FE01FF00
07FC01FF00
0FF800FF00
0FF000FF00
0FF000FF00
1FF000FF00
1FE000FF00
1FE000FF00
3FC001FF00
3FC001FF00
3FC001FE00
7FC001FE00
7F8001FE00
7F8001FE00
7F8003FE00
7F8003FC00
7F8003FC00
7F8003FC00
7F8007FC00
FF8007F800
FF800FF800
FF800FF000
7F801FF000
7F803FE000
7F803FE000
7FC07FC000
7FF1FFC000
3FFFFF8000
3FFFFF0000
1FFFFE0000
0FFFFC0000
07FFF00000
03FFE00000
007F000000
ENDCHAR
STARTCHAR 014F
ENCODING 335
SWIDTH 495 0
DWIDTH 33 0
BBX 31 46 4 -1
BITMAP
000FC07E
000FC0FE
000FE0FC
000FF3FC
0007FFFC
0007FFF8
0003FFF0
0001FFE0
0000FF80
00000000
00000000
00000000
00000000
0003FE00
001FFF80
007FFFC0
00FFFFE0
01FFFFF0
03FFFFF8
07FFFFF8
0FFC1FF8
0FF80FF8
1FF007FC
1FE007FC
3FE007FC
3FC007FC
7FC007FC
7F8007FC
7F8007F8
7F8007F8
7F8007F8
FF8007F8
FF800FF8
FF800FF0
FF801FF0
FF801FE0
FF803FE0
7FC07FC0
7FF1FFC0
7FFFFF80
3FFFFF00
3FFFFE00
1FFFFC00
0FFFF000
07FFC000
00FE0000
ENDCHAR
STARTCHAR 0150
ENCODING 336
SWIDTH 495 0
DWIDTH 33 0
BBX 38 56 4 -1
BITMAP
00000C0060
00001E00F0
00003E01F8
00007F03F8
0001FF87FC
0003FF0FFC
0007FE3FF0
000FF87FE0
000FF03F80
0007C03F00
0003801C00
0000000800
0000000000
0000FF8000
0007FFE000
000FFFF000
003FFFF800
007FFFFC00
00FFFFFC00
01FFFFFE00
01FF83FE00
03FF01FF00
07FE01FF00
07FC01FF00
0FF800FF00
0FF000FF00
0FF000FF00
1FF000FF00
1FE000FF00
1FE000FF00
3FC001FF00
3FC001FF00
3FC001FE00
7FC001FE00
7F8001FE00
7F8001FE00
7F8003FE00
7F8003FC00
7F8003FC00
7F8003FC00
7F8007FC00
FF8007F800
FF800FF800
FF800FF000
7F801FF000
7F803FE000
7F803FE000
7FC07FC000
7FF1FFC000
3FFFFF8000
3FFFFF0000
1FFFFE0000
0FFFFC0000
07FFF00000
03FFE00000
007F000000
ENDCHAR
STARTCHAR 0151
ENCODING 337
SWIDTH 495 0
DWIDTH 33 0
BBX 35 47 4 -1
BITMAP
0000600100
0000E00380
0001F00F80
0003F81FC0
0007FC3FE0
000FFC7FE0
003FF0FF80
007FE1FF00
007F83FC00
003F01F800
001C00E000
0018004000
0000000000
0000000000
0003FE0000
001FFF8000
007FFFC000
00FFFFE000
01FFFFF000
03FFFFF800
07FFFFF800
0FFC1FF800
0FF80FF800
1FF007FC00
1FE007FC00
3FE007FC00
3FC007FC00
7FC007FC00
7F8007FC00
7F8007F800
7F8007F800
7F8007F800
FF8007F800
FF800FF800
FF800FF000
FF801FF000
FF801FE000
FF803FE000
7FC07FC000
7FF1FFC000
7FFFFF8000
3FFFFF0000
3FFFFE0000
1FFFFC0000
0FFFF00000
07FFC00000
00FE000000
ENDCHAR
STARTCHAR 0152
ENCODING 338
SWIDTH 495 0
DWIDTH 33 0
BBX 36 42 4 0
BITMAP
00003C0000
0007FFFFF0
001FFFFFF0
003FFFFFF0
007FFFFFF0
00FFFFFFE0
01FFFFFFE0
03FF9FFFE0
07FE0FE000
07FC0FE000
0FF81FE000
0FF01FE000
1FF01FC000
1FE01FC000
3FE03FC000
3FC03FC000
3FC03F8000
7F803FFE00
7F807FFE00
7F807FFE00
7F807FFC00
FF007FFC00
FF00FFFC00
FF00FFFC00
FF00FE0000
FF00FE0000
FE00FE0000
FE01FE0000
FE01FC0000
FE01FC0000
FE01FC0000
FE03FC0000
FF03F80000
FF03F80000
FF83F80000
FFFFFFF800
7FFFFFF800
7FFFFFF800
3FFFFFF000
3FFFFFF000
0FFFFFF000
07FFFFF000
ENDCHAR
STARTCHAR 0153
ENCODING 339
SWIDTH 495 0
DWIDTH 33 0
BBX 35 33 2 -1
BITMAP
000FC03F00
003FF0FF80
00FFF9FFC0
01FFFBFFC0
03FFFFFFE0
07FFFFFFE0
07FFFFC7E0
0FF1FF07E0
0FE0FF07E0
1FC0FE07E0
1F80FE07E0
3F80FC0FC0
3F00FC0FC0
3F00FC1F80
7F00F87F80
7E00FFFF00
7E01FFFE00
7E01FFFC00
7E01FFF000
7E03FFC000
FE03FC0000
FE03F80000
FE07F80000
FE07F80000
FE0FF80000
7F1FFC0400
7FFFFF1C00
7FFFFFFC00
7FFFFFFC00
3FFE7FFE00
1FFC3FFE00
0FF81FFC00
03C007E000
ENDCHAR
STARTCHAR 0154
ENCODING 340
SWIDTH 495 0
DWIDTH 33 0
BBX 34 55 2 0
BITMAP
0000001800
0000003800
000000FC00
000001FE00
000003FE00
00000FFF00
00001FFE00
00003FF800
00003FE000
00001F8000
00000E0000
00000C0000
0000000000
0000FF0000
003FFFF000
003FFFF800
007FFFFE00
007FFFFF00
007FFFFF00
007FFFFF80
00FF83FF80
00FF00FF80
00FF007F80
00FF007FC0
00FF007FC0
01FE007F80
01FE007F80
01FE007F80
01FE007F80
03FC00FF80
03FC01FF00
03FC03FF00
03FC0FFE00
07FFFFFC00
07FFFFF800
07FFFFF000
07FFFFE000
0FFFFF8000
0FFFFF0000
0FFFFF0000
0FF07F8000
1FF07F8000
1FE07FC000
1FE03FC000
1FE03FC000
1FE01FE000
3FC01FE000
3FC01FE000
3FC00FF000
3FC00FF000
7F800FF000
7F8007F800
7F8007F800
7F8007F800
FF0007F800
ENDCHAR
STARTCHAR 0155
ENCODING 341
SWIDTH 495 0
DWIDTH 33 0
BBX 31 46 5 0
BITMAP
000000C0
000001C0
000003E0
00000FF0
00001FF0
00003FF8
0000FFF8
0001FFE0
0001FF80
0000FE00
00007800
00006000
00000000
00000000
0001FFE0
003FFFFE
01FFFFFC
03FFFFFC
03FFFFF8
03FFFFF8
03FFFFF8
07FFFFF0
07FC0010
07F80000
07F80000
0FF80000
0FF00000
0FF00000
0FF00000
0FF00000
1FF00000
1FE00000
1FE00000
1FE00000
3FE00000
3FC00000
3FC00000
3FC00000
7FC00000
7F800000
7F800000
7F800000
FF800000
FF000000
FF000000
FF000000
ENDCHAR
STARTCHAR 0156
ENCODING 342
SWIDTH 495 0
DWIDTH 33 0
BBX 34 53 2 -11
BITMAP
0000FF0000
003FFFF000
003FFFF800
007FFFFE00
007FFFFF00
007FFFFF00
007FFFFF80
00FF83FF80
00FF00FF80
00FF007F80
00FF007FC0
00FF007FC0
01FE007F80
01FE007F80
01FE007F80
01FE007F80
03FC00FF80
03FC01FF00
03FC03FF00
03FC0FFE00
07FFFFFC00
07FFFFF800
07FFFFF000
07FFFFE000
0FFFFF8000
0FFFFF0000
0FFFFF0000
0FF07F8000
1FF07F8000
1FE07FC000
1FE03FC000
1FE03FC000
1FE01FE000
3FC01FE000
3FC01FE000
3FC00FF000
3FC00FF000
7F800FF000
7F8007F800
7F8007F800
7F8007F800
FF0007F800
0000000000
0000000000
0000000000
003F800000
003F000000
007F000000
00FF000000
0FFE000000
0FFC000000
0FFC000000
1FF0000000
ENDCHAR
STARTCHAR 0157
ENCODING 343
SWIDTH 495 0
DWIDTH 33 0
BBX 38 43 -2 -11
BITMAP
000003FFC0
00007FFFFC
0003FFFFF8
0007FFFFF8
0007FFFFF0
0007FFFFF0
0007FFFFF0
000FFFFFE0
000FF80020
000FF00000
000FF00000
001FF00000
001FE00000
001FE00000
001FE00000
001FE00000
003FE00000
003FC00000
003FC00000
003FC00000
007FC00000
007F800000
007F800000
007F800000
00FF800000
00FF000000
00FF000000
00FF000000
01FF000000
01FE000000
01FE000000
01FE000000
0000000000
0000000000
0000000000
03F8000000
03F8000000
07F0000000
0FF0000000
FFE0000000
FFE0000000
FFC0000000
FF00000000
ENDCHAR
STARTCHAR 0158
ENCODING 344
SWIDTH 495 0
DWIDTH 33 0
BBX 34 55 2 0
BITMAP
0000600400
0000F01E00
0001F83F00
0001FCFF00
0000FFFE00
00007FFC00
00003FF000
00003FE000
00001FC000
00000F8000
0000060000
0000000000
0000000000
0000FF0000
003FFFF000
003FFFF800
007FFFFE00
007FFFFF00
007FFFFF00
007FFFFF80
00FF83FF80
00FF00FF80
00FF007F80
00FF007FC0
00FF007FC0
01FE007F80
01FE007F80
01FE007F80
01FE007F80
03FC00FF80
03FC01FF00
03FC03FF00
03FC0FFE00
07FFFFFC00
07FFFFF800
07FFFFF000
07FFFFE000
0FFFFF8000
0FFFFF0000
0FFFFF0000
0FF07F8000
1FF07F8000
1FE07FC000
1FE03FC000
1FE03FC000
1FE01FE000
3FC01FE000
3FC01FE000
3FC00FF000
3FC00FF000
7F800FF000
7F8007F800
7F8007F800
7F8007F800
FF0007F800
ENDCHAR
STARTCHAR 0159
ENCODING 345
SWIDTH 495 0
DWIDTH 33 0
BBX 31 46 5 0
BITMAP
0000C008
0001E03C
0003F07E
0003F9FE
0001FFFC
0001FFF8
0000FFF0
00007FE0
00003F80
00001F00
00000E00
00000800
00000000
00000000
0001FFE0
003FFFFE
01FFFFFC
03FFFFFC
03FFFFF8
03FFFFF8
03FFFFF8
07FFFFF0
07FC0010
07F80000
07F80000
0FF80000
0FF00000
0FF00000
0FF00000
0FF00000
1FF00000
1FE00000
1FE00000
1FE00000
3FE00000
3FC00000
3FC00000
3FC00000
7FC00000
7F800000
7F800000
7F800000
FF800000
FF000000
FF000000
FF000000
ENDCHAR
STARTCHAR 015A
ENCODING 346
SWIDTH 495 0
DWIDTH 33 0
BBX 34 56 2 -1
BITMAP
0000001800
0000003800
000000FC00
000001FE00
000003FE00
00000FFF00
00001FFE00
00003FF800
00003FE000
00001F8000
00000E0000
00000C0000
0000000000
00007FF800
0003FFFF00
000FFFFFC0
001FFFFFC0
003FFFFF80
007FFFFF80
007FFFFF00
00FFC01F00
00FF000200
00FF000000
01FE000000
01FE000000
01FE000000
01FF000000
01FF000000
01FF800000
00FFE00000
00FFF80000
007FFE0000
007FFF8000
003FFFC000
001FFFE000
0007FFF000
0001FFF000
00007FF800
00003FF800
00000FF800
000007FC00
000007FC00
000007FC00
000007FC00
000007F800
000007F800
10000FF800
1E001FF800
3FC07FF000
3FFFFFF000
7FFFFFE000
FFFFFFC000
FFFFFF8000
3FFFFE0000
0FFFF80000
00FF800000
ENDCHAR
STARTCHAR 015B
ENCODING 347
SWIDTH 495 0
DWIDTH 33 0
BBX 30 47 3 -1
BITMAP
00000040
000000E0
000003F0
000007F0
00000FF8
00003FFC
00007FF8
0000FFF0
0000FFC0
00007F00
00007C00
00003000
00000000
00000000
0003FFC0
000FFFFC
003FFFFC
007FFFFC
00FFFFF8
01FFFFF8
01FFFFF8
01FF0070
03FE0000
03FC0000
03FE0000
03FE0000
03FF8000
01FFF000
01FFFC00
00FFFF00
007FFF80
003FFFC0
000FFFC0
0001FFE0
00007FE0
00003FE0
00001FE0
00001FE0
1C003FE0
3F80FFE0
3FFFFFC0
7FFFFFC0
7FFFFF80
FFFFFF00
7FFFFE00
0FFFF800
00FF8000
ENDCHAR
STARTCHAR 015C
ENCODING 348
SWIDTH 495 0
DWIDTH 33 0
BBX 34 56 2 -1
BITMAP
0000006000
000000F000
000001F800
000003FC00
00000FFC00
00001FFE00
00003FFF00
00007FBF80
0000FE1FC0
00007C0F80
0000300700
0000200200
0000000000
00007FF800
0003FFFF00
000FFFFFC0
001FFFFFC0
003FFFFF80
007FFFFF80
007FFFFF00
00FFC01F00
00FF000200
00FF000000
01FE000000
01FE000000
01FE000000
01FF000000
01FF000000
01FF800000
00FFE00000
00FFF80000
007FFE0000
007FFF8000
003FFFC000
001FFFE000
0007FFF000
0001FFF000
00007FF800
00003FF800
00000FF800
000007FC00
000007FC00
000007FC00
000007FC00
000007F800
000007F800
10000FF800
1E001FF800
3FC07FF000
3FFFFFF000
7FFFFFE000
FFFFFFC000
FFFFFF8000
3FFFFE0000
0FFFF80000
00FF800000
ENDCHAR
STARTCHAR 015D
ENCODING 349
SWIDTH 495 0
DWIDTH 33 0
BBX 31 47 3 -1
BITMAP
00000100
00000380
00000FC0
00001FE0
00003FE0
00007FF0
0001FFF8
0003FDFC
0007F8FE
0003E07C
0001C038
00018010
00000000
00000000
0003FFC0
000FFFFC
003FFFFC
007FFFFC
00FFFFF8
01FFFFF8
01FFFFF8
01FF0070
03FE0000
03FC0000
03FE0000
03FE0000
03FF8000
01FFF000
01FFFC00
00FFFF00
007FFF80
003FFFC0
000FFFC0
0001FFE0
00007FE0
00003FE0
00001FE0
00001FE0
1C003FE0
3F80FFE0
3FFFFFC0
7FFFFFC0
7FFFFF80
FFFFFF00
7FFFFE00
0FFFF800
00FF8000
ENDCHAR
STARTCHAR 015E
ENCODING 350
SWIDTH 495 0
DWIDTH 33 0
BBX 34 53 2 -11
BITMAP
00007FF800
0003FFFF00
000FFFFFC0
001FFFFFC0
003FFFFF80
007FFFFF80
007FFFFF00
00FFC01F00
00FF000200
00FF000000
01FE000000
01FE000000
01FE000000
01FF000000
01FF000000
01FF800000
00FFE00000
00FFF80000
007FFE0000
007FFF8000
003FFFC000
001FFFE000
0007FFF000
0001FFF000
00007FF800
00003FF800
00000FF800
000007FC00
000007FC00
000007FC00
000007FC00
000007F800
000007F800
10000FF800
1E001FF800
3FC07FF000
3FFFFFF000
7FFFFFE000
FFFFFFC000
FFFFFF8000
3FFFFE0000
0FFFF80000
00FF800000
007E000000
00FF000000
003F800000
001F800000
001F800000
041F800000
0FFF800000
0FFF000000
0FFE000000
0FFC000000
ENDCHAR
STARTCHAR 015F
ENCODING 351
SWIDTH 495 0
DWIDTH 33 0
BBX 30 43 3 -11
BITMAP
0003FFC0
000FFFFC
003FFFFC
007FFFFC
00FFFFF8
01FFFFF8
01FFFFF8
01FF0070
03FE0000
03FC0000
03FE0000
03FE0000
03FF8000
01FFF000
01FFFC00
00FFFF00
007FFF80
003FFFC0
000FFFC0
0001FFE0
00007FE0
00003FE0
00001FE0
00001FE0
1C003FE0
3F80FFE0
3FFFFFC0
7FFFFFC0
7FFFFF80
FFFFFF00
7FFFFC00
0FFFF800
00FF8000
007C0000
00FE0000
003F0000
001F8000
001F8000
0C3F8000
0FFF8000
0FFF0000
1FFE0000
0FF80000
ENDCHAR
STARTCHAR 0160
ENCODING 352
SWIDTH 495 0
DWIDTH 33 0
BBX 34 56 2 -1
BITMAP
0000180180
00003C0780
00007E0FC0
00007F3FC0
00003FFF80
00001FFF00
00000FFE00
000007F800
000007F000
000003E000
000001C000
0000000000
0000000000
00007FF800
0003FFFF00
000FFFFFC0
001FFFFFC0
003FFFFF80
007FFFFF80
007FFFFF00
00FFC01F00
00FF000200
00FF000000
01FE000000
01FE000000
01FE000000
01FF000000
01FF000000
01FF800000
00FFE00000
00FFF80000
007FFE0000
007FFF8000
003FFFC000
001FFFE000
0007FFF000
0001FFF000
00007FF800
00003FF800
00000FF800
000007FC00
000007FC00
000007FC00
000007FC00
000007F800
000007F800
10000FF800
1E001FF800
3FC07FF000
3FFFFFF000
7FFFFFE000
FFFFFFC000
FFFFFF8000
3FFFFE0000
0FFFF80000
00FF800000
ENDCHAR
STARTCHAR 0161
ENCODING 353
SWIDTH 495 0
DWIDTH 33 0
BBX 32 47 3 -1
BITMAP
0000400C
0000E01E
0001F03E
0003FCFF
0001FFFE
0000FFFC
00007FF0
00003FE0
00001FC0
00001F80
00000E00
00000400
00000000
00000000
0003FFC0
000FFFFC
003FFFFC
007FFFFC
00FFFFF8
01FFFFF8
01FFFFF8
01FF0070
03FE0000
03FC0000
03FE0000
03FE0000
03FF8000
01FFF000
01FFFC00
00FFFF00
007FFF80
003FFFC0
000FFFC0
0001FFE0
00007FE0
00003FE0
00001FE0
00001FE0
1C003FE0
3F80FFE0
3FFFFFC0
7FFFFFC0
7FFFFF80
FFFFFF00
7FFFFE00
0FFFF800
00FF8000
ENDCHAR
STARTCHAR 0162
ENCODING 354
SWIDTH 495 0
DWIDTH 33 0
BBX 34 52 6 -11
BITMAP
0FFFFFFFC0
0FFFFFFFC0
0FFFFFFFC0
1FFFFFFF80
1FFFFFFF80
1FFFFFFF80
1FFFFFFF80
0007F80000
0007F80000
0007F80000
0007F80000
000FF00000
000FF00000
000FF00000
000FF00000
001FF00000
001FE00000
001FE00000
001FE00000
003FE00000
003FC00000
003FC00000
003FC00000
007FC00000
007F800000
007F800000
007F800000
00FF800000
00FF000000
00FF000000
00FF000000
01FF000000
01FE000000
01FE000000
01FE000000
01FE000000
03FC000000
03FC000000
03FC000000
03FC000000
07FC000000
01F0000000
03E0000000
07F8000000
01F8000000
00FC000000
00FC000000
21FC000000
7FFC000000
7FF8000000
FFF0000000
7FC0000000
ENDCHAR
STARTCHAR 0163
ENCODING 355
SWIDTH 495 0
DWIDTH 33 0
BBX 27 51 7 -10
BITMAP
001FC000
007F8000
007F8000
007F8000
00FF8000
00FF0000
00FF0000
00FF0000
01FF0000
7FFFFFE0
7FFFFFE0
FFFFFFE0
FFFFFFE0
FFFFFFC0
FFFFFFC0
03FC0000
07FC0000
07F80000
07F80000
07F80000
07F80000
0FF80000
0FF00000
0FF00000
0FF00000
1FF00000
1FE00000
1FE00000
1FE00000
3FE00000
3FE00000
3FE00000
3FE00600
3FFCFE00
1FFFFE00
1FFFFE00
1FFFFE00
0FFFFE00
07FFFC00
01FFF800
003F0000
007E0000
00FF0000
003F8000
001F8000
001F8000
043F8000
0FFF8000
0FFF0000
1FFE0000
0FFC0000
ENDCHAR
STARTCHAR 0164
ENCODING 356
SWIDTH 495 0
DWIDTH 33 0
BBX 31 55 9 0
BITMAP
000C00C0
001E03E0
003F87E0
001FCFF0
001FFFC0
000FFF80
0007FF00
0003FE00
0001F800
0001F000
0000E000
00004000
00000000
00000000
7FFFFFFE
7FFFFFFE
7FFFFFFE
FFFFFFFC
FFFFFFFC
FFFFFFFC
FFFFFFFC
003FC000
003FC000
003FC000
003FC000
007F8000
007F8000
007F8000
007F8000
00FF8000
00FF0000
00FF0000
00FF0000
01FF0000
01FE0000
01FE0000
01FE0000
03FE0000
03FC0000
03FC0000
03FC0000
07FC0000
07F80000
07F80000
07F80000
0FF80000
0FF00000
0FF00000
0FF00000
0FF00000
1FE00000
1FE00000
1FE00000
1FE00000
3FE00000
ENDCHAR
STARTCHAR 0165
ENCODING 357
SWIDTH 495 0
DWIDTH 33 0
BBX 30 47 8 -1
BITMAP
000001FC
000001FC
000003F8
000003F8
000003F0
000043F0
001F87E0
007F87E0
007F87E0
00FF87C0
00FF0FC0
00FF0000
00FF0000
01FF0000
01FE0000
7FFFFFE0
7FFFFFE0
FFFFFFE0
FFFFFFC0
FFFFFFC0
FFFFFFC0
03FC0000
07FC0000
07F80000
07F80000
07F80000
0FF80000
0FF00000
0FF00000
0FF00000
1FF00000
1FE00000
1FE00000
1FE00000
3FE00000
3FE00000
3FE00000
3FE00000
3FE00400
3FFCFC00
3FFFFC00
1FFFFC00
1FFFFC00
0FFFFC00
07FFFC00
03FFF800
007E0000
ENDCHAR
STARTCHAR 0166
ENCODING 358
SWIDTH 495 0
DWIDTH 33 0
BBX 32 41 8 0
BITMAP
3FFFFFFF
3FFFFFFF
3FFFFFFF
7FFFFFFE
7FFFFFFE
7FFFFFFE
7FFFFFFE
001FE000
001FE000
001FE000
003FE000
003FC000
003FC000
003FC000
007FC000
007F8000
007F8000
007F8000
007F8000
7FFFFF00
7FFFFF00
7FFFFE00
7FFFFE00
FFFFFE00
FFFFFE00
01FE0000
01FE0000
03FE0000
03FC0000
03FC0000
03FC0000
07FC0000
07F80000
07F80000
07F80000
07F80000
0FF00000
0FF00000
0FF00000
0FF00000
1FF00000
ENDCHAR
STARTCHAR 0167
ENCODING 359
SWIDTH 495 0
DWIDTH 33 0
BBX 30 42 5 -1
BITMAP
00000800
0003F000
000FF000
000FF000
001FF000
001FE000
001FE000
001FE000
003FE000
003FC000
0FFFFFFC
0FFFFFFC
1FFFFFFC
1FFFFFF8
1FFFFFF8
1FFFFFF8
007F8000
00FF8000
00FF0000
00FF0000
00FF0000
01FF0000
7FFFFFF0
7FFFFFF0
FFFFFFF0
FFFFFFE0
FFFFFFE0
03FC0000
03FC0000
07FC0000
07FC0000
07FC0000
07FC0000
07FC0080
07FF9F80
07FFFF80
03FFFF80
03FFFF80
01FFFF80
00FFFF80
007FFF00
000FC000
ENDCHAR
STARTCHAR 0168
ENCODING 360
SWIDTH 495 0
DWIDTH 33 0
BBX 34 55 4 -1
BITMAP
00007C0600
0001FF0F00
0003FFFF80
0007FFFF80
0007FFFF00
000FFFFF00
000FFFFE00
000783FC00
0001004000
0000000000
0000000000
0000000000
0000000000
01FE003FC0
01FE003FC0
01FE003FC0
03FE007FC0
03FC007F80
03FC007F80
03FC007F80
03FC00FF80
07FC00FF00
07F800FF00
07F800FF00
07F801FF00
0FF801FE00
0FF001FE00
0FF001FE00
0FF001FE00
1FF003FE00
1FE003FC00
1FE003FC00
1FE003FC00
3FE007FC00
3FC007F800
3FC007F800
3FC007F800
7FC00FF800
7F800FF000
7F800FF000
7F800FF000
7F801FF000
7F801FE000
FF801FE000
FF803FE000
7F803FC000
7FC07FC000
7FE3FF8000
7FFFFF8000
7FFFFF0000
3FFFFE0000
1FFFFE0000
0FFFF80000
07FFE00000
00FF000000
ENDCHAR
STARTCHAR 0169
ENCODING 361
SWIDTH 495 0
DWIDTH 33 0
BBX 30 46 5 -1
BITMAP
00008020
000FF078
001FFFFC
003FFFFC
003FFFF8
007FFFF0
007FFFF0
003C3FE0
00180F80
00000000
00000000
00000000
00000000
00000000
07F803FC
0FF807FC
0FF007F8
0FF007F8
0FF007F8
1FF00FF8
1FE00FF0
1FE00FF0
1FE00FF0
3FE01FF0
3FC01FE0
3FC01FE0
3FC01FE0
7FC03FE0
7F803FC0
7F803FC0
7F803FC0
FF803FC0
FF807F80
FF007F80
FF007F80
FF007F80
FF00FF80
FF81FF80
FFEFFF80
FFFFFF80
7FFFFF80
7FFFFFC0
3FFFFFC0
3FFFBFC0
0FFE1F80
01F00000
ENDCHAR
STARTCHAR 016A
ENCODING 362
SWIDTH 495 0
DWIDTH 33 0
BBX 34 53 4 -1
BITMAP
0003FFFF80
0003FFFF80
0007FFFF80
0007FFFF00
0007FFFF00
0000000000
0000000000
0000000000
0000000000
0000000000
0000000000
01FE003FC0
01FE003FC0
01FE003FC0
03FE007FC0
03FC007F80
03FC007F80
03FC007F80
03FC00FF80
07FC00FF00
07F800FF00
07F800FF00
07F801FF00
0FF801FE00
0FF001FE00
0FF001FE00
0FF001FE00
1FF003FE00
1FE003FC00
1FE003FC00
1FE003FC00
3FE007FC00
3FC007F800
3FC007F800
3FC007F800
7FC00FF800
7F800FF000
7F800FF000
7F800FF000
7F801FF000
7F801FE000
FF801FE000
FF803FE000
7F803FC000
7FC07FC000
7FE3FF8000
7FFFFF8000
7FFFFF0000
3FFFFE0000
1FFFFE0000
0FFFF80000
07FFE00000
00FF000000
ENDCHAR
STARTCHAR 016B
ENCODING 363
SWIDTH 495 0
DWIDTH 33 0
BBX 30 44 5 -1
BITMAP
001FFFFC
003FFFF8
003FFFF8
003FFFF8
003FFFF8
007FFFF8
00000000
00000000
00000000
00000000
00000000
00000000
07F803FC
0FF807FC
0FF007F8
0FF007F8
0FF007F8
1FF00FF8
1FE00FF0
1FE00FF0
1FE00FF0
3FE01FF0
3FC01FE0
3FC01FE0
3FC01FE0
7FC03FE0
7F803FC0
7F803FC0
7F803FC0
FF803FC0
FF807F80
FF007F80
FF007F80
FF007F80
FF00FF80
FF81FF80
FFEFFF80
FFFFFF80
7FFFFF80
7FFFFFC0
3FFFFFC0
3FFFBFC0
0FFE1F80
01F00000
ENDCHAR
STARTCHAR 016C
ENCODING 364
SWIDTH 495 0
DWIDTH 33 0
BBX 34 56 4 -1
BITMAP
0001F81F80
0001F81F80
0001F81F80
0001F83F80
0001FFFF00
0001FFFF00
0000FFFE00
0000FFFC00
00007FF800
00001FE000
0000000000
0000000000
0000000000
0000000000
01FE003FC0
01FE003FC0
01FE003FC0
03FE007FC0
03FC007F80
03FC007F80
03FC007F80
03FC00FF80
07FC00FF00
07F800FF00
07F800FF00
07F801FF00
0FF801FE00
0FF001FE00
0FF001FE00
0FF001FE00
1FF003FE00
1FE003FC00
1FE003FC00
1FE003FC00
3FE007FC00
3FC007F800
3FC007F800
3FC007F800
7FC00FF800
7F800FF000
7F800FF000
7F800FF000
7F801FF000
7F801FE000
FF801FE000
FF803FE000
7F803FC000
7FC07FC000
7FE3FF8000
7FFFFF8000
7FFFFF0000
3FFFFE0000
1FFFFE0000
0FFFF80000
07FFE00000
00FF000000
ENDCHAR
STARTCHAR 016D
ENCODING 365
SWIDTH 495 0
DWIDTH 33 0
BBX 30 46 5 -1
BITMAP
001F81F8
001F81F8
001F83F8
001FC7F0
001FFFF0
001FFFE0
000FFFC0
0007FF80
0001FE00
00000000
00000000
00000000
00000000
00000000
07F803FC
0FF807FC
0FF007F8
0FF007F8
0FF007F8
1FF00FF8
1FE00FF0
1FE00FF0
1FE00FF0
3FE01FF0
3FC01FE0
3FC01FE0
3FC01FE0
7FC03FE0
7F803FC0
7F803FC0
7F803FC0
FF803FC0
FF807F80
FF007F80
FF007F80
FF007F80
FF00FF80
FF81FF80
FFEFFF80
FFFFFF80
7FFFFF80
7FFFFFC0
3FFFFFC0
3FFFBFC0
0FFE1F80
01F00000
ENDCHAR
STARTCHAR 016E
ENCODING 366
SWIDTH 495 0
DWIDTH 33 0
BBX 34 56 4 -1
BITMAP
00003F0000
00007FC000
0000FFE000
0001FFF000
0001F1F000
0003E0F000
0003E0F000
0003E0F000
0001E0F000
0001FBF000
0001FFF000
0000FFE000
00007F8000
0000040000
0000000000
01FE003FC0
01FE003FC0
03FE007FC0
03FC007F80
03FC007F80
03FC007F80
03FC00FF80
07F800FF00
07F800FF00
07F800FF00
07F801FF00
0FF801FE00
0FF001FE00
0FF001FE00
0FF001FE00
1FF003FE00
1FE003FC00
1FE003FC00
1FE003FC00
3FE007FC00
3FC007F800
3FC007F800
3FC007F800
7FC00FF800
7F800FF000
7F800FF000
7F800FF000
7F801FF000
7F801FE000
FF801FE000
FF803FE000
7F803FC000
7FC07FC000
7FE3FF8000
7FFFFF8000
7FFFFF0000
3FFFFE0000
1FFFFE0000
0FFFF80000
07FFE00000
00FF000000
ENDCHAR
STARTCHAR 016F
ENCODING 367
SWIDTH 495 0
DWIDTH 33 0
BBX 30 49 5 -1
BITMAP
0000FF00
0001FF80
0003FFC0
0003FFE0
0007C3E0
000781E0
000781E0
000783E0
0007C3E0
0003FFC0
0003FFC0
0001FF80
00007E00
00000000
00000000
00000000
00000000
07F803FC
0FF807FC
0FF007F8
0FF007F8
0FF007F8
1FF00FF8
1FE00FF0
1FE00FF0
1FE00FF0
3FE01FF0
3FC01FE0
3FC01FE0
3FC01FE0
7FC03FE0
7F803FC0
7F803FC0
7F803FC0
FF803FC0
FF807F80
FF007F80
FF007F80
FF007F80
FF00FF80
FF81FF80
FFEFFF80
FFFFFF80
7FFFFF80
7FFFFFC0
3FFFFFC0
3FFFBFC0
0FFE1F80
01F00000
ENDCHAR
STARTCHAR 0170
ENCODING 368
SWIDTH 495 0
DWIDTH 33 0
BBX 36 56 4 -1
BITMAP
0000300080
00007801C0
0000F807E0
0001FC0FF0
0003FE1FF0
0007FC3FF0
001FF87FC0
003FE0FF80
003FC0FE00
001F007C00
000E007000
0000002000
0000000000
0000000000
01FE003FC0
01FE003FC0
01FE003FC0
03FE007FC0
03FC007F80
03FC007F80
03FC007F80
03FC00FF80
07FC00FF00
07F800FF00
07F800FF00
07F801FF00
0FF801FE00
0FF001FE00
0FF001FE00
0FF001FE00
1FF003FE00
1FE003FC00
1FE003FC00
1FE003FC00
3FE007FC00
3FC007F800
3FC007F800
3FC007F800
7FC00FF800
7F800FF000
7F800FF000
7F800FF000
7F801FF000
7F801FE000
FF801FE000
FF803FE000
7F803FC000
7FC07FC000
7FE3FF8000
7FFFFF8000
7FFFFF0000
3FFFFE0000
1FFFFE0000
0FFFF80000
07FFE00000
00FF000000
ENDCHAR
STARTCHAR 0171
ENCODING 369
SWIDTH 495 0
DWIDTH 33 0
BBX 33 47 5 -1
BITMAP
0000800400
0001C00E00
0003C01F00
000FE03F80
001FF07F80
003FF1FF80
007FE3FF00
00FF87FC00
01FE07F800
00FC03E000
007003C000
0020010000
0000000000
0000000000
0000000000
07F803FC00
0FF807FC00
0FF007F800
0FF007F800
0FF007F800
1FF00FF800
1FE00FF000
1FE00FF000
1FE00FF000
3FE01FF000
3FC01FE000
3FC01FE000
3FC01FE000
7FC03FE000
7F803FC000
7F803FC000
7F803FC000
FF803FC000
FF807F8000
FF007F8000
FF007F8000
FF007F8000
FF00FF8000
FF81FF8000
FFEFFF8000
FFFFFF8000
7FFFFF8000
7FFFFFC000
3FFFFFC000
3FFFBFC000
0FFE1F8000
01F0000000
ENDCHAR
STARTCHAR 0172
ENCODING 370
SWIDTH 495 0
DWIDTH 33 0
BBX 34 52 4 -11
BITMAP
01FE003FC0
01FE003FC0
01FE003FC0
03FE007FC0
03FC007F80
03FC007F80
03FC007F80
03FC00FF80
07FC00FF00
07F800FF00
07F800FF00
07F801FF00
0FF801FE00
0FF001FE00
0FF001FE00
0FF001FE00
1FF003FE00
1FE003FC00
1FE003FC00
1FE003FC00
3FE007FC00
3FC007F800
3FC007F800
3FC007F800
7FC00FF800
7F800FF000
7F800FF000
7F800FF000
7F801FF000
7F801FE000
FF801FE000
FF803FE000
7F803FC000
7FC07FC000
7FE3FF8000
7FFFFF8000
7FFFFF0000
3FFFFE0000
1FFFFC0000
0FFFF80000
07FFF00000
00FFC00000
007F800000
00FE000000
01FC000000
03FC000000
03F8000000
07FCC00000
07FFC00000
07FFC00000
03FF800000
01FF800000
ENDCHAR
STARTCHAR 0173
ENCODING 371
SWIDTH 495 0
DWIDTH 33 0
BBX 30 42 5 -11
BITMAP
07F803FC
0FF807FC
0FF007F8
0FF007F8
0FF007F8
1FF00FF8
1FE00FF0
1FE00FF0
1FE00FF0
3FE01FF0
3FC01FE0
3FC01FE0
3FC01FE0
7FC03FE0
7F803FC0
7F803FC0
7F803FC0
FF803FC0
FF807F80
FF007F80
FF007F80
FF007F80
FF00FF80
FF81FF80
FFEFFF80
FFFFFF80
7FFFFF80
7FFFFFC0
3FFFFFC0
3FFFBFC0
0FFE1FC0
01F07F80
0000FE00
0003FC00
0007F800
0007F000
000FF000
000FF100
000FFF00
000FFF00
000FFF00
0007FE00
ENDCHAR
STARTCHAR 0174
ENCODING 372
SWIDTH 495 0
DWIDTH 33 0
BBX 37 55 3 0
BITMAP
000000C000
000001E000
000003F000
000007F800
00001FF800
00003FFC00
00007FFE00
0000FF7F00
0001FC3F80
0000F81F00
0000600E00
0000400400
0000000000
0000000000
01FE0003F8
01FC0003F8
01FC0007F8
03FC0007F8
03FC0007F0
03F80007F0
03F80007F0
03F8000FE0
07F8000FE0
07F0000FE0
07F0000FE0
07F0001FC0
07F0001FC0
0FE0001FC0
0FE0FC1FC0
0FE1FC3F80
0FE1FC3F80
0FC3FC3F80
1FC3FC3F00
1FC7FC3F00
1FC7FC7F00
1F8FFC7F00
1F8FFC7E00
3F9F7C7E00
3F9F7CFE00
3F3E7CFC00
3F3E7CFC00
3F7C7CFC00
7F7C3DFC00
7EF83FF800
7FF83FF800
7FF03FF800
7FF03FF000
7FE03FF000
FFE03FF000
FFC03FE000
FFC03FE000
FF803FE000
FF803FE000
FF003FC000
FE001FC000
ENDCHAR
STARTCHAR 0175
ENCODING 373
SWIDTH 495 0
DWIDTH 33 0
BBX 34 46 4 0
BITMAP
0000060000
00000E0000
00001F0000
00003F8000
0000FFC000
0001FFE000
0003FFE000
000FFFF000
000FE3F800
000FC1F800
000700F000
0002004000
0000000000
0000000000
0000000000
1FC0001FC0
3FC0001FC0
3F80001FC0
3F80003F80
3F80003F80
3F80003F80
3F83F03F00
3F03F07F00
3F07F07F00
7F07F07E00
7F0FF07E00
7F0FF0FE00
7F0FF0FC00
7E1FF0FC00
7E1FF1FC00
7E3FF1F800
7E7FF1F800
7E7CF3F000
7EFCFBF000
7CF8FBF000
7DF8FFE000
7DF0FFE000
FFF0FFE000
FFE0FFC000
FFE0FFC000
FFC0FF8000
FF80FF8000
FF80FF0000
FF00FF0000
FF00FE0000
FE00FE0000
ENDCHAR
STARTCHAR 0176
ENCODING 374
SWIDTH 495 0
DWIDTH 33 0
BBX 31 55 10 0
BITMAP
00003000
00007800
0001F800
0003FC00
0007FE00
000FFF00
003FFF80
007FBF80
007F1FC0
007C0F80
00380700
00000000
00000000
00000000
FF0003FE
FF0007FC
FF0007FC
FF000FF8
FF000FF0
FF001FF0
7F003FE0
7F803FC0
7F807FC0
7F807F80
7F80FF00
7F81FF00
3F81FE00
3FC3FC00
3FC7FC00
3FC7F800
1FCFF000
1FFFE000
1FFFE000
1FFFC000
0FFF8000
0FFF0000
0FFF0000
07FE0000
07FC0000
07F80000
07F80000
07F80000
0FF80000
0FF00000
0FF00000
0FF00000
1FF00000
1FE00000
1FE00000
1FE00000
3FE00000
3FC00000
3FC00000
3FC00000
3FC00000
ENDCHAR
STARTCHAR 0177
ENCODING 375
SWIDTH 495 0
DWIDTH 33 0
BBX 39 57 -3 -11
BITMAP
0000000C00
0000001C00
0000003E00
0000007F00
000001FF80
000003FFC0
000007FFC0
00001FFFE0
00001FC7F0
00001F83F0
00000E01E0
0000040080
0000000000
0000000000
0000000000
001FE001FE
001FE003FE
001FE003FE
001FE003FC
001FE007FC
001FE007F8
001FE007F8
001FE00FF8
001FF00FF0
001FF01FF0
001FF01FE0
000FF01FE0
000FF03FC0
000FF03FC0
000FF07F80
000FF07F80
000FF0FF00
000FF0FF00
0007F9FE00
0007F9FE00
0007FBFC00
0007FFFC00
0007FFF800
0003FFF000
0003FFF000
0003FFE000
0003FFC000
0003FFC000
0001FF8000
0001FF0000
0001FF0000
0003FE0000
0007FC0000
000FF80000
001FF80000
3FFFF00000
3FFFE00000
7FFFC00000
7FFF000000
7FFE000000
FFF8000000
3FE0000000
ENDCHAR
STARTCHAR 0178
ENCODING 376
SWIDTH 495 0
DWIDTH 33 0
BBX 31 54 10 0
BITMAP
00F807C0
01FC0FE0
03FC1FF0
03FE1FF0
03FC1FF0
03FC1FE0
03FC1FE0
01F80FC0
00E00780
00000000
00000000
00000000
00000000
FF0003FE
FF0007FC
FF0007FC
FF000FF8
FF000FF0
FF001FF0
7F003FE0
7F803FC0
7F807FC0
7F807F80
7F80FF00
7F81FF00
3F81FE00
3FC3FC00
3FC7FC00
3FC7F800
1FCFF000
1FFFE000
1FFFE000
1FFFC000
0FFF8000
0FFF0000
0FFF0000
07FE0000
07FC0000
07F80000
07F80000
07F80000
0FF80000
0FF00000
0FF00000
0FF00000
1FF00000
1FE00000
1FE00000
1FE00000
3FE00000
3FC00000
3FC00000
3FC00000
3FC00000
ENDCHAR
STARTCHAR 0179
ENCODING 377
SWIDTH 495 0
DWIDTH 33 0
BBX 36 55 2 0
BITMAP
0000000C00
0000001E00
0000003E00
000000FF00
000001FF00
000003FF80
00000FFF00
00001FFC00
00001FF800
00000FE000
0000078000
0000060000
0000000000
0000000000
003FFFFFF0
003FFFFFF0
003FFFFFE0
007FFFFFE0
007FFFFFE0
007FFFFFE0
0000007FC0
000000FF80
000001FF80
000001FF00
000003FE00
000007FC00
00000FF800
00001FF000
00003FE000
00007FC000
00007FC000
0000FF8000
0001FF0000
0003FE0000
0007FC0000
000FF80000
001FF00000
001FF00000
003FE00000
007FC00000
00FF800000
01FF000000
01FE000000
03FE000000
07FC000000
0FF8000000
1FF0000000
1FE0000000
3FFFFFF800
7FFFFFF000
7FFFFFF000
7FFFFFF000
FFFFFFF000
FFFFFFE000
FFFFFFE000
ENDCHAR
STARTCHAR 017A
ENCODING 378
SWIDTH 495 0
DWIDTH 33 0
BBX 32 46 3 0
BITMAP
00000040
000000E0
000003F0
000007F0
00000FF8
00003FFC
00007FF8
0000FFF0
0000FFC0
00007F00
00007C00
00003000
00000000
00000000
00000000
00FFFFFF
00FFFFFF
00FFFFFF
01FFFFFE
01FFFFFE
01FFFFFE
00000FFC
00001FF8
00003FF0
00007FE0
0000FFC0
0001FF80
0003FF00
0007FE00
000FFC00
001FF000
003FE000
007FC000
00FF8000
01FF0000
03FE0000
07FE0000
0FFC0000
1FF80000
1FFFFFE0
3FFFFFE0
7FFFFFC0
7FFFFFC0
7FFFFFC0
7FFFFFC0
FFFFFF80
ENDCHAR
STARTCHAR 017B
ENCODING 379
SWIDTH 495 0
DWIDTH 33 0
BBX 36 54 2 0
BITMAP
000003F000
000007F800
000007F800
00000FFC00
00000FFC00
00000FF800
00000FF800
000007F000
000003E000
0000000000
0000000000
0000000000
0000000000
003FFFFFF0
003FFFFFF0
003FFFFFE0
007FFFFFE0
007FFFFFE0
007FFFFFE0
0000007FC0
000000FF80
000001FF80
000001FF00
000003FE00
000007FC00
00000FF800
00001FF000
00003FE000
00007FC000
00007FC000
0000FF8000
0001FF0000
0003FE0000
0007FC0000
000FF80000
001FF00000
001FF00000
003FE00000
007FC00000
00FF800000
01FF000000
01FE000000
03FE000000
07FC000000
0FF8000000
1FF0000000
1FE0000000
3FFFFFF800
7FFFFFF000
7FFFFFF000
7FFFFFF000
FFFFFFF000
FFFFFFE000
FFFFFFE000
ENDCHAR
STARTCHAR 017C
ENCODING 380
SWIDTH 495 0
DWIDTH 33 0
BBX 32 45 3 0
BITMAP
00000780
00001FE0
00001FE0
00003FE0
00003FE0
00003FE0
00003FE0
00001FC0
00001F80
00000000
00000000
00000000
00000000
00000000
00FFFFFF
00FFFFFF
00FFFFFF
01FFFFFE
01FFFFFE
01FFFFFE
00000FFC
00001FF8
00003FF0
00007FE0
0000FFC0
0001FF80
0003FF00
0007FE00
000FFC00
001FF000
003FE000
007FC000
00FF8000
01FF0000
03FE0000
07FE0000
0FFC0000
1FF80000
1FFFFFE0
3FFFFFE0
7FFFFFC0
7FFFFFC0
7FFFFFC0
7FFFFFC0
FFFFFF80
ENDCHAR
STARTCHAR 017D
ENCODING 381
SWIDTH 495 0
DWIDTH 33 0
BBX 36 55 2 0
BITMAP
0000300300
0000780F00
0000FC1F80
0000FF7FC0
00007FFF00
00003FFE00
00001FFC00
00000FF800
00000FE000
000007C000
0000038000
0000000000
0000000000
0000000000
003FFFFFF0
003FFFFFF0
003FFFFFE0
007FFFFFE0
007FFFFFE0
007FFFFFE0
0000007FC0
000000FF80
000001FF80
000001FF00
000003FE00
000007FC00
00000FF800
00001FF000
00003FE000
00007FC000
00007FC000
0000FF8000
0001FF0000
0003FE0000
0007FC0000
000FF80000
001FF00000
001FF00000
003FE00000
007FC00000
00FF800000
01FF000000
01FE000000
03FE000000
07FC000000
0FF8000000
1FF0000000
1FE0000000
3FFFFFF800
7FFFFFF000
7FFFFFF000
7FFFFFF000
FFFFFFF000
FFFFFFE000
FFFFFFE000
ENDCHAR
STARTCHAR 017E
ENCODING 382
SWIDTH 495 0
DWIDTH 33 0
BBX 32 46 3 0
BITMAP
0000C008
0001E03C
0003F07E
0003F9FE
0001FFFC
0001FFF8
0000FFF0
00007FE0
00003F80
00001F00
00000E00
00000800
00000000
00000000
00000000
00FFFFFF
00FFFFFF
00FFFFFF
01FFFFFE
01FFFFFE
01FFFFFE
00000FFC
00001FF8
00003FF0
00007FE0
0000FFC0
0001FF80
0003FF00
0007FE00
000FFC00
001FF000
003FE000
007FC000
00FF8000
01FF0000
03FE0000
07FE0000
0FFC0000
1FF80000
1FFFFFE0
3FFFFFE0
7FFFFFC0
7FFFFFC0
7FFFFFC0
7FFFFFC0
FFFFFF80
ENDCHAR
STARTCHAR 017F
ENCODING 383
SWIDTH 495 0
DWIDTH 33 0
BBX 42 57 -2 -11
BITMAP
0000000FFE00
0000003FFFC0
000000FFFFC0
000001FFFFC0
000003FFFF80
000007FFFF80
000007FFFF00
00000FFC0300
00000FF80000
00001FF00000
00001FE00000
00001FE00000
00001FE00000
00003FE00000
00003FC00000
00003FC00000
00003FC00000
00003FC00000
00007FC00000
00007F800000
00007F800000
00007F800000
00007F800000
0000FF800000
0000FF000000
0000FF000000
0000FF000000
0000FF000000
0001FF000000
0001FE000000
0001FE000000
0001FE000000
0001FE000000
0003FE000000
0003FC000000
0003FC000000
0003FC000000
0003FC000000
0007FC000000
0007F8000000
0007F8000000
0007F8000000
0007F8000000
000FF8000000
000FF0000000
000FF0000000
001FF0000000
001FF0000000
003FE0000000
31FFE0000000
7FFFC0000000
7FFFC0000000
7FFF80000000
FFFF00000000
FFFE00000000
FFF800000000
7FE000000000
ENDCHAR
STARTCHAR 0180
ENCODING 384
SWIDTH 495 0
DWIDTH 33 0
BBX 30 47 4 -1
BITMAP
0003C000
003FC000
003FC000
003FC000
007F8000
07FFFFC0
07FFFF80
07FFFF80
07FFFF80
0FFFFF80
0FFFFF80
00FF0000
01FF0000
01FE0000
01FE0C00
01FFFF80
03FFFFE0
03FFFFF0
03FFFFF0
03FFFFF8
03FFFFF8
07FF1FFC
07FC07FC
07F807FC
07F803FC
0FF003FC
0FF003FC
0FF003FC
0FF003FC
1FE003FC
1FE003FC
1FE007FC
1FE007F8
3FE007F8
3FC00FF8
3FC00FF0
3FC01FF0
7FC03FE0
7F807FE0
7F83FFC0
7FFFFF80
FFFFFF00
FFFFFE00
FFFFFC00
FFFFF800
3FFFE000
01FE0000
ENDCHAR
STARTCHAR 0181
ENCODING 385
SWIDTH 495 0
DWIDTH 33 0
BBX 31 43 6 -1
BITMAP
0003FC00
00FFFF80
07FFFFE0
0FFFFFF0
1FFFFFF8
3FFFFFFC
7FFFEFFC
7F1FC1FC
FE1FC1FE
FE3FC0FE
FC3F80FE
FC3F80FE
FC3F81FC
F87F81FC
007F01FC
007F03F8
007F07F8
00FFFFF0
00FFFFC0
00FFFF80
00FFFF00
01FFFFC0
01FFFFE0
01FFFFE0
01FC0FF0
03FC07F0
03F807F0
03F807F0
03F807F0
07F807F0
07F807F0
07F007F0
07F00FF0
07F01FE0
0FF03FE0
0FE07FC0
0FFFFFC0
0FFFFF80
1FFFFF00
1FFFFE00
1FFFF800
1FFFE000
00080000
ENDCHAR
STARTCHAR 0182
ENCODING 386
SWIDTH 495 0
DWIDTH 33 0
BBX 33 42 2 -1
BITMAP
003FFFFF80
003FFFFF80
007FFFFF80
007FFFFF00
007FFFFF00
007FFFFF00
00FFFFFF00
00FF000000
00FF000000
00FF000000
01FF000000
01FE000000
01FE000000
01FE000000
03FFF00000
03FFFF8000
03FFFFE000
03FFFFF000
07FFFFF800
07FFFFF800
07FFFFFC00
07F87FFC00
0FF807FE00
0FF003FE00
0FF003FE00
0FF001FE00
1FF001FE00
1FE001FE00
1FE003FE00
1FE003FE00
1FE003FC00
3FC007FC00
3FC00FFC00
3FC03FF800
3FFFFFF000
7FFFFFF000
7FFFFFE000
7FFFFF8000
7FFFFF0000
FFFFFC0000
7FFFE00000
0028000000
ENDCHAR
STARTCHAR 0183
ENCODING 387
SWIDTH 495 0
DWIDTH 33 0
BBX 33 47 3 -1
BITMAP
003FFFFF80
003FFFFF80
003FFFFF80
003FFFFF80
007FFFFF00
007FFFFF00
007FFFFF00
007F800000
00FF800000
00FF000000
00FF000000
00FF000000
01FF000000
01FE000000
01FE3F0000
01FFFFC000
03FFFFE000
03FFFFF000
03FFFFF800
03FFFFF800
03FFFFFC00
07FE0FFC00
07F807FC00
07F803FC00
07F803FC00
0FF803FC00
0FF003FC00
0FF003FC00
0FF003FC00
1FF003FC00
1FE003FC00
1FE003FC00
1FE007FC00
3FE007F800
3FC007F800
3FC00FF800
3FC01FF000
7FC03FF000
7F807FE000
7F81FFE000
7FFFFFC000
FFFFFF8000
FFFFFF0000
FFFFFC0000
FFFFF80000
3FFFE00000
01FE000000
ENDCHAR
STARTCHAR 0184
ENCODING 388
SWIDTH 495 0
DWIDTH 33 0
BBX 31 47 3 -1
BITMAP
00006000
0003E000
001FE000
00FFC000
03FFC000
07FFC000
03FFC000
03FF8000
01FF8000
00FF8000
00FF8000
00FF0000
00FF0000
00FF0000
00FF3F80
01FFFFE0
01FFFFF0
01FFFFF8
01FFFFF8
03FFFFFC
03FFFFFC
03FF07FE
03FC03FE
07FC03FE
07F801FE
07F801FE
07F801FE
0FF801FE
0FF001FE
0FF001FE
0FF003FE
1FF003FC
1FE003FC
1FE003FC
1FE007FC
3FE00FF8
3FC00FF8
3FC01FF0
3FC07FF0
7FC1FFE0
7FFFFFC0
7FFFFF80
7FFFFF00
7FFFFE00
FFFFF800
3FFFE000
01FF0000
ENDCHAR
STARTCHAR 0185
ENCODING 389
SWIDTH 495 0
DWIDTH 33 0
BBX 30 43 4 -1
BITMAP
00004000
0007C000
001FC000
00FF8000
03FF8000
0FFF8000
0FFF8000
07FF0000
03FF0000
03FF0000
01FF0000
01FE0000
01FE0000
01FE0000
01FE0000
03FFFC00
03FFFF00
03FFFFC0
03FFFFE0
07FFFFF0
07FFFFF0
07FFFFF8
07F81FF8
0FF80FF8
0FF007FC
0FF007FC
0FF003FC
0FF003FC
1FE007F8
1FE007F8
1FE007F8
1FE00FF8
3FC00FF0
3FC01FF0
3FC07FE0
3FFFFFE0
7FFFFFC0
7FFFFF80
7FFFFF00
7FFFFC00
FFFFF800
7FFFC000
00A00000
ENDCHAR
STARTCHAR 0186
ENCODING 390
SWIDTH 495 0
DWIDTH 33 0
BBX 32 43 2 -1
BITMAP
0007FE00
003FFF80
00FFFFE0
00FFFFF0
00FFFFF8
00FFFFFC
00FFFFFC
00780FFE
004007FE
000003FE
000001FF
000001FF
000001FF
000000FF
000000FF
000000FF
000000FF
000000FF
000000FF
000000FF
000000FF
000001FF
000001FE
000001FE
000001FE
000001FE
000003FE
000003FC
000007FC
000007FC
00000FF8
00000FF8
00001FF0
00003FF0
3800FFE0
3F07FFC0
7FFFFF80
7FFFFF80
FFFFFE00
FFFFFC00
7FFFF800
1FFFE000
01FE0000
ENDCHAR
STARTCHAR 0187
ENCODING 391
SWIDTH 495 0
DWIDTH 33 0
BBX 39 48 5 -1
BITMAP
00000001F0
00000007FE
0000000FFC
0000001FFC
0000001FF8
0000FFFFF8
0003FFFFF0
000FFFFF10
001FFFFE00
007FFFFC00
00FFFFFC00
01FFFFF800
01FFC07800
03FF001800
07FE000000
07FC000000
0FF8000000
0FF0000000
1FF0000000
1FE0000000
3FE0000000
3FC0000000
3FC0000000
7FC0000000
7FC0000000
7F80000000
7F80000000
7F80000000
7F80000000
FF80000000
FF80000000
FF80000000
FF80000000
FF80000000
FF80000000
FF80000000
FF80000000
7F80000000
7FC0000000
7FE0060000
7FF87E0000
3FFFFE0000
3FFFFF0000
1FFFFF0000
0FFFFF0000
07FFFE0000
03FFF80000
007F800000
ENDCHAR
STARTCHAR 0188
ENCODING 392
SWIDTH 495 0
DWIDTH 33 0
BBX 35 38 5 -1
BITMAP
0000003FE0
000000FFE0
000001FFE0
000001FFC0
000003FFC0
0003FFFF80
001FFFF180
007FFFE000
01FFFFC000
03FFFFC000
07FFFF8000
0FFFFF8000
1FFE030000
1FF8000000
3FF0000000
3FE0000000
7FC0000000
7F80000000
7F80000000
FF80000000
FF00000000
FF00000000
FF00000000
FF00000000
FF00000000
FF00000000
FF00000000
FF80000000
FF80000000
FFE0000000
7FFFF80000
7FFFFC0000
3FFFFC0000
1FFFFC0000
1FFFFC0000
07FFFC0000
03FFF80000
003FC00000
ENDCHAR
STARTCHAR 0189
ENCODING 393
SWIDTH 495 0
DWIDTH 33 0
BBX 32 43 3 -1
BITMAP
0003FC00
003FFF80
003FFFE0
007FFFF0
007FFFF8
007FFFFC
007FFFFC
00FF8FFE
00FF03FE
00FF01FF
00FF01FF
00FF00FF
01FE00FF
01FE00FF
01FE00FF
01FE00FF
03FC00FF
3FFFC0FF
3FFFC0FF
3FFFC0FF
3FFFC0FF
7FFF81FF
7FFF81FF
7FFF81FE
0FF001FE
0FF003FE
0FF003FE
0FF003FC
1FF007FC
1FE007F8
1FE00FF8
1FE01FF8
3FE03FF0
3FC07FE0
3FC1FFE0
3FFFFFC0
3FFFFF80
7FFFFF00
7FFFFE00
7FFFF800
7FFFE000
FFFF8000
01400000
ENDCHAR
STARTCHAR 018A
ENCODING 394
SWIDTH 495 0
DWIDTH 33 0
BBX 31 43 6 -1
BITMAP
000FF000
00FFFF00
07FFFFC0
0FFFFFE0
1FFFFFF0
3FFFFFF8
7FFFEFF8
7F1FC3FC
7E1FC1FC
FE3FC1FC
FC3F81FC
FC3F81FE
FC3F81FE
F87F81FE
007F01FE
007F01FE
007F01FE
00FF01FC
00FE01FC
00FE01FC
00FE01FC
01FE01FC
01FC03FC
01FC03FC
01FC03F8
03FC03F8
03FC07F8
03F807F0
03F807F0
03F80FF0
07F80FE0
07F01FE0
07F01FC0
07F03FC0
0FF07F80
0FE1FF00
0FFFFF00
0FFFFE00
1FFFFC00
1FFFF000
1FFFE000
1FFF8000
00580000
ENDCHAR
STARTCHAR 018B
ENCODING 395
SWIDTH 495 0
DWIDTH 33 0
BBX 34 41 4 0
BITMAP
003FFFFFC0
003FFFFFC0
003FFFFFC0
007FFFFFC0
007FFFFFC0
007FFFFF80
007FFFFF80
0000007F80
000000FF80
000000FF00
000000FF00
000000FF00
000001FF00
000001FE00
00007FFE00
001FFFFE00
00FFFFFE00
01FFFFFC00
07FFFFFC00
0FFFFFFC00
1FFFFFFC00
3FFF87F800
3FF807F800
7FE007F800
7FC00FF800
7F800FF000
FF800FF000
FF000FF000
FF001FF000
FF001FE000
FF001FE000
FF801FE000
FF801FE000
7FE03FE000
7FFFFFC000
3FFFFFC000
3FFFFFC000
1FFFFFC000
0FFFFF8000
03FFFF8000
00FFFF0000
ENDCHAR
STARTCHAR 018C
ENCODING 396
SWIDTH 495 0
DWIDTH 33 0
BBX 35 47 4 -1
BITMAP
000FFFFFE0
001FFFFFC0
001FFFFFC0
001FFFFFC0
001FFFFFC0
001FFFFFC0
003FFFFF80
0000007F80
0000007F80
000000FF80
000000FF00
000000FF00
000000FF00
000001FF00
00007FFE00
0007FFFE00
003FFFFE00
007FFFFE00
01FFFFFC00
03FFFFFC00
07FFFFFC00
0FFE03FC00
0FFC07F800
1FF007F800
1FE007F800
3FE007F800
3FC00FF000
7FC00FF000
7F800FF000
7F800FF000
7F801FF000
FF801FE000
FF001FE000
FF001FE000
FF003FE000
FF003FC000
FF803FC000
FF803FC000
7FC0FFC000
7FE1FFC000
7FFFFFC000
3FFFFFE000
3FFFFFE000
1FFFFFE000
0FFFCFE000
07FF0FE000
00F8080000
ENDCHAR
STARTCHAR 018D
ENCODING 397
SWIDTH 495 0
DWIDTH 33 0
BBX 32 43 2 -11
BITMAP
0001FF80
0007FFE0
001FFFF8
007FFFFC
00FFFFFC
01FFFFFE
03FFFFFF
03FF03FF
07FE01FF
07FC00FF
0FF800FF
0FF000FF
0FF000FF
0FF000FF
1FF000FF
1FE001FF
1FE001FE
1FF003FE
1FF003FC
1FF007FC
0FF80FF8
0FFC1FF0
07FE7FF0
07FFFFE0
03FFFFC0
01FFFF00
00FFFE00
007FF800
003FFC00
001FFC00
0007FE00
0003FE00
0001FE00
0001FE00
0001FE00
3001FE00
3F07FE00
7FFFFE00
7FFFFC00
FFFFF800
FFFFF000
7FFFE000
0FFF0000
ENDCHAR
STARTCHAR 018E
ENCODING 398
SWIDTH 495 0
DWIDTH 33 0
BBX 35 41 2 0
BITMAP
003FFFFFE0
003FFFFFE0
003FFFFFE0
003FFFFFE0
007FFFFFE0
007FFFFFC0
007FFFFFC0
0000003FC0
0000007FC0
0000007F80
0000007F80
0000007F80
000000FF80
000000FF00
000000FF00
000000FF00
007FFFFF00
00FFFFFE00
00FFFFFE00
00FFFFFE00
00FFFFFE00
00FFFFFC00
01FFFFFC00
000003FC00
000007FC00
000007F800
000007F800
000007F800
000007F800
00000FF800
00000FF000
00000FF000
00000FF000
00001FF000
3FFFFFE000
7FFFFFE000
7FFFFFE000
7FFFFFE000
7FFFFFC000
FFFFFFC000
FFFFFFC000
ENDCHAR
STARTCHAR 018F
ENCODING 399
SWIDTH 495 0
DWIDTH 33 0
BBX 32 43 4 -1
BITMAP
001FFE00
00FFFF80
01FFFFE0
01FFFFF0
01FFFFF8
01FFFFFC
01FFFFFC
01E01FFE
000003FE
000001FE
000001FF
000000FF
000000FF
000000FF
000000FF
000000FF
000000FF
000000FF
000000FF
7FFFFFFF
7FFFFFFE
7FFFFFFE
7FFFFFFE
7FFFFFFE
7FFFFFFE
FF0003FC
FF0003FC
FF0003FC
FF0007FC
FF0007F8
FF000FF8
FF000FF0
7F001FF0
7F003FE0
7F807FE0
7FC0FFC0
3FFFFF80
3FFFFF00
1FFFFE00
0FFFFC00
07FFF800
03FFE000
007F0000
ENDCHAR
STARTCHAR 0190
ENCODING 400
SWIDTH 495 0
DWIDTH 33 0
BBX 33 43 5 -1
BITMAP
0000FFF800
0003FFFF00
000FFFFF80
003FFFFF80
007FFFFF80
00FFFFFF00
01FFFFFF00
01FFC01E00
03FF000200
03FE000000
03FC000000
03FC000000
03FC000000
03FC000000
03FC000000
03FE000000
01FF800000
01FFFFC000
00FFFF8000
007FFF8000
00FFFF8000
03FFFF8000
07FFFF8000
1FFFFF0000
1FFC000000
3FE0000000
7FC0000000
7F80000000
FF00000000
FF00000000
FF00000000
FF00000000
FF00000000
FF00000000
FFC001C000
FFF01FC000
FFFFFFC000
7FFFFFE000
3FFFFFE000
1FFFFFE000
0FFFFFC000
03FFFF0000
003FE00000
ENDCHAR
STARTCHAR 0191
ENCODING 401
SWIDTH 495 0
DWIDTH 33 0
BBX 44 52 -5 -11
BITMAP
00003FFFFFF0
00003FFFFFF0
00003FFFFFE0
00003FFFFFE0
00003FFFFFE0
00007FFFFFE0
00007FFFFFC0
00007F800000
00007F800000
0000FF800000
0000FF000000
0000FF000000
0000FF000000
0001FF000000
0001FE000000
0001FE000000
0001FE000000
0003FFFFFC00
0003FFFFF800
0003FFFFF800
0003FFFFF800
0007FFFFF800
0007FFFFF000
0007F8000000
0007F8000000
000FF8000000
000FF8000000
000FF0000000
000FF0000000
000FF0000000
001FF0000000
001FE0000000
001FE0000000
001FE0000000
003FE0000000
003FC0000000
003FC0000000
003FC0000000
007FC0000000
007F80000000
007F80000000
007F80000000
00FF80000000
00FF00000000
01FF00000000
3FFF00000000
7FFE00000000
7FFE00000000
7FFC00000000
FFF800000000
FFF000000000
FF8000000000
ENDCHAR
STARTCHAR 0192
ENCODING 402
SWIDTH 495 0
DWIDTH 33 0
BBX 41 57 -2 -11
BITMAP
0000000FFE00
0000003FFF80
000000FFFF80
000001FFFF00
000003FFFF00
000007FFFF00
000007FFFE00
00000FFC0600
00000FF80000
00001FF00000
00001FE00000
00001FE00000
00001FE00000
00003FE00000
00003FC00000
000FFFFFFC00
001FFFFFF800
001FFFFFF800
001FFFFFF800
001FFFFFF800
003FFFFFF000
00007F800000
00007F800000
0000FF800000
0000FF000000
0000FF000000
0000FF000000
0000FF000000
0001FF000000
0001FE000000
0001FE000000
0001FE000000
0001FE000000
0003FE000000
0003FC000000
0003FC000000
0003FC000000
0003FC000000
0007FC000000
0007FC000000
0007F8000000
0007F8000000
0007F8000000
000FF8000000
000FF0000000
000FF0000000
001FF0000000
001FF0000000
003FE0000000
31FFE0000000
7FFFC0000000
7FFFC0000000
7FFF80000000
FFFF00000000
FFFE00000000
FFF800000000
7FE000000000
ENDCHAR
STARTCHAR 0193
ENCODING 403
SWIDTH 495 0
DWIDTH 33 0
BBX 38 48 5 -1
BITMAP
00000001F0
00000007FC
0000000FFC
0000001FFC
0000001FF8
0000FFFFF8
0003FFFFF0
000FFFFF10
003FFFFE00
007FFFFC00
00FFFFFC00
01FFFFF800
03FFC0F800
03FF001000
07FE000000
07FC000000
0FF8000000
1FF0000000
1FF0000000
1FE0000000
3FE0000000
3FC0000000
3FC0000000
7FC0000000
7F80000000
7F8007F800
7F8007F800
7F8007F800
FF800FF800
FF800FF000
FF000FF000
FF000FF000
FF001FF000
FF001FE000
FF801FE000
FF801FE000
FF803FE000
7F803FC000
7FC03FC000
7FE03FC000
7FF87FC000
3FFFFF8000
3FFFFF8000
1FFFFF8000
0FFFFF8000
07FFFF8000
03FFFE0000
007FC00000
ENDCHAR
STARTCHAR 0194
ENCODING 404
SWIDTH 495 0
DWIDTH 33 0
BBX 34 52 7 -11
BITMAP
3FC0003FC0
3FC0003FC0
1FC0007F80
1FC000FF00
1FC000FF00
1FE001FE00
1FE001FC00
1FE003FC00
0FE007F800
0FE007F800
0FE00FF000
0FF01FE000
0FF01FE000
07F03FC000
07F07F8000
07F07F8000
07F0FF0000
07F9FE0000
03F9FE0000
03FBFC0000
03FFF80000
03FFF80000
01FFF00000
01FFE00000
01FFE00000
01FFC00000
00FF800000
00FF000000
00FF000000
01FE000000
03FF000000
03FF000000
07FF000000
0FFF000000
1FFF800000
1FDF800000
3F9F800000
3F9F800000
7F1FC00000
7E1FC00000
FE0FC00000
FC0FC00000
FC0FC00000
FC1FC00000
FC1FC00000
FFFFC00000
FFFF800000
FFFF800000
7FFF000000
7FFE000000
1FFC000000
07E0000000
ENDCHAR
STARTCHAR 0195
ENCODING 405
SWIDTH 495 0
DWIDTH 33 0
BBX 37 47 1 -1
BITMAP
0003800000
003F800000
003F800000
003F800000
003F000000
003F000000
007F000000
007F000000
007E000000
007E000000
00FE000000
00FE000000
00FC000000
00FC000000
01FDF00000
01FFFC03F8
01FFFE03F8
01FFFE03F0
03FFFF03F0
03FFFF03F0
03F8FF07F0
03F07F07F0
07F07F07E0
07F07E07E0
07F07E0FE0
07E0FE0FE0
07E0FE0FC0
0FE0FC0FC0
0FE0FC1FC0
0FC0FC1FC0
0FC1FC1F80
1FC1FC1F80
1FC1F83F80
1F81F83F80
1F83F83F00
3F83F83F00
3F83F87F00
3F03F07F00
3F03F07E00
7F03F8FE00
7F03F8FE00
7E03FFFC00
7E03FFFC00
FE03FFF800
FE01FFF000
FC00FFE000
00003F0000
ENDCHAR
STARTCHAR 0196
ENCODING 406
SWIDTH 495 0
DWIDTH 33 0
BBX 26 42 10 -1
BITMAP
7FFFFFC0
7FFFFFC0
7FFFFFC0
7FFFFFC0
FFFFFF80
FFFFFF80
FFFFFF80
01FF0000
01FE0000
01FE0000
01FE0000
03FE0000
03FC0000
03FC0000
03FC0000
07FC0000
07F80000
07F80000
07F80000
0FF80000
0FF80000
0FF00000
0FF00000
0FF00000
1FF00000
1FE00000
1FE00000
1FE00000
3FE00000
3FC00000
3FC00000
3FC00000
3FC00000
3FE00000
3FFDF800
3FFFF800
3FFFF800
3FFFF800
1FFFF800
0FFFF800
07FFF000
00FF0000
ENDCHAR
STARTCHAR 0197
ENCODING 407
SWIDTH 495 0
DWIDTH 33 0
BBX 36 41 2 0
BITMAP
003FFFFFF0
003FFFFFF0
003FFFFFF0
007FFFFFF0
007FFFFFE0
007FFFFFE0
007FFFFFE0
00007FC000
00007F8000
00007F8000
00007F8000
0000FF8000
0000FF0000
0000FF0000
0000FF0000
0001FF0000
007FFFF800
007FFFF800
007FFFF800
00FFFFF800
00FFFFF000
00FFFFF000
00FFFFF000
0003FC0000
0007FC0000
0007F80000
0007F80000
0007F80000
000FF80000
000FF00000
000FF00000
000FF00000
001FF00000
001FE00000
3FFFFFF000
3FFFFFF000
7FFFFFF000
7FFFFFE000
7FFFFFE000
7FFFFFE000
FFFFFFE000
ENDCHAR
STARTCHAR 0198
ENCODING 408
SWIDTH 495 0
DWIDTH 33 0
BBX 40 42 2 0
BITMAP
00000001F8
003FC007FE
003FC00FFF
007F801FFF
007F803FFE
007F807FFE
007F80FFFC
00FF81FFF8
00FF03FE00
00FF07FC00
00FF0FF800
01FF0FF000
01FE1FE000
01FE3FC000
01FE7FC000
03FEFF8000
03FDFF0000
03FFFE0000
03FFFC0000
07FFF80000
07FFF80000
07FFF80000
07FFFC0000
0FFFFE0000
0FF3FE0000
0FF1FF0000
0FF1FF0000
1FF0FF8000
1FE0FF8000
1FE07FC000
1FE07FC000
1FE03FE000
3FE03FE000
3FC01FF000
3FC01FF000
3FC00FF000
7FC00FF800
7F800FF800
7F8007F800
7F8007F800
FF8007FC00
FF0007FC00
ENDCHAR
STARTCHAR 0199
ENCODING 409
SWIDTH 495 0
DWIDTH 33 0
BBX 33 46 4 0
BITMAP
0000FF8000
0003FF8000
000FFF8000
001FFF0000
001FFF0000
003FFF0000
003FFE0000
007FC00000
007F800000
00FF800000
00FF000000
00FF000000
00FF000000
01FF000000
01FE000000
01FE00FF80
01FE01FF00
03FE03FE00
03FC07FC00
03FC0FF800
03FC1FF000
03FC3FE000
07F87FC000
07F8FF8000
07F9FF0000
07FBFE0000
0FFFFC0000
0FFFF80000
0FFFF00000
0FFFE00000
1FFFF00000
1FEFF80000
1FE7F80000
1FE7FC0000
3FE3FC0000
3FC3FE0000
3FC1FF0000
3FC1FF0000
7FC0FF8000
7F80FF8000
7F807FC000
7F807FC000
FF803FC000
FF003FE000
FF003FE000
FF001FF000
ENDCHAR
STARTCHAR 019A
ENCODING 410
SWIDTH 495 0
DWIDTH 33 0
BBX 27 47 6 -1
BITMAP
03FFFE00
03FFFE00
07FFFC00
07FFFC00
07FFFC00
07FFFC00
0FFFF800
0007F800
0007F800
000FF800
000FF000
000FF000
000FF000
000FF000
001FE000
001FE000
001FE000
001FE000
003FC000
7FFFFFE0
7FFFFFE0
7FFFFFE0
7FFFFFC0
7FFFFFC0
FFFFFFC0
007F8000
00FF8000
00FF0000
00FF0000
00FF0000
01FF0000
01FE0000
01FE0000
01FE0000
03FE0000
03FE0000
03FE0000
03FE0000
03FE0080
03FFDF80
03FFFF80
01FFFF80
01FFFF80
00FFFF80
007FFF80
003FFE00
000FE000
ENDCHAR
STARTCHAR 019B
ENCODING 411
SWIDTH 495 0
DWIDTH 33 0
BBX 33 46 10 0
BITMAP
003FE00000
003FF80000
003FFC0000
003FFE0000
003FFE0700
003FFF3F00
0077FFFF00
0000FFFF80
00007FFF00
0003FFF800
001FFFC000
003FFF8000
003FFFC000
003FBFC000
003C3FC000
00207FC000
00007FC000
0000FFE000
0001FFE000
0003FFE000
0003FFE000
0007FFE000
000FFFE000
000FFFE000
001FFFF000
003FCFF000
003FCFF000
007F8FF000
00FF8FF000
00FF0FF000
01FF0FF000
01FE0FF000
03FC0FF000
07FC0FF000
07F80FF800
0FF80FF800
0FF00FF800
1FF00FF800
1FE00FF800
3FE00FF800
3FC00FF800
7FC00FF800
7F800FF800
FF800FF800
FF800FF800
FF000FF800
ENDCHAR
STARTCHAR 019C
ENCODING 412
SWIDTH 495 0
DWIDTH 33 0
BBX 38 42 2 -1
BITMAP
00FE0001FC
00FC0001FC
01FC0001FC
01FC0001F8
01FC0003F8
01F80003F8
01F80003F8
03F80003F0
03F80007F0
03F00007F0
03F00007F0
07F00007E0
07F0000FE0
07F0000FE0
07E0000FE0
0FE0FE0FC0
0FE0FC0FC0
0FE0FC1FC0
0FC1FC1FC0
1FC1FC1F80
1FC1F81F80
1FC1F83F80
1F81F83F80
3F83F83F80
3F83F03F00
3F83F07F00
3F03F07F00
3F07F07F00
7F07F07E00
7F07E0FE00
7E07E0FE00
7E07E0FE00
7E0FE0FC00
FE0FE1FC00
FF0FF1FC00
FFFFFFFC00
7FFFFFF800
7FFFFFF800
7FFFFFF800
3FFFFFF800
1FF1FFE000
03C07E0000
ENDCHAR
STARTCHAR 019D
ENCODING 413
SWIDTH 495 0
DWIDTH 33 0
BBX 46 52 -7 -11
BITMAP
00001FC001FC
00001FE003FC
00003FE003F8
00003FE003F8
00003FE003F8
00003FF007F8
00007FF007F0
00007FF007F0
00007FF807F0
00007FF80FF0
0000FFF80FE0
0000FFF80FE0
0000FEFC0FE0
0000FEFC0FE0
0000FEFC1FC0
0001FEFC1FC0
0001FC7C1FC0
0001FC7E1FC0
0001FC7E3FC0
0003FC7E3F80
0003F83E3F80
0003F83F3F80
0003F83F7F80
0007F83F7F00
0007F03F7F00
0007F01F7F00
0007F01FFF00
000FF01FFE00
000FE01FFE00
000FE01FFE00
000FE00FFE00
001FE00FFC00
001FC00FFC00
001FC00FFC00
001FC00FFC00
001FC007F800
003FC007F800
003F8007F800
003F8007F800
003F8007F800
007F8007F000
007F00000000
007F00000000
00FF00000000
01FE00000000
3FFE00000000
3FFE00000000
7FFC00000000
7FF800000000
7FF000000000
FFE000000000
7F8000000000
ENDCHAR
STARTCHAR 019E
ENCODING 414
SWIDTH 495 0
DWIDTH 33 0
BBX 30 43 3 -11
BITMAP
0007FE00
00FFFFC0
01FFFFF0
01FFFFF0
01FFFFF8
03FFFFFC
03FFFFFC
03FC0FFC
03FC07FC
07FC03FC
07F803FC
07F803FC
07F803FC
0FF807FC
0FF007F8
0FF007F8
0FF007F8
1FF00FF8
1FE00FF0
1FE00FF0
1FE00FF0
3FE00FF0
3FC01FF0
3FC01FE0
3FC01FE0
7FC01FE0
7F803FE0
7F803FC0
7F803FC0
7F803FC0
FF807FC0
FF007F80
00007F80
00007F80
0000FF80
0000FF00
0000FF00
0000FF00
0001FF00
0001FE00
0001FE00
0001FE00
0003FE00
ENDCHAR
STARTCHAR 019F
ENCODING 415
SWIDTH 495 0
DWIDTH 33 0
BBX 31 43 5 -1
BITMAP
0001FF00
000FFFC0
001FFFE0
007FFFF0
00FFFFF8
01FFFFF8
03FFFFFC
03FF07FC
07FE03FE
07FC03FE
0FF801FE
0FF001FE
1FF001FE
1FE001FE
3FE001FE
3FC001FE
3FC001FE
7FC001FE
7FFFFFFE
7FFFFFFE
7FFFFFFC
FFFFFFFC
FFFFFFFC
FFFFFFFC
FFFFFFFC
FF0007F8
FF0007F8
FF000FF8
FF000FF0
FF001FF0
FF001FE0
FF003FE0
FF003FC0
FF007FC0
FF80FF80
FFE3FF80
7FFFFF00
7FFFFE00
3FFFFC00
1FFFF800
0FFFE000
07FFC000
00FE0000
ENDCHAR
STARTCHAR 01A0
ENCODING 416
SWIDTH 495 0
DWIDTH 33 0
BBX 36 49 4 -1
BITMAP
00000007F0
0000000FF0
0000000FF0
0000000FF0
0000000FE0
0000000FE0
0001FF1FE0
0007FFFFC0
001FFFFF80
003FFFFF80
007FFFFF00
00FFFFFE00
01FFFFFC00
03FF87FC00
03FE03FC00
07FC03FE00
07F803FE00
0FF803FE00
0FF001FE00
1FF001FE00
1FE001FE00
1FE003FE00
3FE003FE00
3FC003FE00
3FC003FC00
3FC003FC00
7FC003FC00
7F8003FC00
7F8003FC00
7F8007F800
7F8007F800
7F8007F800
7F800FF800
7F800FF000
FF800FF000
FF801FF000
FF801FE000
FF803FE000
7F803FC000
7F807FC000
7FC0FF8000
7FE3FF0000
3FFFFF0000
3FFFFE0000
1FFFFC0000
1FFFF80000
0FFFF00000
03FFC00000
00FE000000
ENDCHAR
STARTCHAR 01A1
ENCODING 417
SWIDTH 495 0
DWIDTH 33 0
BBX 35 39 4 -1
BITMAP
0000001FE0
0000001FE0
0000001FE0
0000001FC0
0000003FC0
0000003FC0
0007FC3F80
001FFF7F80
007FFFFF00
00FFFFFE00
01FFFFFE00
03FFFFFC00
07FFFFF800
0FFC3FF000
0FF81FF000
1FF00FF000
1FE00FF000
3FC00FF000
3FC00FF000
7FC00FF000
7F800FF000
7F800FF000
7F800FF000
7F800FF000
FF801FF000
FF801FE000
FF801FE000
FF803FE000
FF803FC000
FF807FC000
7FC0FF8000
7FE3FF8000
7FFFFF0000
3FFFFE0000
3FFFFC0000
1FFFF80000
0FFFE00000
07FFC00000
01FE000000
ENDCHAR
STARTCHAR 01A2
ENCODING 418
SWIDTH 495 0
DWIDTH 33 0
BBX 33 43 4 -1
BITMAP
000FC0FC00
003FF3FF00
007FFFFF00
00FFFFFF80
01FFFFFF80
01FFFFFF80
03FDFF3F80
03F0FE1F80
07F0FC1F80
07E0FC1F80
0FE0FC1F80
0FC0FC1F80
1FC0FC1F80
1F80FC1F80
1F80FC3F00
3F80FC3F00
3F00FC3F00
3F00FC3F00
3F01FC7F00
7F01F87E00
7E01F87E00
7E01F87E00
7E03F8FE00
7E03F0FC00
FE03F0FC00
FC03F0FC00
FC07F1FC00
FC07E1F800
FC07E1F800
FC0FE1F800
FC0FC3F800
FC0FC3F000
FC1FC3F000
FC1F83F000
FC3F83F000
FC3F07F000
FEFF07E000
FFFE07E000
FFFC07E000
7FFC0FE000
7FF80FC000
3FE00FC000
0F80000000
ENDCHAR
STARTCHAR 01A3
ENCODING 419
SWIDTH 495 0
DWIDTH 33 0
BBX 33 43 3 -11
BITMAP
001FC1F800
007FEFFE00
00FFFFFF00
01FFFFFF00
03FFFFFF80
07FFFFFF80
0FF1FC7F80
0FE1FC3F80
1FC0FC3F80
1F80FC3F80
1F80FC3F00
3F00FC3F00
3F00FC3F00
3F01F83F00
7E01F87F00
7E01F87E00
7E01F87E00
7E01F87E00
7E01F8FE00
7E03F0FC00
7E03F0FC00
FC03F0FC00
FC07E1FC00
FE07E1F800
FE0FE1F800
FE1FC1F800
7FFF81F800
7FFF83F000
7FFF03F000
3FFE03F000
3FFC03F000
1FF007E000
078007E000
000007E000
000007E000
00000FE000
00000FC000
00000FC000
00000FC000
00001FC000
00001F8000
00001F8000
00001F8000
ENDCHAR
STARTCHAR 01A4
ENCODING 420
SWIDTH 495 0
DWIDTH 33 0
BBX 32 42 6 0
BITMAP
0001FC00
00FFFFC0
03FFFFF0
0FFFFFF8
1FFFFFFC
3FFFFFFC
3FFFEFFE
7F9FE1FE
7F1FC0FE
7E1FC0FE
7E1FC0FF
FE3FC0FF
FC3F80FE
F83F80FE
003F80FE
007F80FE
007F01FE
007F01FC
007F03FC
00FF07FC
00FE0FF8
00FFFFF0
00FFFFF0
01FFFFE0
01FFFFC0
01FFFF00
01FFFC00
01FFE000
03FC0000
03F80000
03F80000
03F80000
07F80000
07F00000
07F00000
07F00000
0FF00000
0FE00000
0FE00000
0FE00000
1FE00000
1FC00000
ENDCHAR
STARTCHAR 01A5
ENCODING 421
SWIDTH 495 0
DWIDTH 33 0
BBX 34 57 0 -11
BITMAP
00003FF000
0000FFF000
0001FFF000
0003FFE000
0003FFE000
0007FFE000
000FFFC000
000FF80000
000FF00000
001FF00000
001FE00000
001FE00000
001FE00000
003FE00000
003FDFE000
003FFFF800
003FFFFC00
007FFFFE00
007FFFFF00
007FFFFF80
007FFFFF80
00FF80FF80
00FF007F80
00FF007FC0
00FF003FC0
01FF003FC0
01FE003FC0
01FE003FC0
01FE007FC0
03FE007F80
03FC007F80
03FC007F80
03FC00FF80
03FC00FF00
07FC01FF00
07F801FF00
07F803FE00
07F80FFE00
0FF81FFC00
0FF9FFF800
0FFFFFF800
0FFFFFF000
1FFFFFE000
1FFFFF8000
1FFFFF0000
1FFFF80000
3FFF000000
3FC0000000
3FC0000000
3FC0000000
7FC0000000
7F80000000
7F80000000
7F80000000
FF80000000
FF00000000
FF00000000
ENDCHAR
STARTCHAR 01A6
ENCODING 422
SWIDTH 495 0
DWIDTH 33 0
BBX 34 52 2 -6
BITMAP
001FE00000
001FE00000
001FE00000
003FE00000
003FFE0000
003FFFE000
003FFFF800
007FFFFE00
007FFFFE00
007FFFFF00
007FFFFF80
007F83FF80
00FF00FF80
00FF007F80
00FF007FC0
00FF007FC0
01FE007F80
01FE007F80
01FE007F80
01FE007F80
03FC00FF80
03FC01FF00
03FC03FF00
03FC0FFE00
07FFFFFC00
07FFFFF800
07FFFFF000
07FFFFE000
0FFFFF8000
0FFFFE0000
0FFFFF0000
0FF0FF0000
1FF07F8000
1FE07F8000
1FE03FC000
1FE03FC000
1FE03FC000
3FC01FE000
3FC01FE000
3FC01FE000
3FC00FF000
7F800FF000
7F800FF000
7F8007F800
7F8007F800
FF0007F800
000003FC00
000003FC00
000003FC00
000003FC00
000001FE00
000001FE00
ENDCHAR
STARTCHAR 01A7
ENCODING 423
SWIDTH 495 0
DWIDTH 33 0
BBX 32 43 4 -1
BITMAP
0003FFC0
001FFFF0
00FFFFFC
00FFFFFE
00FFFFFE
007FFFFF
007FFFFF
007801FF
004000FF
000000FF
000000FF
000000FF
000000FF
000001FF
000003FF
00000FFE
00003FFC
0001FFFC
000FFFF8
003FFFE0
00FFFFC0
03FFFF00
07FFFC00
0FFFE000
1FFF8000
3FFC0000
7FF00000
7FE00000
7FC00000
FF800000
FF800000
FF000000
FF800000
FF800000
FFC000C0
7FE00FC0
7FFFFFC0
7FFFFFC0
3FFFFFE0
1FFFFFE0
0FFFFFE0
03FFFF00
003FE000
ENDCHAR
STARTCHAR 01A8
ENCODING 424
SWIDTH 495 0
DWIDTH 33 0
BBX 28 33 5 -1
BITMAP
001FFC00
01FFFF80
07FFFFC0
03FFFFE0
03FFFFE0
03FFFFE0
03FFFFF0
03001FF0
00000FF0
00000FF0
00001FF0
00003FE0
0000FFE0
0007FFC0
007FFF80
01FFFF00
07FFFE00
1FFFF800
3FFFC000
7FFE0000
7FF00000
FFC00000
FF000000
FF000000
FF000000
FF801E00
FFFFFE00
FFFFFE00
7FFFFF00
7FFFFF00
1FFFFF00
0FFFFC00
01FF8000
ENDCHAR
STARTCHAR 01A9
ENCODING 425
SWIDTH 495 0
DWIDTH 33 0
BBX 39 41 1 0
BITMAP
003FFFFFFE
003FFFFFFC
003FFFFFFC
003FFFFFFC
003FFFFFFC
003FFFFFF8
001FFFFFF8
001FE00000
000FF00000
000FF00000
0007F80000
0007F80000
0003FC0000
0001FE0000
0001FE0000
0000FF0000
0000FF0000
00007F8000
00007FC000
00003FC000
00003FE000
00007FC000
0001FF8000
0003FF0000
0007FE0000
000FFC0000
001FF80000
003FF00000
007FE00000
00FF800000
01FF000000
03FE000000
07FC000000
1FF8000000
3FFFFFFE00
3FFFFFFC00
7FFFFFFC00
7FFFFFFC00
7FFFFFFC00
7FFFFFF800
FFFFFFF800
ENDCHAR
STARTCHAR 01AA
ENCODING 426
SWIDTH 495 0
DWIDTH 33 0
BBX 22 57 9 -11
BITMAP
00FFC0
03FFF0
07FFF0
0FFFF8
1FFFFC
3FE7FC
3F83FC
7F03FC
7E03FC
7E03FC
FE03FC
FE03FC
7F0FFC
7FFFFC
7FFFF8
7FFFF8
3FFFF8
1FFFF8
0FFFF0
000FF0
000FF0
001FF0
001FE0
001FE0
001FE0
003FE0
003FC0
003FC0
003FC0
007FC0
007F80
007F80
007F80
00FF80
00FF00
00FF00
00FF00
01FF00
01FE00
01FE00
01FE00
01FE00
03FE00
03FC00
03FC00
03FC00
07FC00
07FC00
07FC00
07FE00
03FFF8
03FFF8
03FFF0
01FFF0
01FFF0
00FFF0
003FE0
ENDCHAR
STARTCHAR 01AB
ENCODING 427
SWIDTH 495 0
DWIDTH 33 0
BBX 29 52 7 -11
BITMAP
00002000
000FC000
003FC000
003FC000
007FC000
007F8000
007F8000
007F8000
00FF8000
00FF0000
7FFFFFF8
7FFFFFF8
FFFFFFF0
FFFFFFF0
FFFFFFF0
FFFFFFF0
01FE0000
03FE0000
03FC0000
03FC0000
03FC0000
07FC0000
07F80000
07F80000
07F80000
0FF80000
0FF00000
0FF00000
0FF00000
1FF00000
1FF00000
1FF00000
1FF00000
1FF00000
1FFE7F00
1FFFFF00
0FFFFF00
0FFFFF00
07FFFF00
03FFFF00
00FFFE00
0004FE00
0000FE00
0000FE00
0001FE00
0083FC00
00FFFC00
00FFF800
01FFF000
01FFE000
01FFC000
00FF0000
ENDCHAR
STARTCHAR 01AC
ENCODING 428
SWIDTH 495 0
DWIDTH 33 0
BBX 33 41 7 0
BITMAP
01FFFFFF80
0FFFFFFF80
1FFFFFFF80
3FFFFFFF80
7FFFFFFF00
7FFFFFFF00
FFFFFFFF00
FE07F80000
FC07F80000
FC07F80000
FC07F80000
FC0FF00000
F00FF00000
000FF00000
000FF00000
001FF00000
001FE00000
001FE00000
001FE00000
003FE00000
003FC00000
003FC00000
003FC00000
007FC00000
007F800000
007F800000
007F800000
00FF800000
00FF000000
00FF000000
00FF000000
01FF000000
01FE000000
01FE000000
01FE000000
01FE000000
03FC000000
03FC000000
03FC000000
03FC000000
07FC000000
ENDCHAR
STARTCHAR 01AD
ENCODING 429
SWIDTH 495 0
DWIDTH 33 0
BBX 32 47 7 -1
BITMAP
00003FF8
0000FFFF
0003FFFF
0007FFFF
000FFFFE
000FFFFE
001FFFFC
003FF00C
003FE000
003FC000
007FC000
007F8000
007F8000
00FF8000
00FF0000
7FFFFFF8
7FFFFFF8
FFFFFFF0
FFFFFFF0
FFFFFFF0
FFFFFFF0
01FE0000
03FE0000
03FC0000
03FC0000
03FC0000
07FC0000
07F80000
07F80000
07F80000
0FF80000
0FF00000
0FF00000
0FF00000
1FF00000
1FF00000
1FF00000
1FF00000
1FF00200
1FFE7F00
1FFFFF00
0FFFFF00
0FFFFF00
07FFFF00
03FFFF00
01FFFC00
003F8000
ENDCHAR
STARTCHAR 01AE
ENCODING 430
SWIDTH 495 0
DWIDTH 33 0
BBX 31 52 9 -11
BITMAP
7FFFFFFE
7FFFFFFE
7FFFFFFE
FFFFFFFC
FFFFFFFC
FFFFFFFC
FFFFFFFC
003FC000
003FC000
003FC000
003FC000
007F8000
007F8000
007F8000
007F8000
00FF8000
00FF0000
00FF0000
00FF0000
01FF0000
01FE0000
01FE0000
01FE0000
03FE0000
03FC0000
03FC0000
03FC0000
07FC0000
07F80000
07F80000
07F80000
0FF80000
0FF00000
0FF00000
0FF00000
1FF00000
1FE00000
1FE00000
1FE00000
1FE00000
3FE00000
3FC00000
3FC00000
3FC00000
3FE00000
3FFF0000
3FFF0000
3FFF0000
1FFF0000
1FFF0000
0FFF0000
03FE0000
ENDCHAR
STARTCHAR 01AF
ENCODING 431
SWIDTH 495 0
DWIDTH 33 0
BBX 40 49 4 -1
BITMAP
000000007F
000000007F
000000007F
000000007F
000000007E
00000000FE
00000007FE
01FE00FFFC
01FE00FFF8
01FC00FFF0
01FC01FFC0
03FC01FE00
03FC01FE00
03FC01FC00
03F803FC00
07F803FC00
07F803FC00
07F803F800
07F007F800
0FF007F800
0FF007F800
0FF007F000
0FE007F000
1FE00FF000
1FE00FF000
1FE00FE000
1FC00FE000
3FC01FE000
3FC01FE000
3FC01FE000
3F801FC000
3F803FC000
7F803FC000
7F803FC000
7F003F8000
7F007F8000
FF007F8000
FF007F0000
FF00FF0000
FF00FF0000
FF01FE0000
7F83FE0000
7FFFFE0000
7FFFFC0000
7FFFF80000
3FFFF00000
1FFFE00000
0FFFC00000
01FC000000
ENDCHAR
STARTCHAR 01B0
ENCODING 432
SWIDTH 495 0
DWIDTH 33 0
BBX 36 39 4 -1
BITMAP
00000007F0
00000007F0
00000007F0
00000007F0
0000000FE0
0000000FE0
0000003FE0
0FF00FFFC0
0FF00FFF80
0FF00FFF00
0FE00FFC00
1FE01FE000
1FE01FE000
1FE01FC000
1FC01FC000
1FC03FC000
3FC03FC000
3FC03F8000
3F803F8000
3F807F8000
7F807F8000
7F807F8000
7F007F0000
7F00FF0000
FF00FF0000
FF00FF0000
FF00FE0000
FF00FE0000
FF01FE0000
FF01FE0000
FF03FE0000
FFDFFE0000
FFFFFE0000
7FFFFE0000
7FFFFF0000
7FFFFF0000
3FFE7F0000
0FFC7F0000
03E0000000
ENDCHAR
STARTCHAR 01B1
ENCODING 433
SWIDTH 495 0
DWIDTH 33 0
BBX 37 42 4 -1
BITMAP
07FFE1FFF8
07FFE3FFF0
07FFE3FFF0
07FFE3FFF0
0FFFC3FFF0
0FFFC7FFF0
0FFF83FFE0
007F03FC00
00FE01FC00
01FE01FC00
03FC01FE00
03F800FE00
07F800FE00
0FF000FE00
0FF000FF00
1FE000FF00
1FE000FF00
3FC000FF00
3FC000FF00
3FC000FF00
7F8000FE00
7F8000FE00
7F8001FE00
7F8001FE00
FF0001FE00
FF0001FE00
FF0003FC00
FF0003FC00
FF0003FC00
FF0007F800
FF0007F800
FF800FF800
FF801FF000
7FC03FE000
7FF1FFE000
7FFFFFC000
3FFFFF8000
3FFFFF0000
1FFFFE0000
0FFFF80000
03FFF00000
00FF000000
ENDCHAR
STARTCHAR 01B2
ENCODING 434
SWIDTH 495 0
DWIDTH 33 0
BBX 31 43 5 -1
BITMAP
00000700
03FE3FE0
03FC3FF8
03FC3FF8
03FC3FFC
07FC3FFC
07F83FFE
07F83FFE
07F803FE
0FF801FE
0FF001FE
0FF001FE
0FF001FE
0FF001FE
1FF001FE
1FE001FE
1FE001FE
1FE001FE
3FE001FE
3FC003FE
3FC003FC
3FC003FC
7FC003FC
7F8007FC
7F8007F8
7F8007F8
FF800FF8
FF000FF0
FF001FF0
FF001FF0
FF003FE0
FF003FE0
FF007FC0
FF00FF80
FF01FF80
FFC7FF00
FFFFFE00
FFFFFC00
7FFFF800
7FFFF000
3FFFE000
0FFF8000
03FC0000
ENDCHAR
STARTCHAR 01B3
ENCODING 435
SWIDTH 495 0
DWIDTH 33 0
BBX 33 42 9 0
BITMAP
000000FC00
FF0003FF00
FF0007FF80
FF000FFF80
FF001FFF00
7F001FFF00
7F003FFE00
7F807FFC00
7F807F8000
7F80FF0000
7F80FE0000
3F81FC0000
3F81FC0000
3F83F80000
3FC7F80000
3FC7F00000
1FCFE00000
1FCFE00000
1FDFC00000
1FFFC00000
0FFF800000
0FFF000000
0FFF000000
0FFE000000
07FE000000
07FC000000
07F8000000
07F8000000
07F8000000
0FF8000000
0FF0000000
0FF0000000
0FF0000000
1FF0000000
1FE0000000
1FE0000000
1FE0000000
3FE0000000
3FC0000000
3FC0000000
3FC0000000
7FC0000000
ENDCHAR
STARTCHAR 01B4
ENCODING 436
SWIDTH 495 0
DWIDTH 33 0
BBX 41 43 -2 -11
BITMAP
000000007C00
003FC003FF80
003FC007FF00
003FC00FFF00
003FC01FFF00
003FC01FFE00
003FC03FFE00
003FC03FE600
003FC07F8000
003FC07F8000
003FC07F0000
003FC0FF0000
003FC0FE0000
001FC1FE0000
001FC1FC0000
001FE3FC0000
001FE3F80000
001FE3F80000
001FE7F80000
001FE7F00000
001FEFF00000
000FEFE00000
000FFFE00000
000FFFC00000
000FFFC00000
000FFF800000
000FFF800000
0007FF800000
0007FF000000
0007FF000000
0007FE000000
0003FC000000
0007FC000000
000FF8000000
001FF0000000
007FE0000000
3FFFE0000000
7FFFC0000000
7FFF80000000
FFFE00000000
FFFC00000000
FFF000000000
7FC000000000
ENDCHAR
STARTCHAR 01B5
ENCODING 437
SWIDTH 495 0
DWIDTH 33 0
BBX 36 41 2 0
BITMAP
003FFFFFF0
003FFFFFF0
003FFFFFE0
007FFFFFE0
007FFFFFE0
007FFFFFE0
0000007FC0
0000007F80
000000FF00
000001FF00
000003FE00
000007FC00
00000FF800
00001FF000
00003FE000
00007FC000
00007F8000
03FFFFFF00
03FFFFFF00
07FFFFFE00
07FFFFFE00
07FFFFFE00
07FFFFFE00
001FE00000
003FE00000
007FC00000
00FF800000
01FF000000
01FE000000
03FC000000
07FC000000
0FF8000000
0FF0000000
1FE0000000
3FFFFFF800
7FFFFFF000
7FFFFFF000
7FFFFFF000
FFFFFFF000
FFFFFFE000
FFFFFFE000
ENDCHAR
STARTCHAR 01B6
ENCODING 438
SWIDTH 495 0
DWIDTH 33 0
BBX 32 31 3 0
BITMAP
00FFFFFF
00FFFFFF
00FFFFFF
01FFFFFE
01FFFFFE
01FFFFFE
00000FFC
00001FF8
00003FF0
00007FE0
0000FF80
0001FF00
0003FE00
03FFFFF0
03FFFFF0
07FFFFF0
07FFFFF0
07FFFFE0
00FF8000
01FF0000
03FE0000
07FC0000
0FF80000
0FF00000
1FFFFFE0
3FFFFFE0
7FFFFFC0
7FFFFFC0
7FFFFFC0
7FFFFFC0
FFFFFF80
ENDCHAR
STARTCHAR 01B7
ENCODING 439
SWIDTH 495 0
DWIDTH 33 0
BBX 36 42 2 -1
BITMAP
001FFFFFF0
003FFFFFF0
003FFFFFE0
003FFFFFE0
003FFFFFE0
007FFFFFC0
007FFFFF80
000000FF00
000001FE00
000003FC00
000007F800
00000FF000
00001FE000
00003FC000
00007F8000
0000FF0000
0001FE0000
0007FF0000
0007FFC000
0007FFF000
0007FFF800
0007FFF800
00001FFC00
000007FC00
000007FC00
000003FC00
000003FE00
000003FE00
000003FC00
000003FC00
000003FC00
000007FC00
00000FFC00
1C001FF800
3FC07FF800
3FFFFFF000
7FFFFFE000
7FFFFFC000
FFFFFF8000
7FFFFF0000
0FFFFC0000
01FFC00000
ENDCHAR
STARTCHAR 01B8
ENCODING 440
SWIDTH 495 0
DWIDTH 33 0
BBX 34 42 5 -1
BITMAP
00FFFFFFC0
00FFFFFFC0
00FFFFFF80
00FFFFFF80
00FFFFFF80
00FFFFFF80
007FFFFF00
003FC00000
003FC00000
001FE00000
001FE00000
000FF00000
000FF00000
0007F80000
0003FC0000
0003FC0000
0001FE0000
000FFF0000
007FFE0000
01FFFE0000
03FFFE0000
0FFFFE0000
1FFF000000
3FF8000000
3FE0000000
7FC0000000
7F80000000
7F80000000
FF80000000
FF80000000
FF80000000
FF80000000
FF80000000
7FC000C000
7FF007C000
7FFFFFC000
3FFFFFC000
3FFFFFC000
1FFFFFC000
07FFFFC000
03FFFF0000
007FF00000
ENDCHAR
STARTCHAR 01B9
ENCODING 441
SWIDTH 495 0
DWIDTH 33 0
BBX 32 42 4 -11
BITMAP
00FFFFFF
00FFFFFF
00FFFFFF
00FFFFFF
01FFFFFE
00FFFFFE
00FF0000
007F8000
007F8000
003FC000
001FE000
001FE000
000FF000
000FF000
0007F800
0007F800
0003FC00
001FFE00
00FFFC00
03FFFC00
07FFFC00
1FFFFC00
1FFE0000
3FF00000
7FC00000
7F800000
FF800000
FF000000
FF000000
FF000000
FF000000
FF000000
FF800000
FFC00180
FFE00F80
7FFFFF80
7FFFFF80
3FFFFF80
1FFFFF80
0FFFFF80
03FFFE00
007FE000
ENDCHAR
STARTCHAR 01BA
ENCODING 442
SWIDTH 495 0
DWIDTH 33 0
BBX 35 42 0 -11
BITMAP
001FFFFFE0
003FFFFFC0
003FFFFFC0
003FFFFFC0
003FFFFFC0
007FFFFF80
000001FF00
000003FE00
000007F800
00001FF000
00003FE000
00007FC000
0001FF0000
0003FE0000
0007FC0000
0007FF8000
0007FFE000
0007FFF000
0003FFF800
00000FF800
000007FC00
000007FC00
000007FC00
000007FC00
000007FC00
00000FF800
00001FF800
0001FFF800
001FFFF000
00FFFFE000
07FFFFC000
1FFFFF8000
3FFFFE0000
7FFFE00000
7FFE000000
FFE0000000
FF80000000
FE00000000
FE00000000
FE00000000
FE00000000
F000000000
ENDCHAR
STARTCHAR 01BB
ENCODING 443
SWIDTH 495 0
DWIDTH 33 0
BBX 32 42 3 0
BITMAP
0000FFC0
0007FFF0
001FFFFC
003FFFFE
007FFFFE
007FFFFF
007FFFFF
003F03FF
003C01FF
001000FF
000000FF
000000FF
000000FF
000001FF
000001FE
000003FE
000007FC
00000FF8
00001FF0
01FFFFFF
01FFFFFF
01FFFFFE
03FFFFFE
03FFFFFE
03FFFFFE
003FF800
007FE000
00FFC000
01FF8000
03FF0000
07FC0000
0FF80000
0FF00000
1FF00000
3FE00000
3FFFFFF0
7FFFFFF0
7FFFFFF0
7FFFFFE0
FFFFFFE0
FFFFFFE0
FFFFFFE0
ENDCHAR
ENDFONT
